SplineFontDB: 3.2
FontName: KAAlmouziosCombo-Regular
FullName: KA Almouzios Combo Regular
FamilyName: KA Almouzios Combo
Weight: Book
Copyright: SIL OPEN FONT LICENSE Version 1.1
Version: 1.000
ItalicAngle: 0
UnderlinePosition: -100
UnderlineWidth: 50
Ascent: 800
Descent: 200
InvalidEm: 0
sfntRevision: 0x00010000
LayerCount: 2
Layer: 0 1 "Back" 1
Layer: 1 1 "Fore" 0
XUID: [1021 596 -667042339 11550696]
StyleMap: 0x0040
FSType: 8
OS2Version: 3
OS2_WeightWidthSlopeOnly: 0
OS2_UseTypoMetrics: 0
CreationTime: 1492613472
ModificationTime: 1728390306
PfmFamily: 81
TTFWeight: 400
TTFWidth: 5
LineGap: 0
VLineGap: 0
Panose: 0 0 5 0 0 0 0 0 0 0
OS2TypoAscent: 800
OS2TypoAOffset: 0
OS2TypoDescent: -200
OS2TypoDOffset: 0
OS2TypoLinegap: 200
OS2WinAscent: 1000
OS2WinAOffset: 0
OS2WinDescent: 200
OS2WinDOffset: 0
HheadAscent: 1000
HheadAOffset: 0
HheadDescent: -200
HheadDOffset: 0
OS2SubXSize: 650
OS2SubYSize: 600
OS2SubXOff: 0
OS2SubYOff: 75
OS2SupXSize: 650
OS2SupYSize: 600
OS2SupXOff: 0
OS2SupYOff: 350
OS2StrikeYSize: 50
OS2StrikeYPos: 300
OS2CapHeight: 700
OS2XHeight: 500
OS2Vendor: 'UKWN'
OS2CodePages: 00000001.00000000
OS2UnicodeRanges: 00000000.00000000.00000000.00000000
DEI: 91125
ShortTable: maxp 16
  1
  0
  22
  213
  10
  0
  0
  1
  2
  30
  6
  0
  100
  0
  0
  0
EndShort
LangName: 1033 "" "" "" "1.000;UKWN;KAAlmouziosCombo-Regular" "" "Version 1.000" "" "" "" "Trevor Bullock" "" "" "" "This Font Software is licensed under the SIL Open Font License, Version 1.1. This license is available with a FAQ at: http://scripts.sil.org/OFL" "http://scripts.sil.org/OFL"
Encoding: UnicodeBmp
Compacted: 1
UnicodeInterp: none
NameList: AGL For New Fonts
DisplaySize: -128
AntiAlias: 1
FitToEm: 1
WinInfo: 0 14 6
BeginChars: 65537 22

StartChar: .notdef
Encoding: 65536 -1 0
Width: 626
VWidth: 1392
GlyphClass: 1
Flags: W
LayerCount: 2
Back
SplineSet
410 -200 m 1,0,-1
 93 -200 l 1,1,-1
 93 800 l 1,2,-1
 410 800 l 1,3,-1
 410 -200 l 1,0,-1
168 733 m 1,4,-1
 168 700 l 1,5,-1
 233 700 l 1,6,-1
 233 663 l 1,7,-1
 167 663 l 1,8,-1
 167 630 l 1,9,-1
 333 630 l 1,10,-1
 333 663 l 1,11,-1
 267 663 l 1,12,-1
 267 700 l 1,13,-1
 333 700 l 1,14,-1
 333 733 l 1,15,-1
 168 733 l 1,4,-1
167 604 m 1,16,-1
 167 500 l 1,17,-1
 333 500 l 1,18,-1
 333 534 l 1,19,-1
 267 534 l 1,20,-1
 267 604 l 1,21,-1
 167 604 l 1,16,-1
233 534 m 1,22,-1
 200 534 l 1,23,-1
 200 570 l 1,24,-1
 233 570 l 1,25,-1
 233 534 l 1,22,-1
167 473 m 1,26,-1
 167 440 l 1,27,-1
 233 440 l 1,28,-1
 233 403 l 1,29,-1
 167 403 l 1,30,-1
 167 370 l 1,31,-1
 267 370 l 1,32,-1
 267 440 l 1,33,-1
 333 440 l 1,34,-1
 333 473 l 1,35,-1
 167 473 l 1,26,-1
300 413 m 1,36,-1
 300 347 l 1,37,-1
 167 347 l 1,38,-1
 167 313 l 1,39,-1
 333 313 l 1,40,-1
 333 413 l 1,41,-1
 300 413 l 1,36,-1
233 291 m 1,42,-1
 233 235 l 1,43,-1
 267 235 l 1,44,-1
 267 258 l 1,45,-1
 300 258 l 1,46,-1
 300 211 l 1,47,-1
 200 211 l 1,48,-1
 200 291 l 1,49,-1
 167 291 l 1,50,-1
 167 178 l 1,51,-1
 333 178 l 1,52,-1
 333 291 l 1,53,-1
 233 291 l 1,42,-1
167 118 m 1,54,-1
 167 5 l 1,55,-1
 333 5 l 1,56,-1
 333 118 l 1,57,-1
 167 118 l 1,54,-1
300 38 m 1,58,-1
 200 38 l 1,59,-1
 200 85 l 1,60,-1
 300 85 l 1,61,-1
 300 38 l 1,58,-1
167 -18 m 1,62,-1
 167 -51 l 1,63,-1
 237 -51 l 1,64,-1
 167 -98 l 1,65,-1
 167 -131 l 1,66,-1
 333 -131 l 1,67,-1
 333 -98 l 1,68,-1
 231 -98 l 1,69,-1
 301 -51 l 1,70,-1
 333 -51 l 1,71,-1
 333 -18 l 1,72,-1
 167 -18 l 1,62,-1
EndSplineSet
Fore
SplineSet
522 0 m 1,0,-1
 154.280273438 0 l 1,1,-1
 154.280273438 1160 l 1,2,-1
 522 1160 l 1,3,-1
 522 0 l 1,0,-1
241.280273438 1082.28027344 m 1,4,-1
 241.280273438 1044 l 1,5,-1
 316.6796875 1044 l 1,6,-1
 316.6796875 1001.08007812 l 1,7,-1
 240.120117188 1001.08007812 l 1,8,-1
 240.120117188 962.799804688 l 1,9,-1
 432.6796875 962.799804688 l 1,10,-1
 432.6796875 1001.08007812 l 1,11,-1
 356.120117188 1001.08007812 l 1,12,-1
 356.120117188 1044 l 1,13,-1
 432.6796875 1044 l 1,14,-1
 432.6796875 1082.28027344 l 1,15,-1
 241.280273438 1082.28027344 l 1,4,-1
240.120117188 932.639648438 m 1,16,-1
 240.120117188 812 l 1,17,-1
 432.6796875 812 l 1,18,-1
 432.6796875 851.440429688 l 1,19,-1
 356.120117188 851.440429688 l 1,20,-1
 356.120117188 932.639648438 l 1,21,-1
 240.120117188 932.639648438 l 1,16,-1
316.6796875 851.440429688 m 1,22,-1
 278.400390625 851.440429688 l 1,23,-1
 278.400390625 893.200195312 l 1,24,-1
 316.6796875 893.200195312 l 1,25,-1
 316.6796875 851.440429688 l 1,22,-1
240.120117188 780.6796875 m 1,26,-1
 240.120117188 742.400390625 l 1,27,-1
 316.6796875 742.400390625 l 1,28,-1
 316.6796875 699.48046875 l 1,29,-1
 240.120117188 699.48046875 l 1,30,-1
 240.120117188 661.200195312 l 1,31,-1
 356.120117188 661.200195312 l 1,32,-1
 356.120117188 742.400390625 l 1,33,-1
 432.6796875 742.400390625 l 1,34,-1
 432.6796875 780.6796875 l 1,35,-1
 240.120117188 780.6796875 l 1,26,-1
394.400390625 711.080078125 m 1,36,-1
 394.400390625 634.51953125 l 1,37,-1
 240.120117188 634.51953125 l 1,38,-1
 240.120117188 595.080078125 l 1,39,-1
 432.6796875 595.080078125 l 1,40,-1
 432.6796875 711.080078125 l 1,41,-1
 394.400390625 711.080078125 l 1,36,-1
316.6796875 569.559570312 m 1,42,-1
 316.6796875 504.599609375 l 1,43,-1
 356.120117188 504.599609375 l 1,44,-1
 356.120117188 531.280273438 l 1,45,-1
 394.400390625 531.280273438 l 1,46,-1
 394.400390625 476.759765625 l 1,47,-1
 278.400390625 476.759765625 l 1,48,-1
 278.400390625 569.559570312 l 1,49,-1
 240.120117188 569.559570312 l 1,50,-1
 240.120117188 438.48046875 l 1,51,-1
 432.6796875 438.48046875 l 1,52,-1
 432.6796875 569.559570312 l 1,53,-1
 316.6796875 569.559570312 l 1,42,-1
240.120117188 368.879882812 m 1,54,-1
 240.120117188 237.799804688 l 1,55,-1
 432.6796875 237.799804688 l 1,56,-1
 432.6796875 368.879882812 l 1,57,-1
 240.120117188 368.879882812 l 1,54,-1
394.400390625 276.080078125 m 1,58,-1
 278.400390625 276.080078125 l 1,59,-1
 278.400390625 330.599609375 l 1,60,-1
 394.400390625 330.599609375 l 1,61,-1
 394.400390625 276.080078125 l 1,58,-1
240.120117188 211.120117188 m 1,62,-1
 240.120117188 172.83984375 l 1,63,-1
 321.3203125 172.83984375 l 1,64,-1
 240.120117188 118.3203125 l 1,65,-1
 240.120117188 80.0400390625 l 1,66,-1
 432.6796875 80.0400390625 l 1,67,-1
 432.6796875 118.3203125 l 1,68,-1
 314.360351562 118.3203125 l 1,69,-1
 395.559570312 172.83984375 l 1,70,-1
 432.6796875 172.83984375 l 1,71,-1
 432.6796875 211.120117188 l 1,72,-1
 240.120117188 211.120117188 l 1,62,-1
EndSplineSet
EndChar

StartChar: C
Encoding: 67 67 2
Width: 1352
VWidth: 1392
GlyphClass: 1
Flags: W
LayerCount: 2
Back
SplineSet
314.5 198.5 m 128,-1,1
 325 197 325 197 328.5 196.5 c 128,-1,2
 332 196 332 196 335 197 c 0,3,4
 340 198 340 198 344 206.5 c 128,-1,5
 348 215 348 215 348 223 c 0,6,7
 348 229 348 229 345 232 c 0,8,9
 340 237 340 237 322 240 c 0,10,11
 273 248 273 248 247 267.5 c 128,-1,12
 221 287 221 287 221 312 c 0,13,14
 221 355 221 355 279.5 378 c 128,-1,15
 338 401 338 401 448 401 c 0,16,17
 661 401 661 401 742 317 c 0,18,19
 766 292 766 292 766 279 c 0,20,21
 766 253 766 253 720 248 c 0,22,23
 699 246 699 246 690 243.5 c 128,-1,24
 681 241 681 241 678 236 c 0,25,26
 676 232 676 232 676 230 c 0,27,28
 676 226 676 226 687 218 c 256,29,30
 698 210 698 210 758.5 202 c 128,-1,31
 819 194 819 194 845 197 c 0,32,33
 883 201 883 201 900 206 c 128,-1,34
 917 211 917 211 924 221 c 128,-1,35
 931 231 931 231 931 252 c 0,36,37
 931 280 931 280 924 297 c 128,-1,38
 917 314 917 314 898 333 c 0,39,40
 830 401 830 401 638 427 c 0,41,42
 493 447 493 447 420 447 c 0,43,44
 360 447 360 447 301.5 437 c 128,-1,45
 243 427 243 427 173 403 c 0,46,47
 130 389 130 389 111 375 c 128,-1,48
 92 361 92 361 85 340 c 0,49,50
 81 328 81 328 81 311 c 0,51,52
 81 299 81 299 83 295 c 0,53,54
 96 265 96 265 147 241 c 128,-1,55
 198 217 198 217 286 203 c 0,56,0
 304 200 304 200 314.5 198.5 c 128,-1,1
499 185 m 0,58,59
 529 185 529 185 559.5 189.5 c 128,-1,60
 590 194 590 194 603 201 c 0,61,62
 630 215 630 215 630 237 c 0,63,64
 630 257 630 257 609 278.5 c 128,-1,65
 588 300 588 300 551 315 c 256,66,67
 514 330 514 330 446 347 c 128,-1,68
 378 364 378 364 351 364 c 0,69,70
 336 364 336 364 327 358 c 128,-1,71
 318 352 318 352 318 343 c 0,72,73
 318 335 318 335 323 329 c 0,74,75
 330 321 330 321 386 313 c 0,76,77
 441 306 441 306 467 291 c 128,-1,78
 493 276 493 276 496 250 c 0,79,80
 497 245 497 245 497 237 c 0,81,82
 497 228 497 228 492 225.5 c 128,-1,83
 487 223 487 223 471 221 c 0,84,85
 457 220 457 220 449 215 c 128,-1,86
 441 210 441 210 441 204 c 0,87,88
 441 194 441 194 459 189 c 0,89,57
 472 185 472 185 499 185 c 0,58,59
1083 -52 m 0,91,92
 1089 -52 1089 -52 1092.5 -46 c 128,-1,93
 1096 -40 1096 -40 1096 -31 c 256,94,95
 1096 -22 1096 -22 1092 -12.5 c 128,-1,96
 1088 -3 1088 -3 1080 3 c 0,97,98
 976 88 976 88 850 107 c 0,99,100
 827 111 827 111 774 111 c 0,101,102
 713 111 713 111 609 107 c 0,103,104
 479 104 479 104 370 104 c 0,105,106
 258 104 258 104 225 108 c 0,107,108
 92 125 92 125 56 145 c 0,109,110
 51 148 51 148 47 148 c 0,111,112
 39 148 39 148 34 139.5 c 128,-1,113
 29 131 29 131 30 118 c 0,114,115
 36 81 36 81 86 52.5 c 128,-1,116
 136 24 136 24 222 7 c 0,117,118
 319 -10 319 -10 418 -10 c 0,119,120
 447 -10 447 -10 462 -9 c 0,121,122
 582 -6 582 -6 755 -6 c 0,123,124
 840 -6 840 -6 856 -7 c 0,125,126
 951 -12 951 -12 1014 -28 c 0,127,128
 1032 -32 1032 -32 1051 -38.5 c 128,-1,129
 1070 -45 1070 -45 1075 -49 c 0,130,90
 1080 -52 1080 -52 1083 -52 c 0,91,92
EndSplineSet
Fore
SplineSet
142.6796875 574.200195312 m 4,0,1
 157.759765625 539.400390625 157.759765625 539.400390625 220.251105498 509.99245571 c 132,-1,2
 282.74244537 480.584520794 282.74244537 480.584520794 427.459960938 459.940429688 c 4,3,4
 439.192255789 458.26398438 439.192255789 458.26398438 444.636166957 469.832187503 c 132,-1,5
 450.080078125 481.400390625 450.080078125 481.400390625 450.080078125 489.520019531 c 132,-1,6
 450.080078125 497.639648438 450.080078125 497.639648438 445.439941406 502.279785156 c 132,-1,7
 440.799804688 506.919921875 440.799804688 506.919921875 419.919921875 510.400390625 c 4,8,9
 363.080078125 519.6796875 363.080078125 519.6796875 332.919921875 542.299804688 c 132,-1,10
 302.759765625 564.919921875 302.759765625 564.919921875 302.759765625 593.919921875 c 4,11,12
 302.759765625 643.799804688 302.759765625 643.799804688 370.620117188 670.48046875 c 132,-1,13
 438.48046875 697.16015625 438.48046875 697.16015625 566.080078125 697.16015625 c 4,14,15
 813.16015625 697.16015625 813.16015625 697.16015625 907.120117188 599.719726562 c 4,16,17
 934.959960938 570.719726562 934.959960938 570.719726562 934.959960938 555.639648438 c 4,18,19
 934.959960938 525.48046875 934.959960938 525.48046875 881.599609375 519.6796875 c 4,20,21
 838.787035092 515.603361974 838.787035092 515.603361974 834.673302702 508.361739581 c 132,-1,22
 830.559570312 501.120117188 830.559570312 501.120117188 830.559570312 497.640136719 c 132,-1,23
 830.559570312 494.16015625 830.559570312 494.16015625 843.3203125 484.879882812 c 260,24,25
 856.080078125 475.599609375 856.080078125 475.599609375 926.259765625 466.3203125 c 132,-1,26
 996.440429688 457.040039062 996.440429688 457.040039062 1033.56005859 461.100097656 c 132,-1,27
 1070.6796875 465.16015625 1070.6796875 465.16015625 1090.40039062 470.959960938 c 132,-1,28
 1110.12011719 476.759765625 1110.12011719 476.759765625 1118.24023438 488.360351562 c 132,-1,29
 1126.36035156 499.959960938 1126.36035156 499.959960938 1126.36035156 528.379882812 c 132,-1,30
 1126.36035156 556.799804688 1126.36035156 556.799804688 1118.24023438 576.51953125 c 132,-1,31
 1110.12011719 596.240234375 1110.12011719 596.240234375 1088.08007812 618.280273438 c 4,32,33
 1009.20019531 697.16015625 1009.20019531 697.16015625 786.48046875 727.3203125 c 4,34,35
 618.280273438 750.51953125 618.280273438 750.51953125 541.140136719 750.51953125 c 4,36,37
 395.945203978 750.51953125 395.945203978 750.51953125 247.080078125 699.48046875 c 4,38,39
 197.200195312 683.240234375 197.200195312 683.240234375 175.16015625 667 c 4,40,41
 140.360351562 641.357714035 140.360351562 641.357714035 140.360351562 592.759765625 c 4,42,43
 140.360351562 578.83984375 140.360351562 578.83984375 142.6796875 574.200195312 c 4,0,1
557.959960938 468.639648438 m 4,44,45
 557.959960938 446.599609375 557.959960938 446.599609375 625.240234375 446.599609375 c 4,46,47
 660.040039062 446.599609375 660.040039062 446.599609375 695.419921875 451.8203125 c 4,48,49
 777.200195312 463.8856624 777.200195312 463.8856624 777.200195312 506.919921875 c 4,50,51
 777.200195312 530.120117188 777.200195312 530.120117188 752.83984375 555.059570312 c 132,-1,52
 728.48046875 580 728.48046875 580 685.559570312 597.400390625 c 260,53,54
 642.639648438 614.799804688 642.639648438 614.799804688 563.759765625 634.51953125 c 132,-1,55
 484.879882812 654.240234375 484.879882812 654.240234375 460.520019531 654.240234375 c 4,56,57
 415.280273438 654.240234375 415.280273438 654.240234375 415.280273438 629.879882812 c 4,58,59
 415.280273438 620.599609375 415.280273438 620.599609375 422.240234375 612.479980469 c 132,-1,60
 429.200195312 604.360351562 429.200195312 604.360351562 493.580078125 595.66015625 c 132,-1,61
 557.959960938 586.959960938 557.959960938 586.959960938 588.120117188 569.559570312 c 4,62,63
 622.919921875 549.483540002 622.919921875 549.483540002 622.919921875 506.919921875 c 4,64,65
 622.919921875 496.48046875 622.919921875 496.48046875 617.120117188 493.580078125 c 132,-1,66
 611.3203125 490.6796875 611.3203125 490.6796875 593.919921875 488.939941406 c 132,-1,67
 576.51953125 487.200195312 576.51953125 487.200195312 567.240234375 481.400390625 c 132,-1,68
 557.959960938 475.599609375 557.959960938 475.599609375 557.959960938 468.639648438 c 4,44,45
1302.6796875 171.6796875 m 4,69,70
 1317.75976562 171.6796875 1317.75976562 171.6796875 1317.75976562 196.040039062 c 260,71,72
 1317.75976562 221.559326249 1317.75976562 221.559326249 1299.20019531 235.48046875 c 4,73,74
 1178.55957031 334.080078125 1178.55957031 334.080078125 1032.40039062 356.120117188 c 4,75,76
 1005.71972656 360.759765625 1005.71972656 360.759765625 939.600097656 360.759765625 c 132,-1,77
 873.48046875 360.759765625 873.48046875 360.759765625 752.83984375 356.120117188 c 4,78,79
 602.040039062 352.639648438 602.040039062 352.639648438 473.859863281 352.639648438 c 132,-1,80
 345.6796875 352.639648438 345.6796875 352.639648438 307.400390625 357.280273438 c 4,81,82
 153.120117188 377 153.120117188 377 111.360351562 400.200195312 c 4,83,84
 105.559570312 403.6796875 105.559570312 403.6796875 98.599609375 403.6796875 c 132,-1,85
 91.6396484375 403.6796875 91.6396484375 403.6796875 85.83984375 393.8203125 c 132,-1,86
 80.0400390625 383.959960938 80.0400390625 383.959960938 81.2001953125 368.879882812 c 4,87,88
 88.16015625 325.959960938 88.16015625 325.959960938 146.16015625 292.900390625 c 132,-1,89
 204.16015625 259.83984375 204.16015625 259.83984375 303.919921875 240.120117188 c 4,90,91
 416.440429688 220.400390625 416.440429688 220.400390625 531.280273438 220.400390625 c 4,92,93
 564.919921875 220.400390625 564.919921875 220.400390625 643.219726562 222.720214844 c 132,-1,94
 721.51953125 225.040039062 721.51953125 225.040039062 871.159667969 225.040039062 c 132,-1,95
 1020.79980469 225.040039062 1020.79980469 225.040039062 1039.36035156 223.879882812 c 4,96,97
 1180.45713592 216.453933694 1180.45713592 216.453933694 1265.55957031 187.33984375 c 4,98,99
 1287.59960938 179.799804688 1287.59960938 179.799804688 1293.39990234 175.739746094 c 132,-1,100
 1299.20019531 171.6796875 1299.20019531 171.6796875 1302.6796875 171.6796875 c 4,69,70
EndSplineSet
EndChar

StartChar: V
Encoding: 86 86 3
Width: 1503
VWidth: 1392
GlyphClass: 1
Flags: W
LayerCount: 2
Back
SplineSet
657 230 m 128,-1,1
 675 255 675 255 679 282 c 0,2,3
 679 285 679 285 691 285 c 2,4,-1
 731 284 l 2,5,6
 751 283 751 283 863 279 c 0,7,8
 984 276 984 276 1023 273.5 c 128,-1,9
 1062 271 1062 271 1082 263 c 0,10,11
 1106 254 1106 254 1117 254 c 0,12,13
 1134 254 1134 254 1134 276 c 256,14,15
 1134 298 1134 298 1107 312 c 128,-1,16
 1080 326 1080 326 1019 334 c 128,-1,17
 958 342 958 342 851 347 c 0,18,19
 794 350 794 350 746.5 354 c 128,-1,20
 699 358 699 358 684 360 c 0,21,22
 682 362 682 362 682 365 c 2,23,-1
 685 386 l 2,24,25
 687 394 687 394 689 396.5 c 128,-1,26
 691 399 691 399 695.5 400.5 c 128,-1,27
 700 402 700 402 703 407 c 0,28,29
 709 418 709 418 709 427 c 0,30,31
 709 440 709 440 692 447 c 128,-1,32
 675 454 675 454 634 456 c 0,33,34
 577 459 577 459 576 396 c 0,35,36
 576 389 576 389 576 382 c 128,-1,37
 576 375 576 375 575 371.5 c 128,-1,38
 574 368 574 368 572 368 c 0,39,40
 548 368 548 368 531 371 c 0,41,42
 459 382 459 382 407.5 426 c 128,-1,43
 356 470 356 470 337 537 c 0,44,45
 321 595 321 595 271.5 633 c 128,-1,46
 222 671 222 671 145 684 c 0,47,48
 94 693 94 693 67 693 c 0,49,50
 30 693 30 693 30 674 c 0,51,52
 30 667 30 667 35 654 c 0,53,54
 42 639 42 639 51 634.5 c 128,-1,55
 60 630 60 630 86 630 c 0,56,57
 124 630 124 630 147.5 605 c 128,-1,58
 171 580 171 580 196 511 c 0,59,60
 222 441 222 441 263.5 402 c 128,-1,61
 305 363 305 363 377 338 c 0,62,63
 404 329 404 329 438.5 321.5 c 128,-1,64
 473 314 473 314 494 311 c 0,65,66
 530 306 530 306 531 306 c 0,67,68
 547 305 547 305 556 303.5 c 128,-1,69
 565 302 565 302 565 299 c 0,70,71
 565 290 565 290 556 267 c 0,72,73
 553 261 553 261 546.5 246 c 128,-1,74
 540 231 540 231 540 225 c 256,75,76
 540 219 540 219 544.5 216.5 c 128,-1,77
 549 214 549 214 557 212 c 128,-1,78
 565 210 565 210 569 209 c 0,79,80
 593 203 593 203 624 204 c 0,81,0
 639 205 639 205 657 230 c 128,-1,1
1213 -52 m 0,83,84
 1219 -52 1219 -52 1222.5 -46 c 128,-1,85
 1226 -40 1226 -40 1226 -31 c 256,86,87
 1226 -22 1226 -22 1222 -12.5 c 128,-1,88
 1218 -3 1218 -3 1210 3 c 0,89,90
 1106 88 1106 88 980 107 c 0,91,92
 957 111 957 111 904 111 c 0,93,94
 843 111 843 111 739 107 c 0,95,96
 609 104 609 104 500 104 c 0,97,98
 388 104 388 104 355 108 c 0,99,100
 222 125 222 125 186 145 c 0,101,102
 182 148 182 148 177 148 c 0,103,104
 169 148 169 148 164 139.5 c 128,-1,105
 159 131 159 131 160 118 c 0,106,107
 166 81 166 81 216 52.5 c 128,-1,108
 266 24 266 24 352 7 c 0,109,110
 449 -10 449 -10 548 -10 c 0,111,112
 577 -10 577 -10 592 -9 c 0,113,114
 712 -6 712 -6 885 -6 c 0,115,116
 970 -6 970 -6 986 -7 c 0,117,118
 1081 -12 1081 -12 1144 -28 c 0,119,120
 1162 -32 1162 -32 1181 -38.5 c 128,-1,121
 1200 -45 1200 -45 1205 -49 c 0,122,82
 1210 -52 1210 -52 1213 -52 c 0,83,84
EndSplineSet
Fore
SplineSet
352.059570312 698.3203125 m 4,0,1
 437.08740657 618.415258491 437.08740657 618.415258491 628.140136719 591.600097656 c 4,2,3
 661.200195312 586.959960938 661.200195312 586.959960938 681.5 585.727283476 c 132,-1,4
 701.799804688 584.494606014 701.799804688 584.494606014 701.799804688 578.83984375 c 4,5,6
 701.799804688 566.881414122 701.799804688 566.881414122 687.299804688 533.42068753 c 132,-1,7
 672.799804688 499.959960938 672.799804688 499.959960938 672.799804688 493 c 260,8,9
 672.799804688 486.040039062 672.799804688 486.040039062 678.01953125 483.139648438 c 132,-1,10
 683.255412304 480.231805031 683.255412304 480.231805031 708.767842871 473.856136891 c 132,-1,11
 734.280273438 467.48046875 734.280273438 467.48046875 770.240234375 468.639648438 c 4,12,13
 787.639648438 469.799804688 787.639648438 469.799804688 808.51953125 498.799804688 c 132,-1,14
 829.400390625 527.799804688 829.400390625 527.799804688 834.040039062 559.120117188 c 4,15,16
 834.040039062 562.599609375 834.040039062 562.599609375 847.959960938 562.599609375 c 6,17,-1
 894.360351562 561.440429688 l 6,18,19
 917.559570312 560.280273438 917.559570312 560.280273438 1052.69970703 556.220214844 c 132,-1,20
 1187.83984375 552.16015625 1187.83984375 552.16015625 1233.08007812 549.259765625 c 132,-1,21
 1278.3203125 546.360351562 1278.3203125 546.360351562 1303.84033203 536.5 c 132,-1,22
 1329.36035156 526.639648438 1329.36035156 526.639648438 1342.12011719 526.639648438 c 4,23,24
 1361.83984375 526.639648438 1361.83984375 526.639648438 1361.83984375 552.16015625 c 260,25,26
 1361.83984375 577.6796875 1361.83984375 577.6796875 1330.51953125 593.919921875 c 4,27,28
 1273.87919644 623.290030943 1273.87919644 623.290030943 1033.55957031 634.51953125 c 4,29,30
 900.38077603 641.529976747 900.38077603 641.529976747 839.83984375 649.599609375 c 4,31,32
 837.51953125 651.919921875 837.51953125 651.919921875 837.51953125 655.400390625 c 6,33,-1
 841 679.759765625 l 5,34,35
 844.480365167 693.679761493 844.480365167 693.679761493 851.440377896 696.000036997 c 132,-1,36
 858.400390625 698.3203125 858.400390625 698.3203125 863.620117188 707.600097656 c 132,-1,37
 868.83984375 716.879882812 868.83984375 716.879882812 868.83984375 729.640136719 c 4,38,39
 868.83984375 756.715535657 868.83984375 756.715535657 781.83984375 760.959960938 c 4,40,41
 715.719726562 764.440429688 715.719726562 764.440429688 714.559570312 691.360351562 c 5,42,43
 714.559570312 691.360351562 714.559570312 691.360351562 714.559570312 675.120117188 c 132,-1,44
 714.559570312 658.879882812 714.559570312 658.879882812 709.919921875 658.879882812 c 4,45,46
 597.848359921 658.879882812 597.848359921 658.879882812 519.099609375 726.16015625 c 4,47,48
 459.360351562 777.200195312 459.360351562 777.200195312 439.060058594 849.700195312 c 4,49,50
 398.547963302 994.384161852 398.547963302 994.384161852 214.599609375 1025.44042969 c 4,51,52
 155.440429688 1035.87988281 155.440429688 1035.87988281 118.3203125 1035.87988281 c 132,-1,53
 81.2001953125 1035.87988281 81.2001953125 1035.87988281 81.2001953125 1013.83984375 c 4,54,55
 81.2001953125 1005.71972656 81.2001953125 1005.71972656 88.16015625 989.479980469 c 132,-1,56
 95.1201171875 973.240234375 95.1201171875 973.240234375 105.559570312 968.01953125 c 132,-1,57
 116 962.799804688 116 962.799804688 153.120117188 962.799804688 c 132,-1,58
 190.240234375 962.799804688 190.240234375 962.799804688 217.5 933.799804688 c 132,-1,59
 244.759765625 904.799804688 244.759765625 904.799804688 274.33984375 824.1796875 c 132,-1,60
 303.919921875 743.559570312 303.919921875 743.559570312 352.059570312 698.3203125 c 4,0,1
1453.48046875 171.6796875 m 4,61,62
 1468.55957031 171.6796875 1468.55957031 171.6796875 1468.55957031 196.040039062 c 260,63,64
 1468.55957031 221.559326249 1468.55957031 221.559326249 1450 235.48046875 c 4,65,66
 1329.36035156 334.080078125 1329.36035156 334.080078125 1183.20019531 356.120117188 c 4,67,68
 1156.51953125 360.759765625 1156.51953125 360.759765625 1090.39990234 360.759765625 c 132,-1,69
 1024.28027344 360.759765625 1024.28027344 360.759765625 903.639648438 356.120117188 c 4,70,71
 752.83984375 352.639648438 752.83984375 352.639648438 624.66015625 352.639648438 c 132,-1,72
 496.48046875 352.639648438 496.48046875 352.639648438 458.200195312 357.280273438 c 4,73,74
 303.919921875 377 303.919921875 377 262.16015625 400.200195312 c 4,75,76
 257.51953125 403.6796875 257.51953125 403.6796875 249.979980469 403.6796875 c 132,-1,77
 242.440429688 403.6796875 242.440429688 403.6796875 236.639648438 393.8203125 c 132,-1,78
 230.83984375 383.959960938 230.83984375 383.959960938 232 368.879882812 c 4,79,80
 238.959960938 325.959960938 238.959960938 325.959960938 296.959960938 292.900390625 c 132,-1,81
 354.959960938 259.83984375 354.959960938 259.83984375 454.719726562 240.120117188 c 4,82,83
 567.240234375 220.400390625 567.240234375 220.400390625 682.080078125 220.400390625 c 4,84,85
 715.719726562 220.400390625 715.719726562 220.400390625 794.020019531 222.720214844 c 132,-1,86
 872.3203125 225.040039062 872.3203125 225.040039062 1021.95996094 225.040039062 c 132,-1,87
 1171.59960938 225.040039062 1171.59960938 225.040039062 1190.16015625 223.879882812 c 4,88,89
 1331.25786739 216.453950725 1331.25786739 216.453950725 1416.36035156 187.33984375 c 4,90,91
 1438.40039062 179.799804688 1438.40039062 179.799804688 1444.20019531 175.739746094 c 132,-1,92
 1450 171.6796875 1450 171.6796875 1453.48046875 171.6796875 c 4,61,62
EndSplineSet
EndChar

StartChar: X
Encoding: 88 88 4
Width: 1352
VWidth: 1392
GlyphClass: 1
Flags: W
LayerCount: 2
Back
SplineSet
521 201 m 0,1,2
 592 201 592 201 641 216 c 0,3,4
 730 243 730 243 730 281 c 0,5,6
 730 302 730 302 701 329 c 256,7,8
 672 356 672 356 582.5 384.5 c 128,-1,9
 493 413 493 413 389 432 c 128,-1,10
 285 451 285 451 219 451 c 0,11,12
 159 451 159 451 153 434 c 0,13,14
 149 425 149 425 149 416 c 0,15,16
 149 398 149 398 177.5 390.5 c 128,-1,17
 206 383 206 383 281 379 c 0,18,19
 378 374 378 374 428.5 362.5 c 128,-1,20
 479 351 479 351 501 329 c 0,21,22
 521 309 521 309 521 295 c 0,23,24
 521 273 521 273 473 264 c 0,25,26
 448 260 448 260 434 251 c 128,-1,27
 420 242 420 242 420 232 c 0,28,29
 420 220 420 220 442 211 c 0,30,0
 466 201 466 201 521 201 c 0,1,2
1083 -52 m 0,32,33
 1089 -52 1089 -52 1092.5 -46 c 128,-1,34
 1096 -40 1096 -40 1096 -31 c 256,35,36
 1096 -22 1096 -22 1092 -12.5 c 128,-1,37
 1088 -3 1088 -3 1080 3 c 0,38,39
 976 88 976 88 850 107 c 0,40,41
 827 111 827 111 774 111 c 0,42,43
 713 111 713 111 609 107 c 0,44,45
 479 104 479 104 370 104 c 0,46,47
 258 104 258 104 225 108 c 0,48,49
 92 125 92 125 56 145 c 0,50,51
 51 148 51 148 47 148 c 0,52,53
 39 148 39 148 34 139.5 c 128,-1,54
 29 131 29 131 30 118 c 0,55,56
 36 81 36 81 86 52.5 c 128,-1,57
 136 24 136 24 222 7 c 0,58,59
 319 -10 319 -10 418 -10 c 0,60,61
 447 -10 447 -10 462 -9 c 0,62,63
 582 -6 582 -6 755 -6 c 0,64,65
 840 -6 840 -6 856 -7 c 0,66,67
 951 -12 951 -12 1014 -28 c 0,68,69
 1032 -32 1032 -32 1051 -38.5 c 128,-1,70
 1070 -45 1070 -45 1075 -49 c 0,71,31
 1080 -52 1080 -52 1083 -52 c 0,32,33
EndSplineSet
Fore
SplineSet
549.83984375 523.16015625 m 132,-1,1
 533.599609375 512.719726562 533.599609375 512.719726562 533.599609375 499.959960938 c 132,-1,2
 533.599609375 487.200195312 533.599609375 487.200195312 560.279785156 476.180175781 c 132,-1,3
 586.959960938 465.16015625 586.959960938 465.16015625 660.040039062 465.16015625 c 132,-1,4
 733.120117188 465.16015625 733.120117188 465.16015625 789.959960938 482.559570312 c 4,5,6
 893.200195312 513.879882812 893.200195312 513.879882812 893.200195312 557.959960938 c 4,7,8
 893.200195312 582.3203125 893.200195312 582.3203125 859.559570312 613.639648438 c 260,9,10
 825.919921875 644.959960938 825.919921875 644.959960938 722.099609375 678.01953125 c 132,-1,11
 618.280273438 711.080078125 618.280273438 711.080078125 497.639648438 733.120117188 c 132,-1,12
 377 755.16015625 377 755.16015625 303.919921875 755.16015625 c 132,-1,13
 230.83984375 755.16015625 230.83984375 755.16015625 223.879882812 735.440429688 c 4,14,15
 219.240234375 725 219.240234375 725 219.240234375 714.559570312 c 4,16,17
 219.240234375 693.6796875 219.240234375 693.6796875 252.299804688 684.98046875 c 132,-1,18
 285.360351562 676.280273438 285.360351562 676.280273438 385.120117188 671.060058594 c 132,-1,19
 484.879882812 665.83984375 484.879882812 665.83984375 543.459960938 652.5 c 132,-1,20
 602.040039062 639.16015625 602.040039062 639.16015625 626.399902344 614.800292969 c 132,-1,21
 650.759765625 590.440429688 650.759765625 590.440429688 650.759765625 574.200195312 c 4,22,23
 650.759765625 548.6796875 650.759765625 548.6796875 595.080078125 538.240234375 c 4,24,0
 566.080078125 533.599609375 566.080078125 533.599609375 549.83984375 523.16015625 c 132,-1,1
1302.6796875 171.6796875 m 4,25,26
 1317.75976562 171.6796875 1317.75976562 171.6796875 1317.75976562 196.040039062 c 260,27,28
 1317.75976562 221.559326249 1317.75976562 221.559326249 1299.20019531 235.48046875 c 4,29,30
 1178.55957031 334.080078125 1178.55957031 334.080078125 1032.40039062 356.120117188 c 4,31,32
 1005.71972656 360.759765625 1005.71972656 360.759765625 939.600097656 360.759765625 c 132,-1,33
 873.48046875 360.759765625 873.48046875 360.759765625 752.83984375 356.120117188 c 4,34,35
 602.040039062 352.639648438 602.040039062 352.639648438 473.859863281 352.639648438 c 132,-1,36
 345.6796875 352.639648438 345.6796875 352.639648438 307.400390625 357.280273438 c 4,37,38
 153.120117188 377 153.120117188 377 111.360351562 400.200195312 c 4,39,40
 105.559570312 403.6796875 105.559570312 403.6796875 98.599609375 403.6796875 c 132,-1,41
 91.6396484375 403.6796875 91.6396484375 403.6796875 85.83984375 393.8203125 c 132,-1,42
 80.0400390625 383.959960938 80.0400390625 383.959960938 81.2001953125 368.879882812 c 4,43,44
 88.16015625 325.959960938 88.16015625 325.959960938 146.16015625 292.900390625 c 132,-1,45
 204.16015625 259.83984375 204.16015625 259.83984375 303.919921875 240.120117188 c 4,46,47
 416.440429688 220.400390625 416.440429688 220.400390625 531.280273438 220.400390625 c 4,48,49
 564.919921875 220.400390625 564.919921875 220.400390625 643.219726562 222.720214844 c 132,-1,50
 721.51953125 225.040039062 721.51953125 225.040039062 871.159667969 225.040039062 c 132,-1,51
 1020.79980469 225.040039062 1020.79980469 225.040039062 1039.36035156 223.879882812 c 4,52,53
 1180.45713592 216.453933694 1180.45713592 216.453933694 1265.55957031 187.33984375 c 4,54,55
 1287.59960938 179.799804688 1287.59960938 179.799804688 1293.39990234 175.739746094 c 132,-1,56
 1299.20019531 171.6796875 1299.20019531 171.6796875 1302.6796875 171.6796875 c 4,25,26
EndSplineSet
EndChar

StartChar: c
Encoding: 99 99 5
Width: 1352
VWidth: 1392
GlyphClass: 1
Flags: W
LayerCount: 2
Back
SplineSet
314.5 187.5 m 128,-1,1
 325 186 325 186 328.5 185.5 c 128,-1,2
 332 185 332 185 335 186 c 0,3,4
 340 188 340 188 344 196 c 128,-1,5
 348 204 348 204 348 212 c 0,6,7
 348 218 348 218 345 221 c 0,8,9
 340 226 340 226 322 229 c 0,10,11
 272 238 272 238 246.5 257.5 c 128,-1,12
 221 277 221 277 221 302 c 0,13,14
 221 345 221 345 280 367.5 c 128,-1,15
 339 390 339 390 448 390 c 0,16,17
 664 390 664 390 742 306 c 0,18,19
 757 291 757 291 762.5 282.5 c 128,-1,20
 768 274 768 274 766 266 c 0,21,22
 765 242 765 242 720 237 c 0,23,24
 700 235 700 235 691 232.5 c 128,-1,25
 682 230 682 230 678 225 c 0,26,27
 676 221 676 221 676 219 c 0,28,29
 676 214 676 214 687 207 c 0,30,31
 699 199 699 199 759.5 190.5 c 128,-1,32
 820 182 820 182 845 186 c 0,33,34
 884 191 884 191 900.5 195.5 c 128,-1,35
 917 200 917 200 924 210 c 128,-1,36
 931 220 931 220 931 242 c 0,37,38
 931 270 931 270 924 287 c 128,-1,39
 917 304 917 304 898 323 c 0,40,41
 830 391 830 391 638 416 c 0,42,43
 499 435 499 435 419 435 c 0,44,45
 359 435 359 435 301 425 c 128,-1,46
 243 415 243 415 173 392 c 0,47,48
 131 379 131 379 111 364.5 c 128,-1,49
 91 350 91 350 85 330 c 0,50,51
 81 317 81 317 81 301 c 0,52,53
 81 265 81 265 133.5 236 c 128,-1,54
 186 207 186 207 286 192 c 0,55,0
 304 189 304 189 314.5 187.5 c 128,-1,1
1083 -52 m 0,57,58
 1089 -52 1089 -52 1092.5 -46 c 128,-1,59
 1096 -40 1096 -40 1096 -31 c 256,60,61
 1096 -22 1096 -22 1092 -12.5 c 128,-1,62
 1088 -3 1088 -3 1080 3 c 0,63,64
 976 88 976 88 850 107 c 0,65,66
 827 111 827 111 774 111 c 0,67,68
 713 111 713 111 609 107 c 0,69,70
 479 104 479 104 370 104 c 0,71,72
 258 104 258 104 225 108 c 0,73,74
 92 125 92 125 56 145 c 0,75,76
 51 148 51 148 47 148 c 0,77,78
 39 148 39 148 34 139.5 c 128,-1,79
 29 131 29 131 30 118 c 0,80,81
 36 81 36 81 86 52.5 c 128,-1,82
 136 24 136 24 222 7 c 0,83,84
 319 -10 319 -10 418 -10 c 0,85,86
 447 -10 447 -10 462 -9 c 0,87,88
 582 -6 582 -6 755 -6 c 0,89,90
 840 -6 840 -6 856 -7 c 0,91,92
 951 -12 951 -12 1014 -28 c 0,93,94
 1032 -32 1032 -32 1051 -38.5 c 128,-1,95
 1070 -45 1070 -45 1075 -49 c 0,96,56
 1080 -52 1080 -52 1083 -52 c 0,57,58
EndSplineSet
Fore
SplineSet
411.219726562 449.5 m 4,0,1
 423.400390625 447.759765625 423.400390625 447.759765625 427.459960938 447.1796875 c 132,-1,2
 431.51953125 446.599609375 431.51953125 446.599609375 436.159667969 448.33984375 c 132,-1,3
 440.799804688 450.080078125 440.799804688 450.080078125 445.440429688 459.360351562 c 132,-1,4
 450.080078125 468.639648438 450.080078125 468.639648438 450.080078125 476.759765625 c 132,-1,5
 450.080078125 484.879882812 450.080078125 484.879882812 445.439941406 489.520019531 c 132,-1,6
 440.799804688 494.16015625 440.799804688 494.16015625 419.919921875 497.639648438 c 4,7,8
 361.919921875 508.080078125 361.919921875 508.080078125 332.33984375 530.700195312 c 132,-1,9
 302.759765625 553.3203125 302.759765625 553.3203125 302.759765625 582.3203125 c 4,10,11
 302.759765625 632.200195312 302.759765625 632.200195312 371.200195312 658.299804688 c 132,-1,12
 439.639648438 684.400390625 439.639648438 684.400390625 566.080078125 684.400390625 c 4,13,14
 816.639648438 684.400390625 816.639648438 684.400390625 907.120117188 586.959960938 c 4,15,16
 924.51953125 569.559570312 924.51953125 569.559570312 930.900390625 559.700195312 c 132,-1,17
 937.280273438 549.83984375 937.280273438 549.83984375 934.959960938 540.559570312 c 4,18,19
 933.799804688 512.719726562 933.799804688 512.719726562 881.599609375 506.919921875 c 4,20,21
 830.559570312 501.815058564 830.559570312 501.815058564 830.559570312 486.040039062 c 4,22,23
 830.559570312 480.240234375 830.559570312 480.240234375 843.899902344 471.540039062 c 132,-1,24
 857.240234375 462.83984375 857.240234375 462.83984375 927.419921875 452.98046875 c 132,-1,25
 997.599609375 443.120117188 997.599609375 443.120117188 1034.71972656 448.33984375 c 132,-1,26
 1071.83984375 453.559570312 1071.83984375 453.559570312 1090.98046875 458.780273438 c 132,-1,27
 1110.12011719 464 1110.12011719 464 1118.24023438 475.599609375 c 132,-1,28
 1126.36035156 487.200195312 1126.36035156 487.200195312 1126.36035156 516.200195312 c 132,-1,29
 1126.36035156 545.200195312 1126.36035156 545.200195312 1118.24023438 564.919921875 c 132,-1,30
 1110.12011719 584.639648438 1110.12011719 584.639648438 1088.08007812 606.6796875 c 4,31,32
 1009.20019531 685.559570312 1009.20019531 685.559570312 786.48046875 714.559570312 c 4,33,34
 625.240234375 736.599609375 625.240234375 736.599609375 544.040039062 736.599609375 c 132,-1,35
 462.83984375 736.599609375 462.83984375 736.599609375 395.559570312 725 c 132,-1,36
 328.280273438 713.400390625 328.280273438 713.400390625 263.3203125 692.520019531 c 132,-1,37
 198.360351562 671.639648438 198.360351562 671.639648438 175.16015625 654.8203125 c 132,-1,38
 151.959960938 638 151.959960938 638 146.16015625 618.859863281 c 132,-1,39
 140.360351562 599.719726562 140.360351562 599.719726562 140.360351562 581.16015625 c 4,40,41
 140.360351562 539.400390625 140.360351562 539.400390625 201.259765625 505.759765625 c 4,42,43
 265.389717442 470.336199186 265.389717442 470.336199186 411.219726562 449.5 c 4,0,1
1302.6796875 171.6796875 m 4,44,45
 1317.75976562 171.6796875 1317.75976562 171.6796875 1317.75976562 196.040039062 c 260,46,47
 1317.75976562 221.559326249 1317.75976562 221.559326249 1299.20019531 235.48046875 c 4,48,49
 1178.55957031 334.080078125 1178.55957031 334.080078125 1032.40039062 356.120117188 c 4,50,51
 1005.71972656 360.759765625 1005.71972656 360.759765625 939.600097656 360.759765625 c 132,-1,52
 873.48046875 360.759765625 873.48046875 360.759765625 752.83984375 356.120117188 c 4,53,54
 602.040039062 352.639648438 602.040039062 352.639648438 473.859863281 352.639648438 c 132,-1,55
 345.6796875 352.639648438 345.6796875 352.639648438 307.400390625 357.280273438 c 4,56,57
 153.120117188 377 153.120117188 377 111.360351562 400.200195312 c 4,58,59
 105.559570312 403.6796875 105.559570312 403.6796875 98.599609375 403.6796875 c 132,-1,60
 91.6396484375 403.6796875 91.6396484375 403.6796875 85.83984375 393.8203125 c 132,-1,61
 80.0400390625 383.959960938 80.0400390625 383.959960938 81.2001953125 368.879882812 c 4,62,63
 88.16015625 325.959960938 88.16015625 325.959960938 146.16015625 292.900390625 c 132,-1,64
 204.16015625 259.83984375 204.16015625 259.83984375 303.919921875 240.120117188 c 4,65,66
 416.440429688 220.400390625 416.440429688 220.400390625 531.280273438 220.400390625 c 4,67,68
 564.919921875 220.400390625 564.919921875 220.400390625 643.219726562 222.720214844 c 132,-1,69
 721.51953125 225.040039062 721.51953125 225.040039062 871.159667969 225.040039062 c 132,-1,70
 1020.79980469 225.040039062 1020.79980469 225.040039062 1039.36035156 223.879882812 c 4,71,72
 1180.45713592 216.453933694 1180.45713592 216.453933694 1265.55957031 187.33984375 c 4,73,74
 1287.59960938 179.799804688 1287.59960938 179.799804688 1293.39990234 175.739746094 c 132,-1,75
 1299.20019531 171.6796875 1299.20019531 171.6796875 1302.6796875 171.6796875 c 4,44,45
EndSplineSet
EndChar

StartChar: i
Encoding: 105 105 6
Width: 1538
VWidth: 1392
GlyphClass: 1
Flags: W
LayerCount: 2
Back
SplineSet
306 172 m 0,1,2
 325 172 325 172 323 184 c 0,3,4
 322 194 322 194 282.5 216 c 128,-1,5
 243 238 243 238 205 249 c 2,6,-1
 162 262 l 1,7,-1
 196 269 l 2,8,9
 256 282 256 282 312 324 c 128,-1,10
 368 366 368 366 386 412 c 0,11,12
 390 423 390 423 395 461 c 128,-1,13
 400 499 400 499 402 541 c 0,14,15
 406 615 406 615 416.5 649 c 128,-1,16
 427 683 427 683 450 696 c 0,17,18
 462 704 462 704 462 725 c 0,19,20
 462 739 462 739 456.5 752.5 c 128,-1,21
 451 766 451 766 441 773 c 0,22,23
 423 787 423 787 402 787 c 0,24,25
 383 787 383 787 358 774 c 0,26,27
 326 757 326 757 307 709.5 c 128,-1,28
 288 662 288 662 281 573 c 0,29,30
 272 469 272 469 247.5 417.5 c 128,-1,31
 223 366 223 366 168 334 c 0,32,33
 146 321 146 321 119 310.5 c 128,-1,34
 92 300 92 300 74 297 c 2,35,-1
 30 290 l 1,36,-1
 215 201 l 2,37,0
 278 172 278 172 306 172 c 0,1,2
622 172 m 0,39,40
 649 172 649 172 657 176 c 0,41,42
 668 180 668 180 668 189 c 0,43,44
 668 199 668 199 656 203 c 0,45,46
 645 207 645 207 637 223 c 128,-1,47
 629 239 629 239 613 293 c 0,48,49
 602 330 602 330 592 348 c 128,-1,50
 582 366 582 366 567 374 c 128,-1,51
 552 382 552 382 525 386 c 0,52,53
 506 389 506 389 488 389 c 0,54,55
 467 389 467 389 452.5 385 c 128,-1,56
 438 381 438 381 435 374 c 2,57,-1
 435 372 l 2,58,59
 435 369 435 369 439 365 c 128,-1,60
 443 361 443 361 450 359 c 0,61,62
 463 354 463 354 471 338 c 128,-1,63
 479 322 479 322 496 266 c 0,64,65
 508 226 508 226 522.5 206 c 128,-1,66
 537 186 537 186 561 179 c 0,67,38
 582 172 582 172 622 172 c 0,39,40
822 172 m 0,69,70
 849 172 849 172 857 176 c 0,71,72
 868 180 868 180 868 189 c 0,73,74
 868 199 868 199 856 203 c 0,75,76
 845 207 845 207 837 223 c 128,-1,77
 829 239 829 239 813 293 c 0,78,79
 802 330 802 330 792 348 c 128,-1,80
 782 366 782 366 767 374 c 128,-1,81
 752 382 752 382 725 386 c 0,82,83
 706 389 706 389 688 389 c 0,84,85
 667 389 667 389 652.5 385 c 128,-1,86
 638 381 638 381 635 374 c 2,87,-1
 635 372 l 2,88,89
 635 369 635 369 639 365 c 128,-1,90
 643 361 643 361 650 359 c 0,91,92
 663 354 663 354 671 338 c 128,-1,93
 679 322 679 322 696 266 c 0,94,95
 708 226 708 226 722.5 206 c 128,-1,96
 737 186 737 186 761 179 c 0,97,68
 782 172 782 172 822 172 c 0,69,70
1244 -52 m 0,99,100
 1250 -52 1250 -52 1253 -46.5 c 128,-1,101
 1256 -41 1256 -41 1256 -32 c 0,102,103
 1256 -9 1256 -9 1241 3 c 0,104,105
 1141 88 1141 88 1011 107 c 0,106,107
 987 110 987 110 886 110 c 0,108,109
 770 110 770 110 640 107 c 0,110,111
 509 104 509 104 401 104 c 0,112,113
 289 104 289 104 256 108 c 0,114,115
 120 125 120 125 87 145 c 0,116,117
 83 148 83 148 77 148 c 0,118,119
 68 148 68 148 63.5 139.5 c 128,-1,120
 59 131 59 131 61 118 c 0,121,122
 68 80 68 80 118 51 c 128,-1,123
 168 22 168 22 253 7 c 0,124,125
 348 -9 348 -9 456 -9 c 2,126,-1
 493 -9 l 2,127,128
 613 -6 613 -6 880 -6 c 0,129,130
 1001 -6 1001 -6 1017 -7 c 0,131,132
 1119 -14 1119 -14 1175 -28 c 0,133,134
 1193 -32 1193 -32 1212 -38.5 c 128,-1,135
 1231 -45 1231 -45 1236 -49 c 0,136,98
 1241 -52 1241 -52 1244 -52 c 0,99,100
EndSplineSet
Fore
SplineSet
295.799804688 465.16015625 m 5,0,1
 368.879882812 431.51953125 368.879882812 431.51953125 396.140136719 431.51953125 c 132,-1,2
 423.400390625 431.51953125 423.400390625 431.51953125 421.080078125 445.440429688 c 4,3,4
 419.919921875 457.040039062 419.919921875 457.040039062 374.099609375 482.559570312 c 132,-1,5
 328.280273438 508.080078125 328.280273438 508.080078125 284.200195312 520.83984375 c 6,6,-1
 234.3203125 535.919921875 l 5,7,-1
 273.759765625 544.040039062 l 6,8,9
 343.360351562 559.120117188 343.360351562 559.120117188 408.3203125 607.83984375 c 132,-1,10
 473.280273438 656.559570312 473.280273438 656.559570312 494.16015625 709.919921875 c 4,11,12
 498.799804688 722.6796875 498.799804688 722.6796875 504.599609375 766.759765625 c 132,-1,13
 510.400390625 810.83984375 510.400390625 810.83984375 513.880371094 878.120117188 c 132,-1,14
 517.360351562 945.400390625 517.360351562 945.400390625 529.540039062 984.83984375 c 132,-1,15
 541.719726562 1024.28027344 541.719726562 1024.28027344 568.400390625 1039.36035156 c 4,16,17
 582.3203125 1048.63964844 582.3203125 1048.63964844 582.3203125 1068.93994141 c 4,18,19
 582.3203125 1111.62662105 582.3203125 1111.62662105 557.959960938 1128.6796875 c 4,20,21
 537.080078125 1144.91992188 537.080078125 1144.91992188 513.879882812 1144.91992188 c 132,-1,22
 490.6796875 1144.91992188 490.6796875 1144.91992188 457.619628906 1127.52001953 c 4,23,24
 387.61881222 1090.67775651 387.61881222 1090.67775651 372.360351562 896.6796875 c 4,25,26
 361.919921875 776.040039062 361.919921875 776.040039062 333.5 716.299804688 c 4,27,28
 294.887713844 635.134661629 294.887713844 635.134661629 184.440429688 592.1796875 c 4,29,30
 153.120117188 580 153.120117188 580 132.240234375 576.51953125 c 6,31,-1
 81.2001953125 568.400390625 l 5,32,-1
 295.799804688 465.16015625 l 5,0,1
551 665.83984375 m 5,33,-1
 551 663.51953125 l 6,34,35
 551 660.040039062 551 660.040039062 555.639648438 655.400390625 c 132,-1,36
 560.280273438 650.759765625 560.280273438 650.759765625 571.880371094 646.699707031 c 132,-1,37
 583.48046875 642.639648438 583.48046875 642.639648438 592.759765625 624.080078125 c 132,-1,38
 602.040039062 605.51953125 602.040039062 605.51953125 618.859863281 549.83984375 c 132,-1,39
 635.6796875 494.16015625 635.6796875 494.16015625 652.5 470.959960938 c 132,-1,40
 669.3203125 447.759765625 669.3203125 447.759765625 695.419921875 439.639648438 c 132,-1,41
 721.51953125 431.51953125 721.51953125 431.51953125 771.399902344 431.51953125 c 132,-1,42
 821.280273438 431.51953125 821.280273438 431.51953125 821.280273438 451.240234375 c 4,43,44
 821.280273438 462.83984375 821.280273438 462.83984375 807.939941406 467.479980469 c 132,-1,45
 794.599609375 472.120117188 794.599609375 472.120117188 785.3203125 490.6796875 c 132,-1,46
 776.040039062 509.240234375 776.040039062 509.240234375 760.379882812 562.020019531 c 132,-1,47
 744.719726562 614.799804688 744.719726562 614.799804688 733.120117188 635.6796875 c 132,-1,48
 721.51953125 656.559570312 721.51953125 656.559570312 704.120117188 665.83984375 c 4,49,50
 671.494613646 683.240234375 671.494613646 683.240234375 614.976410382 683.240234375 c 132,-1,51
 558.458207118 683.240234375 558.458207118 683.240234375 551 665.83984375 c 5,33,-1
783 665.83984375 m 5,52,-1
 783 663.51953125 l 6,53,54
 783 660.040039062 783 660.040039062 787.639648438 655.400390625 c 132,-1,55
 792.280273438 650.759765625 792.280273438 650.759765625 803.880371094 646.699707031 c 132,-1,56
 815.48046875 642.639648438 815.48046875 642.639648438 824.759765625 624.080078125 c 132,-1,57
 834.040039062 605.51953125 834.040039062 605.51953125 850.859863281 549.83984375 c 132,-1,58
 867.6796875 494.16015625 867.6796875 494.16015625 884.5 470.959960938 c 132,-1,59
 901.3203125 447.759765625 901.3203125 447.759765625 927.419921875 439.639648438 c 132,-1,60
 953.51953125 431.51953125 953.51953125 431.51953125 1003.39990234 431.51953125 c 132,-1,61
 1053.28027344 431.51953125 1053.28027344 431.51953125 1053.28027344 451.240234375 c 4,62,63
 1053.28027344 462.83984375 1053.28027344 462.83984375 1039.93994141 467.479980469 c 132,-1,64
 1026.59960938 472.120117188 1026.59960938 472.120117188 1017.3203125 490.6796875 c 132,-1,65
 1008.04003906 509.240234375 1008.04003906 509.240234375 992.379882812 562.020019531 c 132,-1,66
 976.719726562 614.799804688 976.719726562 614.799804688 965.120117188 635.6796875 c 132,-1,67
 953.51953125 656.559570312 953.51953125 656.559570312 936.120117188 665.83984375 c 4,68,69
 903.494613646 683.240234375 903.494613646 683.240234375 846.976410382 683.240234375 c 132,-1,70
 790.458207118 683.240234375 790.458207118 683.240234375 783 665.83984375 c 5,52,-1
1219.16015625 356.120117188 m 4,71,72
 1191.3203125 359.599609375 1191.3203125 359.599609375 1132.74023438 359.599609375 c 132,-1,73
 1074.16015625 359.599609375 1074.16015625 359.599609375 511.559570312 352.639648438 c 5,74,75
 381.639648438 352.639648438 381.639648438 352.639648438 343.360351562 357.280273438 c 4,76,77
 185.599609375 377 185.599609375 377 147.3203125 400.200195312 c 4,78,79
 142.6796875 403.6796875 142.6796875 403.6796875 133.979980469 403.6796875 c 132,-1,80
 125.280273438 403.6796875 125.280273438 403.6796875 120.059570312 393.8203125 c 132,-1,81
 114.83984375 383.959960938 114.83984375 383.959960938 117.16015625 368.879882812 c 4,82,83
 125.280273438 324.799804688 125.280273438 324.799804688 183.280273438 291.16015625 c 132,-1,84
 241.280273438 257.51953125 241.280273438 257.51953125 345.680175781 239.539550781 c 132,-1,85
 450.080078125 221.559570312 450.080078125 221.559570312 575.360351562 221.559570312 c 6,86,-1
 618.280273438 221.559570312 l 5,87,88
 757.48046875 225.040039062 757.48046875 225.040039062 982.520019531 225.040039062 c 132,-1,89
 1207.55957031 225.040039062 1207.55957031 225.040039062 1226.12011719 223.879882812 c 4,90,91
 1375.47208258 213.630117278 1375.47208258 213.630117278 1452.3203125 187.33984375 c 4,92,93
 1474.36035156 179.799804688 1474.36035156 179.799804688 1480.16015625 175.739746094 c 132,-1,94
 1485.95996094 171.6796875 1485.95996094 171.6796875 1489.44042969 171.6796875 c 4,95,96
 1503.36035156 171.6796875 1503.36035156 171.6796875 1503.36035156 196.619628906 c 132,-1,97
 1503.36035156 221.559570312 1503.36035156 221.559570312 1485.95996094 235.48046875 c 4,98,99
 1369.95996094 334.080078125 1369.95996094 334.080078125 1219.16015625 356.120117188 c 4,71,72
EndSplineSet
EndChar

StartChar: s
Encoding: 115 115 7
Width: 46
VWidth: 1392
GlyphClass: 1
Flags: W
LayerCount: 2
Back
SplineSet
-598 469 m 0,1,2
 -553 469 -553 469 -537 472 c 128,-1,3
 -521 475 -521 475 -510 486 c 0,4,5
 -494 502 -494 502 -494 529 c 0,6,7
 -494 542 -494 542 -499 559 c 0,8,9
 -506 578 -506 578 -536 588 c 128,-1,10
 -566 598 -566 598 -615 598 c 0,11,12
 -684 598 -684 598 -684 577 c 0,13,14
 -684 566 -684 566 -664 549 c 0,15,16
 -650 538 -650 538 -650 530 c 0,17,18
 -650 524 -650 524 -664 524 c 0,19,20
 -683 524 -683 524 -722 535 c 128,-1,21
 -761 546 -761 546 -810 566 c 0,22,23
 -830 575 -830 575 -847 581 c 128,-1,24
 -864 587 -864 587 -871 587 c 0,25,26
 -882 587 -882 587 -882 576 c 0,27,28
 -882 570 -882 570 -879 559 c 0,29,30
 -872 531 -872 531 -828 509 c 128,-1,31
 -784 487 -784 487 -709 477 c 0,32,0
 -650 469 -650 469 -598 469 c 0,1,2
EndSplineSet
Fore
SplineSet
-914.080078125 822.440429688 m 0,0,1
 -863.040039062 796.919921875 -863.040039062 796.919921875 -785.319824219 786.479980469 c 128,-1,2
 -707.599609375 776.040039062 -707.599609375 776.040039062 -651.33984375 776.040039062 c 128,-1,3
 -595.080078125 776.040039062 -595.080078125 776.040039062 -576.51953125 779.51953125 c 128,-1,4
 -557.959960938 783 -557.959960938 783 -542.299804688 798.66015625 c 128,-1,5
 -526.639648438 814.3203125 -526.639648438 814.3203125 -526.639648438 837.520019531 c 128,-1,6
 -526.639648438 860.719726562 -526.639648438 860.719726562 -532.440429688 880.440429688 c 0,7,8
 -549.105731183 925.6796875 -549.105731183 925.6796875 -667 925.6796875 c 0,9,10
 -747.040039062 925.6796875 -747.040039062 925.6796875 -747.040039062 901.3203125 c 0,11,12
 -747.040039062 888.559570312 -747.040039062 888.559570312 -727.319824219 872.319824219 c 128,-1,13
 -707.599609375 856.080078125 -707.599609375 856.080078125 -707.599609375 846.799804688 c 0,14,15
 -707.599609375 839.83984375 -707.599609375 839.83984375 -726.739746094 839.83984375 c 0,16,17
 -773.833173725 839.83984375 -773.833173725 839.83984375 -893.200195312 888.559570312 c 0,18,19
 -947.332537663 912.919921875 -947.332537663 912.919921875 -962.026132113 912.919921875 c 128,-1,20
 -976.719726562 912.919921875 -976.719726562 912.919921875 -976.719726562 900.16015625 c 0,21,22
 -976.719726562 853.759654656 -976.719726562 853.759654656 -914.080078125 822.440429688 c 0,0,1
EndSplineSet
EndChar

StartChar: u
Encoding: 117 117 8
Width: 1533
VWidth: 1392
GlyphClass: 1
Flags: W
LayerCount: 2
Back
SplineSet
1096 172 m 0,1,2
 1115 172 1115 172 1113 184 c 0,3,4
 1112 194 1112 194 1072.5 216 c 128,-1,5
 1033 238 1033 238 995 249 c 2,6,-1
 952 262 l 1,7,-1
 986 269 l 2,8,9
 1046 282 1046 282 1102 324 c 128,-1,10
 1158 366 1158 366 1176 412 c 0,11,12
 1180 423 1180 423 1185 461 c 128,-1,13
 1190 499 1190 499 1192 541 c 0,14,15
 1196 615 1196 615 1206.5 649 c 128,-1,16
 1217 683 1217 683 1240 696 c 0,17,18
 1252 704 1252 704 1252 725 c 0,19,20
 1252 739 1252 739 1246.5 752.5 c 128,-1,21
 1241 766 1241 766 1231 773 c 0,22,23
 1213 787 1213 787 1192 787 c 0,24,25
 1173 787 1173 787 1148 774 c 0,26,27
 1116 757 1116 757 1097 709.5 c 128,-1,28
 1078 662 1078 662 1071 573 c 0,29,30
 1062 469 1062 469 1037.5 417.5 c 128,-1,31
 1013 366 1013 366 958 334 c 0,32,33
 936 321 936 321 909 310.5 c 128,-1,34
 882 300 882 300 864 297 c 2,35,-1
 820 290 l 1,36,-1
 1005 201 l 2,37,0
 1068 172 1068 172 1096 172 c 0,1,2
562 172 m 0,39,40
 589 172 589 172 597 176 c 0,41,42
 608 180 608 180 608 189 c 0,43,44
 608 199 608 199 596 203 c 0,45,46
 585 207 585 207 577 223 c 128,-1,47
 569 239 569 239 553 293 c 0,48,49
 542 330 542 330 532 348 c 128,-1,50
 522 366 522 366 507 374 c 128,-1,51
 492 382 492 382 465 386 c 0,52,53
 446 389 446 389 428 389 c 0,54,55
 407 389 407 389 392.5 385 c 128,-1,56
 378 381 378 381 375 374 c 2,57,-1
 375 372 l 2,58,59
 375 369 375 369 379 365 c 128,-1,60
 383 361 383 361 390 359 c 0,61,62
 403 354 403 354 411 338 c 128,-1,63
 419 322 419 322 436 266 c 0,64,65
 448 226 448 226 462.5 206 c 128,-1,66
 477 186 477 186 501 179 c 0,67,38
 522 172 522 172 562 172 c 0,39,40
762 172 m 0,69,70
 789 172 789 172 797 176 c 0,71,72
 808 180 808 180 808 189 c 0,73,74
 808 199 808 199 796 203 c 0,75,76
 785 207 785 207 777 223 c 128,-1,77
 769 239 769 239 753 293 c 0,78,79
 742 330 742 330 732 348 c 128,-1,80
 722 366 722 366 707 374 c 128,-1,81
 692 382 692 382 665 386 c 0,82,83
 646 389 646 389 628 389 c 0,84,85
 607 389 607 389 592.5 385 c 128,-1,86
 578 381 578 381 575 374 c 2,87,-1
 575 372 l 2,88,89
 575 369 575 369 579 365 c 128,-1,90
 583 361 583 361 590 359 c 0,91,92
 603 354 603 354 611 338 c 128,-1,93
 619 322 619 322 636 266 c 0,94,95
 648 226 648 226 662.5 206 c 128,-1,96
 677 186 677 186 701 179 c 0,97,68
 722 172 722 172 762 172 c 0,69,70
1214 -52 m 0,99,100
 1220 -52 1220 -52 1223 -46.5 c 128,-1,101
 1226 -41 1226 -41 1226 -32 c 0,102,103
 1226 -9 1226 -9 1211 3 c 0,104,105
 1111 88 1111 88 981 107 c 0,106,107
 957 110 957 110 856 110 c 0,108,109
 740 110 740 110 610 107 c 0,110,111
 479 104 479 104 371 104 c 0,112,113
 259 104 259 104 226 108 c 0,114,115
 90 125 90 125 57 145 c 0,116,117
 53 148 53 148 47 148 c 0,118,119
 38 148 38 148 33.5 139.5 c 128,-1,120
 29 131 29 131 31 118 c 0,121,122
 38 80 38 80 88 51 c 128,-1,123
 138 22 138 22 223 7 c 0,124,125
 318 -9 318 -9 426 -9 c 2,126,-1
 463 -9 l 2,127,128
 583 -6 583 -6 850 -6 c 0,129,130
 971 -6 971 -6 987 -7 c 0,131,132
 1089 -14 1089 -14 1145 -28 c 0,133,134
 1163 -32 1163 -32 1182 -38.5 c 128,-1,135
 1201 -45 1201 -45 1206 -49 c 0,136,98
 1211 -52 1211 -52 1214 -52 c 0,99,100
EndSplineSet
Fore
SplineSet
1212.20019531 465.16015625 m 5,0,1
 1285.28027344 431.51953125 1285.28027344 431.51953125 1312.54003906 431.51953125 c 132,-1,2
 1339.79980469 431.51953125 1339.79980469 431.51953125 1337.48046875 445.440429688 c 4,3,4
 1336.3203125 457.040039062 1336.3203125 457.040039062 1290.5 482.559570312 c 132,-1,5
 1244.6796875 508.080078125 1244.6796875 508.080078125 1200.59960938 520.83984375 c 6,6,-1
 1150.71972656 535.919921875 l 5,7,-1
 1190.16015625 544.040039062 l 6,8,9
 1259.75976562 559.120117188 1259.75976562 559.120117188 1324.71972656 607.83984375 c 132,-1,10
 1389.6796875 656.559570312 1389.6796875 656.559570312 1410.55957031 709.919921875 c 4,11,12
 1415.20019531 722.6796875 1415.20019531 722.6796875 1421 766.759765625 c 132,-1,13
 1426.79980469 810.83984375 1426.79980469 810.83984375 1430.27978516 878.120117188 c 132,-1,14
 1433.75976562 945.400390625 1433.75976562 945.400390625 1445.94042969 984.83984375 c 132,-1,15
 1458.12011719 1024.28027344 1458.12011719 1024.28027344 1484.79980469 1039.36035156 c 4,16,17
 1498.71972656 1048.63964844 1498.71972656 1048.63964844 1498.71972656 1068.93994141 c 4,18,19
 1498.71972656 1111.62730468 1498.71972656 1111.62730468 1474.36035156 1128.6796875 c 4,20,21
 1453.48046875 1144.91992188 1453.48046875 1144.91992188 1430.28027344 1144.91992188 c 132,-1,22
 1407.08007812 1144.91992188 1407.08007812 1144.91992188 1374.02001953 1127.52001953 c 4,23,24
 1304.01818411 1090.67722033 1304.01818411 1090.67722033 1288.75976562 896.6796875 c 4,25,26
 1278.3203125 776.040039062 1278.3203125 776.040039062 1249.90039062 716.299804688 c 4,27,28
 1211.28754437 635.133484263 1211.28754437 635.133484263 1100.83984375 592.1796875 c 4,29,30
 1069.51953125 580 1069.51953125 580 1048.63964844 576.51953125 c 6,31,-1
 997.599609375 568.400390625 l 5,32,-1
 1212.20019531 465.16015625 l 5,0,1
481.400390625 665.83984375 m 5,33,-1
 481.400390625 663.51953125 l 6,34,35
 481.400390625 660.040039062 481.400390625 660.040039062 486.040039062 655.400390625 c 132,-1,36
 490.6796875 650.759765625 490.6796875 650.759765625 502.279785156 646.699707031 c 132,-1,37
 513.879882812 642.639648438 513.879882812 642.639648438 523.16015625 624.080078125 c 132,-1,38
 532.440429688 605.51953125 532.440429688 605.51953125 549.260253906 549.83984375 c 132,-1,39
 566.080078125 494.16015625 566.080078125 494.16015625 582.900390625 470.959960938 c 132,-1,40
 599.719726562 447.759765625 599.719726562 447.759765625 625.819824219 439.639648438 c 132,-1,41
 651.919921875 431.51953125 651.919921875 431.51953125 701.799804688 431.51953125 c 132,-1,42
 751.6796875 431.51953125 751.6796875 431.51953125 751.6796875 451.240234375 c 4,43,44
 751.6796875 462.83984375 751.6796875 462.83984375 738.33984375 467.479980469 c 132,-1,45
 725 472.120117188 725 472.120117188 715.719726562 490.6796875 c 132,-1,46
 706.440429688 509.240234375 706.440429688 509.240234375 690.780273438 562.020019531 c 132,-1,47
 675.120117188 614.799804688 675.120117188 614.799804688 663.51953125 635.6796875 c 132,-1,48
 651.919921875 656.559570312 651.919921875 656.559570312 634.51953125 665.83984375 c 4,49,50
 601.89585875 683.240234375 601.89585875 683.240234375 545.376181921 683.240234375 c 132,-1,51
 488.856505092 683.240234375 488.856505092 683.240234375 481.400390625 665.83984375 c 5,33,-1
713.400390625 665.83984375 m 5,52,-1
 713.400390625 663.51953125 l 6,53,54
 713.400390625 660.040039062 713.400390625 660.040039062 718.040039062 655.400390625 c 132,-1,55
 722.6796875 650.759765625 722.6796875 650.759765625 734.279785156 646.699707031 c 132,-1,56
 745.879882812 642.639648438 745.879882812 642.639648438 755.16015625 624.080078125 c 132,-1,57
 764.440429688 605.51953125 764.440429688 605.51953125 781.260253906 549.83984375 c 132,-1,58
 798.080078125 494.16015625 798.080078125 494.16015625 814.900390625 470.959960938 c 132,-1,59
 831.719726562 447.759765625 831.719726562 447.759765625 857.819824219 439.639648438 c 132,-1,60
 883.919921875 431.51953125 883.919921875 431.51953125 933.799804688 431.51953125 c 132,-1,61
 983.6796875 431.51953125 983.6796875 431.51953125 983.6796875 451.240234375 c 4,62,63
 983.6796875 462.83984375 983.6796875 462.83984375 970.33984375 467.479980469 c 132,-1,64
 957 472.120117188 957 472.120117188 947.719726562 490.6796875 c 132,-1,65
 938.440429688 509.240234375 938.440429688 509.240234375 922.780273438 562.020019531 c 132,-1,66
 907.120117188 614.799804688 907.120117188 614.799804688 895.51953125 635.6796875 c 132,-1,67
 883.919921875 656.559570312 883.919921875 656.559570312 866.51953125 665.83984375 c 4,68,69
 833.89585875 683.240234375 833.89585875 683.240234375 777.376181921 683.240234375 c 132,-1,70
 720.856505092 683.240234375 720.856505092 683.240234375 713.400390625 665.83984375 c 5,52,-1
1184.36035156 356.120117188 m 4,71,72
 1156.51953125 359.599609375 1156.51953125 359.599609375 1097.93994141 359.599609375 c 132,-1,73
 1039.36035156 359.599609375 1039.36035156 359.599609375 476.759765625 352.639648438 c 5,74,75
 346.83984375 352.639648438 346.83984375 352.639648438 308.559570312 357.280273438 c 4,76,77
 150.799804688 377 150.799804688 377 112.51953125 400.200195312 c 4,78,79
 107.879882812 403.6796875 107.879882812 403.6796875 99.1801757812 403.6796875 c 132,-1,80
 90.48046875 403.6796875 90.48046875 403.6796875 85.259765625 393.8203125 c 132,-1,81
 80.0400390625 383.959960938 80.0400390625 383.959960938 82.3603515625 368.879882812 c 4,82,83
 90.48046875 324.799804688 90.48046875 324.799804688 148.48046875 291.16015625 c 132,-1,84
 206.48046875 257.51953125 206.48046875 257.51953125 310.880371094 239.539550781 c 132,-1,85
 415.280273438 221.559570312 415.280273438 221.559570312 540.559570312 221.559570312 c 6,86,-1
 583.48046875 221.559570312 l 5,87,88
 722.6796875 225.040039062 722.6796875 225.040039062 947.719726562 225.040039062 c 132,-1,89
 1172.75976562 225.040039062 1172.75976562 225.040039062 1191.3203125 223.879882812 c 4,90,91
 1340.67562507 213.629802967 1340.67562507 213.629802967 1417.51953125 187.33984375 c 4,92,93
 1439.55957031 179.799804688 1439.55957031 179.799804688 1445.35986328 175.739746094 c 132,-1,94
 1451.16015625 171.6796875 1451.16015625 171.6796875 1454.63964844 171.6796875 c 4,95,96
 1468.55957031 171.6796875 1468.55957031 171.6796875 1468.55957031 196.619628906 c 132,-1,97
 1468.55957031 221.559570312 1468.55957031 221.559570312 1451.16015625 235.48046875 c 4,98,99
 1335.16015625 334.080078125 1335.16015625 334.080078125 1184.36035156 356.120117188 c 4,71,72
EndSplineSet
EndChar

StartChar: v
Encoding: 118 118 9
Width: 1352
VWidth: 1392
GlyphClass: 1
Flags: W
LayerCount: 2
Back
SplineSet
469 193 m 128,-1,1
 499 191 499 191 529 191 c 256,2,3
 559 191 559 191 573.5 195.5 c 128,-1,4
 588 200 588 200 599 211 c 0,5,6
 609 221 609 221 612.5 230 c 128,-1,7
 616 239 616 239 616 258 c 256,8,9
 616 277 616 277 613 316 c 1,10,11
 613 310 613 310 609 354 c 2,12,-1
 607 379 l 2,13,14
 607 391 607 391 613.5 395.5 c 128,-1,15
 620 400 620 400 638 400 c 0,16,17
 654 400 654 400 660.5 402.5 c 128,-1,18
 667 405 667 405 667 412 c 0,19,20
 667 422 667 422 661.5 427 c 128,-1,21
 656 432 656 432 639 434 c 128,-1,22
 622 436 622 436 584 438 c 0,23,24
 570 439 570 439 546 439 c 0,25,26
 506 439 506 439 492.5 429 c 128,-1,27
 479 419 479 419 479 386 c 0,28,29
 479 368 479 368 482 341 c 0,30,31
 484 307 484 307 484 298 c 0,32,33
 484 263 484 263 473 251.5 c 128,-1,34
 462 240 462 240 431 240 c 0,35,36
 411 240 411 240 404.5 236.5 c 128,-1,37
 398 233 398 233 400 223 c 0,38,39
 402 216 402 216 410 209 c 128,-1,40
 418 202 418 202 428 199 c 0,41,0
 439 195 439 195 469 193 c 128,-1,1
1083 -52 m 0,43,44
 1089 -52 1089 -52 1092.5 -46 c 128,-1,45
 1096 -40 1096 -40 1096 -31 c 256,46,47
 1096 -22 1096 -22 1092 -12.5 c 128,-1,48
 1088 -3 1088 -3 1080 3 c 0,49,50
 976 88 976 88 850 107 c 0,51,52
 827 111 827 111 774 111 c 0,53,54
 713 111 713 111 609 107 c 0,55,56
 479 104 479 104 370 104 c 0,57,58
 258 104 258 104 225 108 c 0,59,60
 92 125 92 125 56 145 c 0,61,62
 51 148 51 148 47 148 c 0,63,64
 39 148 39 148 34 139.5 c 128,-1,65
 29 131 29 131 30 118 c 0,66,67
 36 81 36 81 86 52.5 c 128,-1,68
 136 24 136 24 222 7 c 0,69,70
 319 -10 319 -10 418 -10 c 0,71,72
 447 -10 447 -10 462 -9 c 0,73,74
 582 -6 582 -6 755 -6 c 0,75,76
 840 -6 840 -6 856 -7 c 0,77,78
 951 -12 951 -12 1014 -28 c 0,79,80
 1032 -32 1032 -32 1051 -38.5 c 128,-1,81
 1070 -45 1070 -45 1075 -49 c 0,82,42
 1080 -52 1080 -52 1083 -52 c 0,43,44
EndSplineSet
Fore
SplineSet
602.040039062 679.759765625 m 5,0,1
 602.040039062 679.759765625 602.040039062 679.759765625 607.83984375 577.6796875 c 5,2,3
 607.83984375 537.080078125 607.83984375 537.080078125 595.080078125 523.740234375 c 132,-1,4
 582.3203125 510.400390625 582.3203125 510.400390625 552.740234375 510.400390625 c 132,-1,5
 523.16015625 510.400390625 523.16015625 510.400390625 515.620117188 506.33984375 c 132,-1,6
 508.080078125 502.280273438 508.080078125 502.280273438 510.399902344 492.419921875 c 4,7,8
 515.420742631 471.078972863 515.420742631 471.078972863 542.879882812 462.83984375 c 4,9,10
 568.402099764 453.559570312 568.402099764 453.559570312 660.040039062 453.559570312 c 260,11,12
 694.83984375 453.559570312 694.83984375 453.559570312 711.66015625 458.780273438 c 132,-1,13
 728.48046875 464 728.48046875 464 740.66015625 476.180175781 c 132,-1,14
 752.83984375 488.360351562 752.83984375 488.360351562 756.900390625 498.799804688 c 132,-1,15
 760.959960938 509.240234375 760.959960938 509.240234375 760.959960938 531.280273438 c 260,16,17
 760.959960938 553.3203125 760.959960938 553.3203125 759.220214844 572.459960938 c 132,-1,18
 757.48046875 591.599609375 757.48046875 591.599609375 752.83984375 642.639648438 c 6,19,-1
 750.51953125 671.639648438 l 5,20,21
 750.51953125 685.559570312 750.51953125 685.559570312 758.059570312 690.780273438 c 132,-1,22
 765.599609375 696 765.599609375 696 785.319824219 696 c 132,-1,23
 805.040039062 696 805.040039062 696 812.580078125 698.900390625 c 132,-1,24
 820.120117188 701.799804688 820.120117188 701.799804688 820.120117188 711.659667969 c 132,-1,25
 820.120117188 721.51953125 820.120117188 721.51953125 813.740234375 727.3203125 c 4,26,27
 798.428085931 741.240234375 798.428085931 741.240234375 679.759765625 741.240234375 c 4,28,29
 633.360351562 741.240234375 633.360351562 741.240234375 617.700195312 729.639648438 c 132,-1,30
 602.040039062 718.040039062 602.040039062 718.040039062 602.040039062 679.759765625 c 5,0,1
1302.6796875 171.6796875 m 4,31,32
 1317.75976562 171.6796875 1317.75976562 171.6796875 1317.75976562 196.040039062 c 260,33,34
 1317.75976562 221.559326249 1317.75976562 221.559326249 1299.20019531 235.48046875 c 4,35,36
 1178.55957031 334.080078125 1178.55957031 334.080078125 1032.40039062 356.120117188 c 4,37,38
 1005.71972656 360.759765625 1005.71972656 360.759765625 939.600097656 360.759765625 c 132,-1,39
 873.48046875 360.759765625 873.48046875 360.759765625 752.83984375 356.120117188 c 4,40,41
 602.040039062 352.639648438 602.040039062 352.639648438 473.859863281 352.639648438 c 132,-1,42
 345.6796875 352.639648438 345.6796875 352.639648438 307.400390625 357.280273438 c 4,43,44
 153.120117188 377 153.120117188 377 111.360351562 400.200195312 c 4,45,46
 105.559570312 403.6796875 105.559570312 403.6796875 98.599609375 403.6796875 c 132,-1,47
 91.6396484375 403.6796875 91.6396484375 403.6796875 85.83984375 393.8203125 c 132,-1,48
 80.0400390625 383.959960938 80.0400390625 383.959960938 81.2001953125 368.879882812 c 4,49,50
 88.16015625 325.959960938 88.16015625 325.959960938 146.16015625 292.900390625 c 132,-1,51
 204.16015625 259.83984375 204.16015625 259.83984375 303.919921875 240.120117188 c 4,52,53
 416.440429688 220.400390625 416.440429688 220.400390625 531.280273438 220.400390625 c 4,54,55
 564.919921875 220.400390625 564.919921875 220.400390625 643.219726562 222.720214844 c 132,-1,56
 721.51953125 225.040039062 721.51953125 225.040039062 871.159667969 225.040039062 c 132,-1,57
 1020.79980469 225.040039062 1020.79980469 225.040039062 1039.36035156 223.879882812 c 4,58,59
 1180.45713592 216.453933694 1180.45713592 216.453933694 1265.55957031 187.33984375 c 4,60,61
 1287.59960938 179.799804688 1287.59960938 179.799804688 1293.39990234 175.739746094 c 132,-1,62
 1299.20019531 171.6796875 1299.20019531 171.6796875 1302.6796875 171.6796875 c 4,31,32
EndSplineSet
EndChar

StartChar: x
Encoding: 120 120 10
Width: 1353
VWidth: 1392
GlyphClass: 1
Flags: W
LayerCount: 2
Back
SplineSet
1051 181 m 0,1,2
 1061 181 1061 181 1066 187.5 c 128,-1,3
 1071 194 1071 194 1071 205 c 0,4,5
 1071 220 1071 220 1060.5 237.5 c 128,-1,6
 1050 255 1050 255 1031 266 c 0,7,8
 936 321 936 321 697 321 c 0,9,10
 569 321 569 321 397 306 c 2,11,-1
 376 304 l 2,12,13
 273 295 273 295 244 295 c 0,14,15
 224 295 224 295 215.5 298 c 128,-1,16
 207 301 207 301 199 308 c 0,17,18
 181 325 181 325 181 337 c 0,19,20
 181 352 181 352 205 370 c 0,21,22
 213 377 213 377 220 381 c 128,-1,23
 227 385 227 385 232 385 c 0,24,25
 238 385 238 385 247.5 381 c 128,-1,26
 257 377 257 377 270 370 c 0,27,28
 297 356 297 356 310 356 c 0,29,30
 318 356 318 356 325 362 c 0,31,32
 334 370 334 370 334 379 c 0,33,34
 334 391 334 391 316 405 c 128,-1,35
 298 419 298 419 263 432 c 0,36,37
 206 453 206 453 163 453 c 0,38,39
 119 453 119 453 77 434 c 0,40,41
 52 423 52 423 43.5 417 c 128,-1,42
 35 411 35 411 32.5 402 c 128,-1,43
 30 393 30 393 30 369 c 0,44,45
 30 342 30 342 36.5 326.5 c 128,-1,46
 43 311 43 311 62 298.5 c 128,-1,47
 81 286 81 286 122 268 c 0,48,49
 174 245 174 245 209 234 c 128,-1,50
 244 223 244 223 289.5 218.5 c 128,-1,51
 335 214 335 214 412 214 c 0,52,53
 483 214 483 214 597 217 c 0,54,55
 710 220 710 220 782 220 c 0,56,57
 891 220 891 220 943 213 c 128,-1,58
 995 206 995 206 1030 187 c 0,59,0
 1040 181 1040 181 1051 181 c 0,1,2
1084 -52 m 0,61,62
 1090 -52 1090 -52 1093.5 -46 c 128,-1,63
 1097 -40 1097 -40 1097 -31 c 256,64,65
 1097 -22 1097 -22 1093 -12.5 c 128,-1,66
 1089 -3 1089 -3 1081 3 c 0,67,68
 977 88 977 88 851 107 c 0,69,70
 828 111 828 111 775 111 c 0,71,72
 714 111 714 111 610 107 c 0,73,74
 479 104 479 104 371 104 c 0,75,76
 259 104 259 104 226 108 c 0,77,78
 93 125 93 125 57 145 c 0,79,80
 53 148 53 148 48 148 c 0,81,82
 40 148 40 148 35 139.5 c 128,-1,83
 30 131 30 131 31 118 c 0,84,85
 37 81 37 81 87 52.5 c 128,-1,86
 137 24 137 24 223 7 c 0,87,88
 320 -10 320 -10 419 -10 c 0,89,90
 448 -10 448 -10 463 -9 c 0,91,92
 583 -6 583 -6 756 -6 c 0,93,94
 841 -6 841 -6 857 -7 c 0,95,96
 952 -12 952 -12 1015 -28 c 0,97,98
 1033 -32 1033 -32 1052 -38.5 c 128,-1,99
 1071 -45 1071 -45 1076 -49 c 0,100,60
 1081 -52 1081 -52 1084 -52 c 0,61,62
EndSplineSet
Fore
SplineSet
382.219726562 485.459960938 m 132,-1,1
 435 480.240234375 435 480.240234375 479.66015625 480.240234375 c 132,-1,2
 524.3203125 480.240234375 524.3203125 480.240234375 953.51953125 487.200195312 c 5,3,4
 1079.95996094 487.200195312 1079.95996094 487.200195312 1140.28027344 479.080078125 c 132,-1,5
 1200.59960938 470.959960938 1200.59960938 470.959960938 1241.20019531 448.919921875 c 4,6,7
 1252.79980469 441.959960938 1252.79980469 441.959960938 1265.55957031 441.959960938 c 4,8,9
 1288.75976562 441.959960938 1288.75976562 441.959960938 1288.75976562 469.799804688 c 4,10,11
 1288.75976562 487.200195312 1288.75976562 487.200195312 1276.58007812 507.5 c 132,-1,12
 1264.40039062 527.799804688 1264.40039062 527.799804688 1242.36035156 540.559570312 c 4,13,14
 1132.16015625 604.360351562 1132.16015625 604.360351562 854.919921875 604.360351562 c 4,15,16
 706.440429688 604.360351562 706.440429688 604.360351562 506.919921875 586.959960938 c 5,17,-1
 482.559570312 584.639648438 l 6,18,19
 363.080078125 574.200195312 363.080078125 574.200195312 334.66015625 574.200195312 c 132,-1,20
 306.240234375 574.200195312 306.240234375 574.200195312 296.379882812 577.6796875 c 132,-1,21
 286.51953125 581.16015625 286.51953125 581.16015625 271.439941406 595.080078125 c 132,-1,22
 256.360351562 609 256.360351562 609 256.360351562 624.66015625 c 132,-1,23
 256.360351562 640.3203125 256.360351562 640.3203125 284.200195312 661.200195312 c 4,24,25
 304.085538889 678.599609375 304.085538889 678.599609375 313.283003819 678.599609375 c 4,26,27
 327.286710764 678.599609375 327.286710764 678.599609375 359.103316319 661.779785156 c 132,-1,28
 390.919921875 644.959960938 390.919921875 644.959960938 403.100097656 644.959960938 c 132,-1,29
 415.280273438 644.959960938 415.280273438 644.959960938 424.560058594 653.080078125 c 132,-1,30
 433.83984375 661.200195312 433.83984375 661.200195312 433.83984375 673.379882812 c 132,-1,31
 433.83984375 685.559570312 433.83984375 685.559570312 412.959960938 701.799804688 c 132,-1,32
 392.080078125 718.040039062 392.080078125 718.040039062 338.720214844 737.760253906 c 132,-1,33
 285.360351562 757.48046875 285.360351562 757.48046875 234.900390625 757.48046875 c 132,-1,34
 184.440429688 757.48046875 184.440429688 757.48046875 145.580078125 740.080078125 c 132,-1,35
 106.719726562 722.6796875 106.719726562 722.6796875 96.8603515625 715.719726562 c 132,-1,36
 87 708.759765625 87 708.759765625 84.099609375 698.3203125 c 132,-1,37
 81.2001953125 687.879882812 81.2001953125 687.879882812 81.2001953125 658.299804688 c 132,-1,38
 81.2001953125 628.719726562 81.2001953125 628.719726562 88.740234375 610.740234375 c 132,-1,39
 96.2802734375 592.759765625 96.2802734375 592.759765625 118.3203125 578.259765625 c 132,-1,40
 140.360351562 563.759765625 140.360351562 563.759765625 194.300292969 539.979980469 c 132,-1,41
 248.240234375 516.200195312 248.240234375 516.200195312 288.83984375 503.440429688 c 132,-1,0
 329.440429688 490.6796875 329.440429688 490.6796875 382.219726562 485.459960938 c 132,-1,1
1303.83984375 171.6796875 m 4,42,43
 1318.91992188 171.6796875 1318.91992188 171.6796875 1318.91992188 196.040039062 c 260,44,45
 1318.91992188 221.557861174 1318.91992188 221.557861174 1300.36035156 235.48046875 c 4,46,47
 1179.71972656 334.080078125 1179.71972656 334.080078125 1033.55957031 356.120117188 c 4,48,49
 1006.87988281 360.759765625 1006.87988281 360.759765625 940.759765625 360.759765625 c 132,-1,50
 874.639648438 360.759765625 874.639648438 360.759765625 754 356.120117188 c 4,51,52
 602.040039062 352.639648438 602.040039062 352.639648438 474.439941406 352.639648438 c 132,-1,53
 346.83984375 352.639648438 346.83984375 352.639648438 308.559570312 357.280273438 c 4,54,55
 154.280273438 377 154.280273438 377 112.51953125 400.200195312 c 4,56,57
 107.879882812 403.6796875 107.879882812 403.6796875 100.33984375 403.6796875 c 132,-1,58
 92.7998046875 403.6796875 92.7998046875 403.6796875 87 393.8203125 c 132,-1,59
 81.2001953125 383.959960938 81.2001953125 383.959960938 82.3603515625 368.879882812 c 4,60,61
 89.3203125 325.959960938 89.3203125 325.959960938 147.3203125 292.900390625 c 132,-1,62
 205.3203125 259.83984375 205.3203125 259.83984375 305.080078125 240.120117188 c 4,63,64
 417.599609375 220.400390625 417.599609375 220.400390625 532.440429688 220.400390625 c 4,65,66
 566.080078125 220.400390625 566.080078125 220.400390625 644.379882812 222.720214844 c 132,-1,67
 722.6796875 225.040039062 722.6796875 225.040039062 872.319824219 225.040039062 c 132,-1,68
 1021.95996094 225.040039062 1021.95996094 225.040039062 1040.51953125 223.879882812 c 4,69,70
 1181.61724239 216.453950725 1181.61724239 216.453950725 1266.71972656 187.33984375 c 4,71,72
 1288.75976562 179.799804688 1288.75976562 179.799804688 1294.56005859 175.739746094 c 132,-1,73
 1300.36035156 171.6796875 1300.36035156 171.6796875 1303.83984375 171.6796875 c 4,42,43
EndSplineSet
EndChar

StartChar: zero
Encoding: 48 48 11
Width: 1533
VWidth: 1392
GlyphClass: 1
Flags: W
LayerCount: 2
Back
SplineSet
706 442 m 0,1,2
 725 442 725 442 723 454 c 0,3,4
 722 464 722 464 682.5 486 c 128,-1,5
 643 508 643 508 605 519 c 2,6,-1
 562 532 l 1,7,-1
 596 539 l 2,8,9
 656 552 656 552 712 594 c 128,-1,10
 768 636 768 636 786 682 c 0,11,12
 790 693 790 693 795 731 c 128,-1,13
 800 769 800 769 802 811 c 0,14,15
 806 885 806 885 816.5 919 c 128,-1,16
 827 953 827 953 850 966 c 0,17,18
 862 974 862 974 862 995 c 0,19,20
 862 1009 862 1009 856.5 1022.5 c 128,-1,21
 851 1036 851 1036 841 1043 c 0,22,23
 823 1057 823 1057 802 1057 c 0,24,25
 783 1057 783 1057 758 1044 c 0,26,27
 726 1027 726 1027 707 979.5 c 128,-1,28
 688 932 688 932 681 843 c 0,29,30
 672 739 672 739 647.5 687.5 c 128,-1,31
 623 636 623 636 568 604 c 0,32,33
 546 591 546 591 519 580.5 c 128,-1,34
 492 570 492 570 474 567 c 2,35,-1
 430 560 l 1,36,-1
 615 471 l 2,37,0
 678 442 678 442 706 442 c 0,1,2
1096 172 m 0,39,40
 1115 172 1115 172 1113 184 c 0,41,42
 1112 194 1112 194 1072.5 216 c 128,-1,43
 1033 238 1033 238 995 249 c 2,44,-1
 952 262 l 1,45,-1
 986 269 l 2,46,47
 1046 282 1046 282 1102 324 c 128,-1,48
 1158 366 1158 366 1176 412 c 0,49,50
 1180 423 1180 423 1185 461 c 128,-1,51
 1190 499 1190 499 1192 541 c 0,52,53
 1196 615 1196 615 1206.5 649 c 128,-1,54
 1217 683 1217 683 1240 696 c 0,55,56
 1252 704 1252 704 1252 725 c 0,57,58
 1252 739 1252 739 1246.5 752.5 c 128,-1,59
 1241 766 1241 766 1231 773 c 0,60,61
 1213 787 1213 787 1192 787 c 0,62,63
 1173 787 1173 787 1148 774 c 0,64,65
 1116 757 1116 757 1097 709.5 c 128,-1,66
 1078 662 1078 662 1071 573 c 0,67,68
 1062 469 1062 469 1037.5 417.5 c 128,-1,69
 1013 366 1013 366 958 334 c 0,70,71
 936 321 936 321 909 310.5 c 128,-1,72
 882 300 882 300 864 297 c 2,73,-1
 820 290 l 1,74,-1
 1005 201 l 2,75,38
 1068 172 1068 172 1096 172 c 0,39,40
562 172 m 0,77,78
 589 172 589 172 597 176 c 0,79,80
 608 180 608 180 608 189 c 0,81,82
 608 199 608 199 596 203 c 0,83,84
 585 207 585 207 577 223 c 128,-1,85
 569 239 569 239 553 293 c 0,86,87
 542 330 542 330 532 348 c 128,-1,88
 522 366 522 366 507 374 c 128,-1,89
 492 382 492 382 465 386 c 0,90,91
 446 389 446 389 428 389 c 0,92,93
 407 389 407 389 392.5 385 c 128,-1,94
 378 381 378 381 375 374 c 2,95,-1
 375 372 l 2,96,97
 375 369 375 369 379 365 c 128,-1,98
 383 361 383 361 390 359 c 0,99,100
 403 354 403 354 411 338 c 128,-1,101
 419 322 419 322 436 266 c 0,102,103
 448 226 448 226 462.5 206 c 128,-1,104
 477 186 477 186 501 179 c 0,105,76
 522 172 522 172 562 172 c 0,77,78
762 172 m 0,107,108
 789 172 789 172 797 176 c 0,109,110
 808 180 808 180 808 189 c 0,111,112
 808 199 808 199 796 203 c 0,113,114
 785 207 785 207 777 223 c 128,-1,115
 769 239 769 239 753 293 c 0,116,117
 742 330 742 330 732 348 c 128,-1,118
 722 366 722 366 707 374 c 128,-1,119
 692 382 692 382 665 386 c 0,120,121
 646 389 646 389 628 389 c 0,122,123
 607 389 607 389 592.5 385 c 128,-1,124
 578 381 578 381 575 374 c 2,125,-1
 575 372 l 2,126,127
 575 369 575 369 579 365 c 128,-1,128
 583 361 583 361 590 359 c 0,129,130
 603 354 603 354 611 338 c 128,-1,131
 619 322 619 322 636 266 c 0,132,133
 648 226 648 226 662.5 206 c 128,-1,134
 677 186 677 186 701 179 c 0,135,106
 722 172 722 172 762 172 c 0,107,108
1214 -52 m 0,137,138
 1220 -52 1220 -52 1223 -46.5 c 128,-1,139
 1226 -41 1226 -41 1226 -32 c 0,140,141
 1226 -9 1226 -9 1211 3 c 0,142,143
 1111 88 1111 88 981 107 c 0,144,145
 957 110 957 110 856 110 c 0,146,147
 740 110 740 110 610 107 c 0,148,149
 479 104 479 104 371 104 c 0,150,151
 259 104 259 104 226 108 c 0,152,153
 90 125 90 125 57 145 c 0,154,155
 53 148 53 148 47 148 c 0,156,157
 38 148 38 148 33.5 139.5 c 128,-1,158
 29 131 29 131 31 118 c 0,159,160
 38 80 38 80 88 51 c 128,-1,161
 138 22 138 22 223 7 c 0,162,163
 318 -9 318 -9 426 -9 c 2,164,-1
 463 -9 l 2,165,166
 583 -6 583 -6 850 -6 c 0,167,168
 971 -6 971 -6 987 -7 c 0,169,170
 1089 -14 1089 -14 1145 -28 c 0,171,172
 1163 -32 1163 -32 1182 -38.5 c 128,-1,173
 1201 -45 1201 -45 1206 -49 c 0,174,136
 1211 -52 1211 -52 1214 -52 c 0,137,138
EndSplineSet
Fore
SplineSet
759.799804688 778.360351562 m 5,0,1
 832.879882812 744.719726562 832.879882812 744.719726562 860.140136719 744.719726562 c 132,-1,2
 887.400390625 744.719726562 887.400390625 744.719726562 885.080078125 758.639648438 c 4,3,4
 883.919921875 770.240234375 883.919921875 770.240234375 838.099609375 795.759765625 c 132,-1,5
 792.280273438 821.280273438 792.280273438 821.280273438 748.200195312 834.040039062 c 6,6,-1
 698.3203125 849.120117188 l 5,7,-1
 737.759765625 857.240234375 l 6,8,9
 807.360351562 872.3203125 807.360351562 872.3203125 872.3203125 921.040039062 c 132,-1,10
 937.280273438 969.759765625 937.280273438 969.759765625 958.16015625 1023.12011719 c 4,11,12
 962.799804688 1035.87988281 962.799804688 1035.87988281 968.599609375 1079.95996094 c 132,-1,13
 974.400390625 1124.04003906 974.400390625 1124.04003906 977.880371094 1191.31982422 c 132,-1,14
 981.360351562 1258.59960938 981.360351562 1258.59960938 993.540039062 1298.04003906 c 132,-1,15
 1005.71972656 1337.48046875 1005.71972656 1337.48046875 1032.40039062 1352.55957031 c 4,16,17
 1046.3203125 1361.83984375 1046.3203125 1361.83984375 1046.3203125 1382.14013672 c 4,18,19
 1046.3203125 1424.82681637 1046.3203125 1424.82681637 1021.95996094 1441.87988281 c 4,20,21
 1001.08007812 1458.12011719 1001.08007812 1458.12011719 977.879882812 1458.12011719 c 132,-1,22
 954.6796875 1458.12011719 954.6796875 1458.12011719 921.619628906 1440.72021484 c 4,23,24
 851.61881222 1403.87795182 851.61881222 1403.87795182 836.360351562 1209.87988281 c 4,25,26
 825.919921875 1089.24023438 825.919921875 1089.24023438 797.5 1029.5 c 4,27,28
 758.885703629 948.330631358 758.885703629 948.330631358 648.440429688 905.379882812 c 4,29,30
 617.120117188 893.200195312 617.120117188 893.200195312 596.240234375 889.719726562 c 6,31,-1
 545.200195312 881.599609375 l 5,32,-1
 759.799804688 778.360351562 l 5,0,1
1212.20019531 465.16015625 m 5,33,34
 1285.28027344 431.51953125 1285.28027344 431.51953125 1312.54003906 431.51953125 c 132,-1,35
 1339.79980469 431.51953125 1339.79980469 431.51953125 1337.48046875 445.440429688 c 4,36,37
 1336.3203125 457.040039062 1336.3203125 457.040039062 1290.5 482.559570312 c 132,-1,38
 1244.6796875 508.080078125 1244.6796875 508.080078125 1200.59960938 520.83984375 c 6,39,-1
 1150.71972656 535.919921875 l 5,40,-1
 1190.16015625 544.040039062 l 6,41,42
 1259.75976562 559.120117188 1259.75976562 559.120117188 1324.71972656 607.83984375 c 132,-1,43
 1389.6796875 656.559570312 1389.6796875 656.559570312 1410.55957031 709.919921875 c 4,44,45
 1415.20019531 722.6796875 1415.20019531 722.6796875 1421 766.759765625 c 132,-1,46
 1426.79980469 810.83984375 1426.79980469 810.83984375 1430.27978516 878.120117188 c 132,-1,47
 1433.75976562 945.400390625 1433.75976562 945.400390625 1445.94042969 984.83984375 c 132,-1,48
 1458.12011719 1024.28027344 1458.12011719 1024.28027344 1484.79980469 1039.36035156 c 4,49,50
 1498.71972656 1048.63964844 1498.71972656 1048.63964844 1498.71972656 1068.93994141 c 4,51,52
 1498.71972656 1111.62730468 1498.71972656 1111.62730468 1474.36035156 1128.6796875 c 4,53,54
 1453.48046875 1144.91992188 1453.48046875 1144.91992188 1430.28027344 1144.91992188 c 132,-1,55
 1407.08007812 1144.91992188 1407.08007812 1144.91992188 1374.02001953 1127.52001953 c 4,56,57
 1304.01818411 1090.67722033 1304.01818411 1090.67722033 1288.75976562 896.6796875 c 4,58,59
 1278.3203125 776.040039062 1278.3203125 776.040039062 1249.90039062 716.299804688 c 4,60,61
 1211.28754437 635.133484263 1211.28754437 635.133484263 1100.83984375 592.1796875 c 4,62,63
 1069.51953125 580 1069.51953125 580 1048.63964844 576.51953125 c 6,64,-1
 997.599609375 568.400390625 l 5,65,-1
 1212.20019531 465.16015625 l 5,33,34
481.400390625 665.83984375 m 5,66,-1
 481.400390625 663.51953125 l 6,67,68
 481.400390625 660.040039062 481.400390625 660.040039062 486.040039062 655.400390625 c 132,-1,69
 490.6796875 650.759765625 490.6796875 650.759765625 502.279785156 646.699707031 c 132,-1,70
 513.879882812 642.639648438 513.879882812 642.639648438 523.16015625 624.080078125 c 132,-1,71
 532.440429688 605.51953125 532.440429688 605.51953125 549.260253906 549.83984375 c 132,-1,72
 566.080078125 494.16015625 566.080078125 494.16015625 582.900390625 470.959960938 c 132,-1,73
 599.719726562 447.759765625 599.719726562 447.759765625 625.819824219 439.639648438 c 132,-1,74
 651.919921875 431.51953125 651.919921875 431.51953125 701.799804688 431.51953125 c 132,-1,75
 751.6796875 431.51953125 751.6796875 431.51953125 751.6796875 451.240234375 c 4,76,77
 751.6796875 462.83984375 751.6796875 462.83984375 738.33984375 467.479980469 c 132,-1,78
 725 472.120117188 725 472.120117188 715.719726562 490.6796875 c 132,-1,79
 706.440429688 509.240234375 706.440429688 509.240234375 690.780273438 562.020019531 c 132,-1,80
 675.120117188 614.799804688 675.120117188 614.799804688 663.51953125 635.6796875 c 132,-1,81
 651.919921875 656.559570312 651.919921875 656.559570312 634.51953125 665.83984375 c 4,82,83
 601.89585875 683.240234375 601.89585875 683.240234375 545.376181921 683.240234375 c 132,-1,84
 488.856505092 683.240234375 488.856505092 683.240234375 481.400390625 665.83984375 c 5,66,-1
713.400390625 665.83984375 m 5,85,-1
 713.400390625 663.51953125 l 6,86,87
 713.400390625 660.040039062 713.400390625 660.040039062 718.040039062 655.400390625 c 132,-1,88
 722.6796875 650.759765625 722.6796875 650.759765625 734.279785156 646.699707031 c 132,-1,89
 745.879882812 642.639648438 745.879882812 642.639648438 755.16015625 624.080078125 c 132,-1,90
 764.440429688 605.51953125 764.440429688 605.51953125 781.260253906 549.83984375 c 132,-1,91
 798.080078125 494.16015625 798.080078125 494.16015625 814.900390625 470.959960938 c 132,-1,92
 831.719726562 447.759765625 831.719726562 447.759765625 857.819824219 439.639648438 c 132,-1,93
 883.919921875 431.51953125 883.919921875 431.51953125 933.799804688 431.51953125 c 132,-1,94
 983.6796875 431.51953125 983.6796875 431.51953125 983.6796875 451.240234375 c 4,95,96
 983.6796875 462.83984375 983.6796875 462.83984375 970.33984375 467.479980469 c 132,-1,97
 957 472.120117188 957 472.120117188 947.719726562 490.6796875 c 132,-1,98
 938.440429688 509.240234375 938.440429688 509.240234375 922.780273438 562.020019531 c 132,-1,99
 907.120117188 614.799804688 907.120117188 614.799804688 895.51953125 635.6796875 c 132,-1,100
 883.919921875 656.559570312 883.919921875 656.559570312 866.51953125 665.83984375 c 4,101,102
 833.89585875 683.240234375 833.89585875 683.240234375 777.376181921 683.240234375 c 132,-1,103
 720.856505092 683.240234375 720.856505092 683.240234375 713.400390625 665.83984375 c 5,85,-1
1184.36035156 356.120117188 m 4,104,105
 1156.51953125 359.599609375 1156.51953125 359.599609375 1097.93994141 359.599609375 c 132,-1,106
 1039.36035156 359.599609375 1039.36035156 359.599609375 476.759765625 352.639648438 c 5,107,108
 346.83984375 352.639648438 346.83984375 352.639648438 308.559570312 357.280273438 c 4,109,110
 150.799804688 377 150.799804688 377 112.51953125 400.200195312 c 4,111,112
 107.879882812 403.6796875 107.879882812 403.6796875 99.1801757812 403.6796875 c 132,-1,113
 90.48046875 403.6796875 90.48046875 403.6796875 85.259765625 393.8203125 c 132,-1,114
 80.0400390625 383.959960938 80.0400390625 383.959960938 82.3603515625 368.879882812 c 4,115,116
 90.48046875 324.799804688 90.48046875 324.799804688 148.48046875 291.16015625 c 132,-1,117
 206.48046875 257.51953125 206.48046875 257.51953125 310.880371094 239.539550781 c 132,-1,118
 415.280273438 221.559570312 415.280273438 221.559570312 540.559570312 221.559570312 c 6,119,-1
 583.48046875 221.559570312 l 5,120,121
 722.6796875 225.040039062 722.6796875 225.040039062 947.719726562 225.040039062 c 132,-1,122
 1172.75976562 225.040039062 1172.75976562 225.040039062 1191.3203125 223.879882812 c 4,123,124
 1340.67562507 213.629802967 1340.67562507 213.629802967 1417.51953125 187.33984375 c 4,125,126
 1439.55957031 179.799804688 1439.55957031 179.799804688 1445.35986328 175.739746094 c 132,-1,127
 1451.16015625 171.6796875 1451.16015625 171.6796875 1454.63964844 171.6796875 c 4,128,129
 1468.55957031 171.6796875 1468.55957031 171.6796875 1468.55957031 196.619628906 c 132,-1,130
 1468.55957031 221.559570312 1468.55957031 221.559570312 1451.16015625 235.48046875 c 4,131,132
 1335.16015625 334.080078125 1335.16015625 334.080078125 1184.36035156 356.120117188 c 4,104,105
EndSplineSet
EndChar

StartChar: one
Encoding: 49 49 12
Width: 1503
VWidth: 1392
GlyphClass: 1
Flags: W
LayerCount: 2
Back
SplineSet
718 413 m 0,1,2
 737 413 737 413 735 425 c 0,3,4
 734 435 734 435 694.5 457 c 128,-1,5
 655 479 655 479 617 490 c 2,6,-1
 574 503 l 1,7,-1
 608 510 l 2,8,9
 668 523 668 523 724 565 c 128,-1,10
 780 607 780 607 798 653 c 0,11,12
 802 664 802 664 807 702 c 128,-1,13
 812 740 812 740 814 782 c 0,14,15
 818 856 818 856 828.5 890 c 128,-1,16
 839 924 839 924 862 937 c 0,17,18
 874 945 874 945 874 966 c 0,19,20
 874 980 874 980 868.5 993.5 c 128,-1,21
 863 1007 863 1007 853 1014 c 0,22,23
 835 1028 835 1028 814 1028 c 0,24,25
 795 1028 795 1028 770 1015 c 0,26,27
 738 998 738 998 719 950.5 c 128,-1,28
 700 903 700 903 693 814 c 0,29,30
 684 710 684 710 659.5 658.5 c 128,-1,31
 635 607 635 607 580 575 c 0,32,33
 558 562 558 562 531 551.5 c 128,-1,34
 504 541 504 541 486 538 c 2,35,-1
 442 531 l 1,36,-1
 627 442 l 2,37,0
 690 413 690 413 718 413 c 0,1,2
306 172 m 0,39,40
 325 172 325 172 323 184 c 0,41,42
 322 194 322 194 282.5 216 c 128,-1,43
 243 238 243 238 205 249 c 2,44,-1
 162 262 l 1,45,-1
 196 269 l 2,46,47
 256 282 256 282 312 324 c 128,-1,48
 368 366 368 366 386 412 c 0,49,50
 390 423 390 423 395 461 c 128,-1,51
 400 499 400 499 402 541 c 0,52,53
 406 615 406 615 416.5 649 c 128,-1,54
 427 683 427 683 450 696 c 0,55,56
 462 704 462 704 462 725 c 0,57,58
 462 739 462 739 456.5 752.5 c 128,-1,59
 451 766 451 766 441 773 c 0,60,61
 423 787 423 787 402 787 c 0,62,63
 383 787 383 787 358 774 c 0,64,65
 326 757 326 757 307 709.5 c 128,-1,66
 288 662 288 662 281 573 c 0,67,68
 272 469 272 469 247.5 417.5 c 128,-1,69
 223 366 223 366 168 334 c 0,70,71
 146 321 146 321 119 310.5 c 128,-1,72
 92 300 92 300 74 297 c 2,73,-1
 30 290 l 1,74,-1
 215 201 l 2,75,38
 278 172 278 172 306 172 c 0,39,40
649 186 m 0,77,78
 676 186 676 186 684 190 c 0,79,80
 695 194 695 194 695 203 c 0,81,82
 695 213 695 213 683 217 c 0,83,84
 672 221 672 221 664 237 c 128,-1,85
 656 253 656 253 640 307 c 0,86,87
 629 344 629 344 619 362 c 128,-1,88
 609 380 609 380 594 388 c 128,-1,89
 579 396 579 396 552 400 c 0,90,91
 532 403 532 403 515 403 c 0,92,93
 494 403 494 403 479.5 399 c 128,-1,94
 465 395 465 395 462 388 c 2,95,-1
 462 386 l 2,96,97
 462 383 462 383 466 379 c 128,-1,98
 470 375 470 375 477 373 c 0,99,100
 490 368 490 368 498 352 c 128,-1,101
 506 336 506 336 523 280 c 0,102,103
 535 240 535 240 549.5 220 c 128,-1,104
 564 200 564 200 588 193 c 0,105,76
 609 186 609 186 649 186 c 0,77,78
1214 -52 m 0,107,108
 1220 -52 1220 -52 1223 -46.5 c 128,-1,109
 1226 -41 1226 -41 1226 -32 c 0,110,111
 1226 -9 1226 -9 1211 3 c 0,112,113
 1111 88 1111 88 981 107 c 0,114,115
 957 110 957 110 856 110 c 0,116,117
 740 110 740 110 610 107 c 0,118,119
 479 104 479 104 371 104 c 0,120,121
 259 104 259 104 226 108 c 0,122,123
 90 125 90 125 57 145 c 0,124,125
 53 148 53 148 47 148 c 0,126,127
 38 148 38 148 33.5 139.5 c 128,-1,128
 29 131 29 131 31 118 c 0,129,130
 38 80 38 80 88 51 c 128,-1,131
 138 22 138 22 223 7 c 0,132,133
 318 -9 318 -9 426 -9 c 2,134,-1
 463 -9 l 2,135,136
 583 -6 583 -6 850 -6 c 0,137,138
 971 -6 971 -6 987 -7 c 0,139,140
 1089 -14 1089 -14 1145 -28 c 0,141,142
 1163 -32 1163 -32 1182 -38.5 c 128,-1,143
 1201 -45 1201 -45 1206 -49 c 0,144,106
 1211 -52 1211 -52 1214 -52 c 0,107,108
EndSplineSet
Fore
SplineSet
773.719726562 744.719726562 m 5,0,1
 846.799804688 711.080078125 846.799804688 711.080078125 874.060058594 711.080078125 c 132,-1,2
 901.3203125 711.080078125 901.3203125 711.080078125 899 725 c 4,3,4
 897.83984375 736.599609375 897.83984375 736.599609375 852.01953125 762.120117188 c 132,-1,5
 806.200195312 787.639648438 806.200195312 787.639648438 762.120117188 800.400390625 c 6,6,-1
 712.240234375 815.48046875 l 5,7,-1
 751.6796875 823.599609375 l 6,8,9
 821.280273438 838.6796875 821.280273438 838.6796875 886.240234375 887.400390625 c 132,-1,10
 951.200195312 936.120117188 951.200195312 936.120117188 972.080078125 989.48046875 c 4,11,12
 976.719726562 1002.24023438 976.719726562 1002.24023438 982.51953125 1046.3203125 c 132,-1,13
 988.3203125 1090.40039062 988.3203125 1090.40039062 991.800292969 1157.68017578 c 132,-1,14
 995.280273438 1224.95996094 995.280273438 1224.95996094 1007.45996094 1264.40039062 c 132,-1,15
 1019.63964844 1303.83984375 1019.63964844 1303.83984375 1046.3203125 1318.91992188 c 4,16,17
 1060.24023438 1328.20019531 1060.24023438 1328.20019531 1060.24023438 1348.5 c 4,18,19
 1060.24023438 1391.18860349 1060.24023438 1391.18860349 1035.87988281 1408.24023438 c 4,20,21
 1015 1424.48046875 1015 1424.48046875 991.799804688 1424.48046875 c 132,-1,22
 968.599609375 1424.48046875 968.599609375 1424.48046875 935.540039062 1407.08007812 c 4,23,24
 865.538543468 1370.23587972 865.538543468 1370.23587972 850.280273438 1176.24023438 c 4,25,26
 839.83984375 1055.59960938 839.83984375 1055.59960938 811.419921875 995.860351562 c 4,27,28
 772.805625504 914.69098292 772.805625504 914.69098292 662.360351562 871.740234375 c 4,29,30
 631.040039062 859.559570312 631.040039062 859.559570312 610.16015625 856.080078125 c 6,31,-1
 559.120117188 847.959960938 l 5,32,-1
 773.719726562 744.719726562 l 5,0,1
295.799804688 465.16015625 m 5,33,34
 368.879882812 431.51953125 368.879882812 431.51953125 396.140136719 431.51953125 c 132,-1,35
 423.400390625 431.51953125 423.400390625 431.51953125 421.080078125 445.440429688 c 4,36,37
 419.919921875 457.040039062 419.919921875 457.040039062 374.099609375 482.559570312 c 132,-1,38
 328.280273438 508.080078125 328.280273438 508.080078125 284.200195312 520.83984375 c 6,39,-1
 234.3203125 535.919921875 l 5,40,-1
 273.759765625 544.040039062 l 6,41,42
 343.360351562 559.120117188 343.360351562 559.120117188 408.3203125 607.83984375 c 132,-1,43
 473.280273438 656.559570312 473.280273438 656.559570312 494.16015625 709.919921875 c 4,44,45
 498.799804688 722.6796875 498.799804688 722.6796875 504.599609375 766.759765625 c 132,-1,46
 510.400390625 810.83984375 510.400390625 810.83984375 513.880371094 878.120117188 c 132,-1,47
 517.360351562 945.400390625 517.360351562 945.400390625 529.540039062 984.83984375 c 132,-1,48
 541.719726562 1024.28027344 541.719726562 1024.28027344 568.400390625 1039.36035156 c 4,49,50
 582.3203125 1048.63964844 582.3203125 1048.63964844 582.3203125 1068.93994141 c 4,51,52
 582.3203125 1111.62662105 582.3203125 1111.62662105 557.959960938 1128.6796875 c 4,53,54
 537.080078125 1144.91992188 537.080078125 1144.91992188 513.879882812 1144.91992188 c 132,-1,55
 490.6796875 1144.91992188 490.6796875 1144.91992188 457.619628906 1127.52001953 c 4,56,57
 387.61881222 1090.67775651 387.61881222 1090.67775651 372.360351562 896.6796875 c 4,58,59
 361.919921875 776.040039062 361.919921875 776.040039062 333.5 716.299804688 c 4,60,61
 294.887713844 635.134661629 294.887713844 635.134661629 184.440429688 592.1796875 c 4,62,63
 153.120117188 580 153.120117188 580 132.240234375 576.51953125 c 6,64,-1
 81.2001953125 568.400390625 l 5,65,-1
 295.799804688 465.16015625 l 5,33,34
582.3203125 682.080078125 m 5,66,-1
 582.3203125 679.759765625 l 6,67,68
 582.3203125 676.280273438 582.3203125 676.280273438 586.959960938 671.639648438 c 132,-1,69
 591.599609375 667 591.599609375 667 603.199707031 662.939941406 c 132,-1,70
 614.799804688 658.879882812 614.799804688 658.879882812 624.080078125 640.3203125 c 132,-1,71
 633.360351562 621.759765625 633.360351562 621.759765625 650.180175781 566.080078125 c 132,-1,72
 667 510.400390625 667 510.400390625 683.8203125 487.200195312 c 132,-1,73
 700.639648438 464 700.639648438 464 726.739746094 455.879882812 c 132,-1,74
 752.83984375 447.759765625 752.83984375 447.759765625 802.719726562 447.759765625 c 132,-1,75
 852.599609375 447.759765625 852.599609375 447.759765625 852.599609375 467.48046875 c 4,76,77
 852.599609375 479.080078125 852.599609375 479.080078125 839.259765625 483.720214844 c 132,-1,78
 825.919921875 488.360351562 825.919921875 488.360351562 816.639648438 506.919921875 c 132,-1,79
 807.360351562 525.48046875 807.360351562 525.48046875 791.700195312 578.260253906 c 132,-1,80
 776.040039062 631.040039062 776.040039062 631.040039062 764.440429688 651.919921875 c 132,-1,81
 752.83984375 672.799804688 752.83984375 672.799804688 735.440429688 682.080078125 c 4,82,83
 702.814926146 699.48046875 702.814926146 699.48046875 646.295676557 699.48046875 c 132,-1,84
 589.776426967 699.48046875 589.776426967 699.48046875 582.3203125 682.080078125 c 5,66,-1
1184.36035156 356.120117188 m 4,85,86
 1156.51953125 359.599609375 1156.51953125 359.599609375 1097.93994141 359.599609375 c 132,-1,87
 1039.36035156 359.599609375 1039.36035156 359.599609375 476.759765625 352.639648438 c 5,88,89
 346.83984375 352.639648438 346.83984375 352.639648438 308.559570312 357.280273438 c 4,90,91
 150.799804688 377 150.799804688 377 112.51953125 400.200195312 c 4,92,93
 107.879882812 403.6796875 107.879882812 403.6796875 99.1801757812 403.6796875 c 132,-1,94
 90.48046875 403.6796875 90.48046875 403.6796875 85.259765625 393.8203125 c 132,-1,95
 80.0400390625 383.959960938 80.0400390625 383.959960938 82.3603515625 368.879882812 c 4,96,97
 90.48046875 324.799804688 90.48046875 324.799804688 148.48046875 291.16015625 c 132,-1,98
 206.48046875 257.51953125 206.48046875 257.51953125 310.880371094 239.539550781 c 132,-1,99
 415.280273438 221.559570312 415.280273438 221.559570312 540.559570312 221.559570312 c 6,100,-1
 583.48046875 221.559570312 l 5,101,102
 722.6796875 225.040039062 722.6796875 225.040039062 947.719726562 225.040039062 c 132,-1,103
 1172.75976562 225.040039062 1172.75976562 225.040039062 1191.3203125 223.879882812 c 4,104,105
 1340.67562507 213.629802967 1340.67562507 213.629802967 1417.51953125 187.33984375 c 4,106,107
 1439.55957031 179.799804688 1439.55957031 179.799804688 1445.35986328 175.739746094 c 132,-1,108
 1451.16015625 171.6796875 1451.16015625 171.6796875 1454.63964844 171.6796875 c 4,109,110
 1468.55957031 171.6796875 1468.55957031 171.6796875 1468.55957031 196.619628906 c 132,-1,111
 1468.55957031 221.559570312 1468.55957031 221.559570312 1451.16015625 235.48046875 c 4,112,113
 1335.16015625 334.080078125 1335.16015625 334.080078125 1184.36035156 356.120117188 c 4,85,86
EndSplineSet
EndChar

StartChar: two
Encoding: 50 50 13
Width: 1626
VWidth: 1392
GlyphClass: 1
Flags: W
LayerCount: 2
Back
SplineSet
306 172 m 0,1,2
 325 172 325 172 323 184 c 0,3,4
 322 194 322 194 282.5 216 c 128,-1,5
 243 238 243 238 205 249 c 2,6,-1
 162 262 l 1,7,-1
 196 269 l 2,8,9
 256 282 256 282 312 324 c 128,-1,10
 368 366 368 366 386 412 c 0,11,12
 390 423 390 423 395 461 c 128,-1,13
 400 499 400 499 402 541 c 0,14,15
 406 615 406 615 416.5 649 c 128,-1,16
 427 683 427 683 450 696 c 0,17,18
 462 704 462 704 462 725 c 0,19,20
 462 739 462 739 456.5 752.5 c 128,-1,21
 451 766 451 766 441 773 c 0,22,23
 423 787 423 787 402 787 c 0,24,25
 383 787 383 787 358 774 c 0,26,27
 326 757 326 757 307 709.5 c 128,-1,28
 288 662 288 662 281 573 c 0,29,30
 272 469 272 469 247.5 417.5 c 128,-1,31
 223 366 223 366 168 334 c 0,32,33
 146 321 146 321 119 310.5 c 128,-1,34
 92 300 92 300 74 297 c 2,35,-1
 30 290 l 1,36,-1
 215 201 l 2,37,0
 278 172 278 172 306 172 c 0,1,2
741 172 m 0,39,40
 760 172 760 172 758 184 c 0,41,42
 757 194 757 194 717.5 216 c 128,-1,43
 678 238 678 238 640 249 c 2,44,-1
 597 262 l 1,45,-1
 631 269 l 2,46,47
 691 282 691 282 747 324 c 128,-1,48
 803 366 803 366 821 412 c 0,49,50
 825 423 825 423 830 461 c 128,-1,51
 835 499 835 499 837 541 c 0,52,53
 841 615 841 615 851.5 649 c 128,-1,54
 862 683 862 683 885 696 c 0,55,56
 897 704 897 704 897 725 c 0,57,58
 897 739 897 739 891.5 752.5 c 128,-1,59
 886 766 886 766 876 773 c 0,60,61
 858 787 858 787 837 787 c 0,62,63
 818 787 818 787 793 774 c 0,64,65
 761 757 761 757 742 709.5 c 128,-1,66
 723 662 723 662 716 573 c 0,67,68
 707 469 707 469 682.5 417.5 c 128,-1,69
 658 366 658 366 603 334 c 0,70,71
 581 321 581 321 554 310.5 c 128,-1,72
 527 300 527 300 509 297 c 2,73,-1
 465 290 l 1,74,-1
 650 201 l 2,75,38
 713 172 713 172 741 172 c 0,39,40
1176 172 m 0,77,78
 1195 172 1195 172 1193 184 c 0,79,80
 1192 194 1192 194 1152.5 216 c 128,-1,81
 1113 238 1113 238 1075 249 c 2,82,-1
 1032 262 l 1,83,-1
 1066 269 l 2,84,85
 1126 282 1126 282 1182 324 c 128,-1,86
 1238 366 1238 366 1256 412 c 0,87,88
 1260 423 1260 423 1265 461 c 128,-1,89
 1270 499 1270 499 1272 541 c 0,90,91
 1276 615 1276 615 1286.5 649 c 128,-1,92
 1297 683 1297 683 1320 696 c 0,93,94
 1332 704 1332 704 1332 725 c 0,95,96
 1332 739 1332 739 1326.5 752.5 c 128,-1,97
 1321 766 1321 766 1311 773 c 0,98,99
 1293 787 1293 787 1272 787 c 0,100,101
 1253 787 1253 787 1228 774 c 0,102,103
 1196 757 1196 757 1177 709.5 c 128,-1,104
 1158 662 1158 662 1151 573 c 0,105,106
 1142 469 1142 469 1117.5 417.5 c 128,-1,107
 1093 366 1093 366 1038 334 c 0,108,109
 1016 321 1016 321 989 310.5 c 128,-1,110
 962 300 962 300 944 297 c 2,111,-1
 900 290 l 1,112,-1
 1085 201 l 2,113,76
 1148 172 1148 172 1176 172 c 0,77,78
1214 -52 m 0,115,116
 1220 -52 1220 -52 1223 -46.5 c 128,-1,117
 1226 -41 1226 -41 1226 -32 c 0,118,119
 1226 -9 1226 -9 1211 3 c 0,120,121
 1111 88 1111 88 981 107 c 0,122,123
 957 110 957 110 856 110 c 0,124,125
 740 110 740 110 610 107 c 0,126,127
 479 104 479 104 371 104 c 0,128,129
 259 104 259 104 226 108 c 0,130,131
 90 125 90 125 57 145 c 0,132,133
 53 148 53 148 47 148 c 0,134,135
 38 148 38 148 33.5 139.5 c 128,-1,136
 29 131 29 131 31 118 c 0,137,138
 38 80 38 80 88 51 c 128,-1,139
 138 22 138 22 223 7 c 0,140,141
 318 -9 318 -9 426 -9 c 2,142,-1
 463 -9 l 2,143,144
 583 -6 583 -6 850 -6 c 0,145,146
 971 -6 971 -6 987 -7 c 0,147,148
 1089 -14 1089 -14 1145 -28 c 0,149,150
 1163 -32 1163 -32 1182 -38.5 c 128,-1,151
 1201 -45 1201 -45 1206 -49 c 0,152,114
 1211 -52 1211 -52 1214 -52 c 0,115,116
EndSplineSet
Fore
SplineSet
295.799804688 465.16015625 m 5,0,1
 368.879882812 431.51953125 368.879882812 431.51953125 396.140136719 431.51953125 c 132,-1,2
 423.400390625 431.51953125 423.400390625 431.51953125 421.080078125 445.440429688 c 4,3,4
 419.919921875 457.040039062 419.919921875 457.040039062 374.099609375 482.559570312 c 132,-1,5
 328.280273438 508.080078125 328.280273438 508.080078125 284.200195312 520.83984375 c 6,6,-1
 234.3203125 535.919921875 l 5,7,-1
 273.759765625 544.040039062 l 6,8,9
 343.360351562 559.120117188 343.360351562 559.120117188 408.3203125 607.83984375 c 132,-1,10
 473.280273438 656.559570312 473.280273438 656.559570312 494.16015625 709.919921875 c 4,11,12
 498.799804688 722.6796875 498.799804688 722.6796875 504.599609375 766.759765625 c 132,-1,13
 510.400390625 810.83984375 510.400390625 810.83984375 513.880371094 878.120117188 c 132,-1,14
 517.360351562 945.400390625 517.360351562 945.400390625 529.540039062 984.83984375 c 132,-1,15
 541.719726562 1024.28027344 541.719726562 1024.28027344 568.400390625 1039.36035156 c 4,16,17
 582.3203125 1048.63964844 582.3203125 1048.63964844 582.3203125 1068.93994141 c 4,18,19
 582.3203125 1111.62662105 582.3203125 1111.62662105 557.959960938 1128.6796875 c 4,20,21
 537.080078125 1144.91992188 537.080078125 1144.91992188 513.879882812 1144.91992188 c 132,-1,22
 490.6796875 1144.91992188 490.6796875 1144.91992188 457.619628906 1127.52001953 c 4,23,24
 387.61881222 1090.67775651 387.61881222 1090.67775651 372.360351562 896.6796875 c 4,25,26
 361.919921875 776.040039062 361.919921875 776.040039062 333.5 716.299804688 c 4,27,28
 294.887713844 635.134661629 294.887713844 635.134661629 184.440429688 592.1796875 c 4,29,30
 153.120117188 580 153.120117188 580 132.240234375 576.51953125 c 6,31,-1
 81.2001953125 568.400390625 l 5,32,-1
 295.799804688 465.16015625 l 5,0,1
800.400390625 465.16015625 m 5,33,34
 873.48046875 431.51953125 873.48046875 431.51953125 900.740234375 431.51953125 c 132,-1,35
 928 431.51953125 928 431.51953125 925.6796875 445.440429688 c 4,36,37
 924.51953125 457.040039062 924.51953125 457.040039062 878.700195312 482.559570312 c 132,-1,38
 832.879882812 508.080078125 832.879882812 508.080078125 788.799804688 520.83984375 c 6,39,-1
 738.919921875 535.919921875 l 5,40,-1
 778.360351562 544.040039062 l 6,41,42
 847.959960938 559.120117188 847.959960938 559.120117188 912.919921875 607.83984375 c 132,-1,43
 977.879882812 656.559570312 977.879882812 656.559570312 998.759765625 709.919921875 c 4,44,45
 1003.40039062 722.6796875 1003.40039062 722.6796875 1009.20019531 766.759765625 c 132,-1,46
 1015 810.83984375 1015 810.83984375 1018.47998047 878.120117188 c 132,-1,47
 1021.95996094 945.400390625 1021.95996094 945.400390625 1034.13964844 984.83984375 c 132,-1,48
 1046.3203125 1024.28027344 1046.3203125 1024.28027344 1073 1039.36035156 c 4,49,50
 1086.91992188 1048.63964844 1086.91992188 1048.63964844 1086.91992188 1068.93994141 c 4,51,52
 1086.91992188 1111.62805662 1086.91992188 1111.62805662 1062.55957031 1128.6796875 c 4,53,54
 1041.6796875 1144.91992188 1041.6796875 1144.91992188 1018.47998047 1144.91992188 c 132,-1,55
 995.280273438 1144.91992188 995.280273438 1144.91992188 962.220214844 1127.52001953 c 4,56,57
 892.218379424 1090.67722033 892.218379424 1090.67722033 876.959960938 896.6796875 c 4,58,59
 866.51953125 776.040039062 866.51953125 776.040039062 838.099609375 716.299804688 c 4,60,61
 799.486541425 635.133018255 799.486541425 635.133018255 689.040039062 592.1796875 c 4,62,63
 657.719726562 580 657.719726562 580 636.83984375 576.51953125 c 6,64,-1
 585.799804688 568.400390625 l 5,65,-1
 800.400390625 465.16015625 l 5,33,34
1305 465.16015625 m 5,66,67
 1378.08007812 431.51953125 1378.08007812 431.51953125 1405.33984375 431.51953125 c 132,-1,68
 1432.59960938 431.51953125 1432.59960938 431.51953125 1430.28027344 445.440429688 c 4,69,70
 1429.12011719 457.040039062 1429.12011719 457.040039062 1383.29980469 482.559570312 c 132,-1,71
 1337.48046875 508.080078125 1337.48046875 508.080078125 1293.40039062 520.83984375 c 6,72,-1
 1243.51953125 535.919921875 l 5,73,-1
 1282.95996094 544.040039062 l 6,74,75
 1352.55957031 559.120117188 1352.55957031 559.120117188 1417.51953125 607.83984375 c 132,-1,76
 1482.48046875 656.559570312 1482.48046875 656.559570312 1503.36035156 709.919921875 c 4,77,78
 1508 722.6796875 1508 722.6796875 1513.79980469 766.759765625 c 132,-1,79
 1519.59960938 810.83984375 1519.59960938 810.83984375 1523.07958984 878.120117188 c 132,-1,80
 1526.55957031 945.400390625 1526.55957031 945.400390625 1538.74023438 984.83984375 c 132,-1,81
 1550.91992188 1024.28027344 1550.91992188 1024.28027344 1577.59960938 1039.36035156 c 4,82,83
 1591.51953125 1048.63964844 1591.51953125 1048.63964844 1591.51953125 1068.93994141 c 4,84,85
 1591.51953125 1111.62730468 1591.51953125 1111.62730468 1567.16015625 1128.6796875 c 4,86,87
 1546.28027344 1144.91992188 1546.28027344 1144.91992188 1523.08007812 1144.91992188 c 132,-1,88
 1499.87988281 1144.91992188 1499.87988281 1144.91992188 1466.81982422 1127.52001953 c 4,89,90
 1396.8179888 1090.67722033 1396.8179888 1090.67722033 1381.55957031 896.6796875 c 4,91,92
 1371.12011719 776.040039062 1371.12011719 776.040039062 1342.70019531 716.299804688 c 4,93,94
 1304.08734905 635.133484263 1304.08734905 635.133484263 1193.63964844 592.1796875 c 4,95,96
 1162.3203125 580 1162.3203125 580 1141.44042969 576.51953125 c 6,97,-1
 1090.40039062 568.400390625 l 5,98,-1
 1305 465.16015625 l 5,66,67
1184.36035156 356.120117188 m 4,99,100
 1156.51953125 359.599609375 1156.51953125 359.599609375 1097.93994141 359.599609375 c 132,-1,101
 1039.36035156 359.599609375 1039.36035156 359.599609375 476.759765625 352.639648438 c 5,102,103
 346.83984375 352.639648438 346.83984375 352.639648438 308.559570312 357.280273438 c 4,104,105
 150.799804688 377 150.799804688 377 112.51953125 400.200195312 c 4,106,107
 107.879882812 403.6796875 107.879882812 403.6796875 99.1801757812 403.6796875 c 132,-1,108
 90.48046875 403.6796875 90.48046875 403.6796875 85.259765625 393.8203125 c 132,-1,109
 80.0400390625 383.959960938 80.0400390625 383.959960938 82.3603515625 368.879882812 c 4,110,111
 90.48046875 324.799804688 90.48046875 324.799804688 148.48046875 291.16015625 c 132,-1,112
 206.48046875 257.51953125 206.48046875 257.51953125 310.880371094 239.539550781 c 132,-1,113
 415.280273438 221.559570312 415.280273438 221.559570312 540.559570312 221.559570312 c 6,114,-1
 583.48046875 221.559570312 l 5,115,116
 722.6796875 225.040039062 722.6796875 225.040039062 947.719726562 225.040039062 c 132,-1,117
 1172.75976562 225.040039062 1172.75976562 225.040039062 1191.3203125 223.879882812 c 4,118,119
 1340.67562507 213.629802967 1340.67562507 213.629802967 1417.51953125 187.33984375 c 4,120,121
 1439.55957031 179.799804688 1439.55957031 179.799804688 1445.35986328 175.739746094 c 132,-1,122
 1451.16015625 171.6796875 1451.16015625 171.6796875 1454.63964844 171.6796875 c 4,123,124
 1468.55957031 171.6796875 1468.55957031 171.6796875 1468.55957031 196.619628906 c 132,-1,125
 1468.55957031 221.559570312 1468.55957031 221.559570312 1451.16015625 235.48046875 c 4,126,127
 1335.16015625 334.080078125 1335.16015625 334.080078125 1184.36035156 356.120117188 c 4,99,100
EndSplineSet
EndChar

StartChar: three
Encoding: 51 51 14
Width: 1533
VWidth: 1392
GlyphClass: 1
Flags: W
LayerCount: 2
Back
SplineSet
706 442 m 0,1,2
 725 442 725 442 723 454 c 0,3,4
 722 464 722 464 682.5 486 c 128,-1,5
 643 508 643 508 605 519 c 2,6,-1
 562 532 l 1,7,-1
 596 539 l 2,8,9
 656 552 656 552 712 594 c 128,-1,10
 768 636 768 636 786 682 c 0,11,12
 790 693 790 693 795 731 c 128,-1,13
 800 769 800 769 802 811 c 0,14,15
 806 885 806 885 816.5 919 c 128,-1,16
 827 953 827 953 850 966 c 0,17,18
 862 974 862 974 862 995 c 0,19,20
 862 1009 862 1009 856.5 1022.5 c 128,-1,21
 851 1036 851 1036 841 1043 c 0,22,23
 823 1057 823 1057 802 1057 c 0,24,25
 783 1057 783 1057 758 1044 c 0,26,27
 726 1027 726 1027 707 979.5 c 128,-1,28
 688 932 688 932 681 843 c 0,29,30
 672 739 672 739 647.5 687.5 c 128,-1,31
 623 636 623 636 568 604 c 0,32,33
 546 591 546 591 519 580.5 c 128,-1,34
 492 570 492 570 474 567 c 2,35,-1
 430 560 l 1,36,-1
 615 471 l 2,37,0
 678 442 678 442 706 442 c 0,1,2
306 172 m 0,39,40
 325 172 325 172 323 184 c 0,41,42
 322 194 322 194 282.5 216 c 128,-1,43
 243 238 243 238 205 249 c 2,44,-1
 162 262 l 1,45,-1
 196 269 l 2,46,47
 256 282 256 282 312 324 c 128,-1,48
 368 366 368 366 386 412 c 0,49,50
 390 423 390 423 395 461 c 128,-1,51
 400 499 400 499 402 541 c 0,52,53
 406 615 406 615 416.5 649 c 128,-1,54
 427 683 427 683 450 696 c 0,55,56
 462 704 462 704 462 725 c 0,57,58
 462 739 462 739 456.5 752.5 c 128,-1,59
 451 766 451 766 441 773 c 0,60,61
 423 787 423 787 402 787 c 0,62,63
 383 787 383 787 358 774 c 0,64,65
 326 757 326 757 307 709.5 c 128,-1,66
 288 662 288 662 281 573 c 0,67,68
 272 469 272 469 247.5 417.5 c 128,-1,69
 223 366 223 366 168 334 c 0,70,71
 146 321 146 321 119 310.5 c 128,-1,72
 92 300 92 300 74 297 c 2,73,-1
 30 290 l 1,74,-1
 215 201 l 2,75,38
 278 172 278 172 306 172 c 0,39,40
1096 172 m 0,77,78
 1115 172 1115 172 1113 184 c 0,79,80
 1112 194 1112 194 1072.5 216 c 128,-1,81
 1033 238 1033 238 995 249 c 2,82,-1
 952 262 l 1,83,-1
 986 269 l 2,84,85
 1046 282 1046 282 1102 324 c 128,-1,86
 1158 366 1158 366 1176 412 c 0,87,88
 1180 423 1180 423 1185 461 c 128,-1,89
 1190 499 1190 499 1192 541 c 0,90,91
 1196 615 1196 615 1206.5 649 c 128,-1,92
 1217 683 1217 683 1240 696 c 0,93,94
 1252 704 1252 704 1252 725 c 0,95,96
 1252 739 1252 739 1246.5 752.5 c 128,-1,97
 1241 766 1241 766 1231 773 c 0,98,99
 1213 787 1213 787 1192 787 c 0,100,101
 1173 787 1173 787 1148 774 c 0,102,103
 1116 757 1116 757 1097 709.5 c 128,-1,104
 1078 662 1078 662 1071 573 c 0,105,106
 1062 469 1062 469 1037.5 417.5 c 128,-1,107
 1013 366 1013 366 958 334 c 0,108,109
 936 321 936 321 909 310.5 c 128,-1,110
 882 300 882 300 864 297 c 2,111,-1
 820 290 l 1,112,-1
 1005 201 l 2,113,76
 1068 172 1068 172 1096 172 c 0,77,78
562 172 m 0,115,116
 589 172 589 172 597 176 c 0,117,118
 608 180 608 180 608 189 c 0,119,120
 608 199 608 199 596 203 c 0,121,122
 585 207 585 207 577 223 c 128,-1,123
 569 239 569 239 553 293 c 0,124,125
 542 330 542 330 532 348 c 128,-1,126
 522 366 522 366 507 374 c 128,-1,127
 492 382 492 382 465 386 c 0,128,129
 446 389 446 389 428 389 c 0,130,131
 407 389 407 389 392.5 385 c 128,-1,132
 378 381 378 381 375 374 c 2,133,-1
 375 372 l 2,134,135
 375 369 375 369 379 365 c 128,-1,136
 383 361 383 361 390 359 c 0,137,138
 403 354 403 354 411 338 c 128,-1,139
 419 322 419 322 436 266 c 0,140,141
 448 226 448 226 462.5 206 c 128,-1,142
 477 186 477 186 501 179 c 0,143,114
 522 172 522 172 562 172 c 0,115,116
762 172 m 0,145,146
 789 172 789 172 797 176 c 0,147,148
 808 180 808 180 808 189 c 0,149,150
 808 199 808 199 796 203 c 0,151,152
 785 207 785 207 777 223 c 128,-1,153
 769 239 769 239 753 293 c 0,154,155
 742 330 742 330 732 348 c 128,-1,156
 722 366 722 366 707 374 c 128,-1,157
 692 382 692 382 665 386 c 0,158,159
 646 389 646 389 628 389 c 0,160,161
 607 389 607 389 592.5 385 c 128,-1,162
 578 381 578 381 575 374 c 2,163,-1
 575 372 l 2,164,165
 575 369 575 369 579 365 c 128,-1,166
 583 361 583 361 590 359 c 0,167,168
 603 354 603 354 611 338 c 128,-1,169
 619 322 619 322 636 266 c 0,170,171
 648 226 648 226 662.5 206 c 128,-1,172
 677 186 677 186 701 179 c 0,173,144
 722 172 722 172 762 172 c 0,145,146
1214 -52 m 0,175,176
 1220 -52 1220 -52 1223 -46.5 c 128,-1,177
 1226 -41 1226 -41 1226 -32 c 0,178,179
 1226 -9 1226 -9 1211 3 c 0,180,181
 1111 88 1111 88 981 107 c 0,182,183
 957 110 957 110 856 110 c 0,184,185
 740 110 740 110 610 107 c 0,186,187
 479 104 479 104 371 104 c 0,188,189
 259 104 259 104 226 108 c 0,190,191
 90 125 90 125 57 145 c 0,192,193
 53 148 53 148 47 148 c 0,194,195
 38 148 38 148 33.5 139.5 c 128,-1,196
 29 131 29 131 31 118 c 0,197,198
 38 80 38 80 88 51 c 128,-1,199
 138 22 138 22 223 7 c 0,200,201
 318 -9 318 -9 426 -9 c 2,202,-1
 463 -9 l 2,203,204
 583 -6 583 -6 850 -6 c 0,205,206
 971 -6 971 -6 987 -7 c 0,207,208
 1089 -14 1089 -14 1145 -28 c 0,209,210
 1163 -32 1163 -32 1182 -38.5 c 128,-1,211
 1201 -45 1201 -45 1206 -49 c 0,212,174
 1211 -52 1211 -52 1214 -52 c 0,175,176
EndSplineSet
Fore
SplineSet
759.799804688 778.360351562 m 5,0,1
 832.879882812 744.719726562 832.879882812 744.719726562 860.140136719 744.719726562 c 132,-1,2
 887.400390625 744.719726562 887.400390625 744.719726562 885.080078125 758.639648438 c 4,3,4
 883.919921875 770.240234375 883.919921875 770.240234375 838.099609375 795.759765625 c 132,-1,5
 792.280273438 821.280273438 792.280273438 821.280273438 748.200195312 834.040039062 c 6,6,-1
 698.3203125 849.120117188 l 5,7,-1
 737.759765625 857.240234375 l 6,8,9
 807.360351562 872.3203125 807.360351562 872.3203125 872.3203125 921.040039062 c 132,-1,10
 937.280273438 969.759765625 937.280273438 969.759765625 958.16015625 1023.12011719 c 4,11,12
 962.799804688 1035.87988281 962.799804688 1035.87988281 968.599609375 1079.95996094 c 132,-1,13
 974.400390625 1124.04003906 974.400390625 1124.04003906 977.880371094 1191.31982422 c 132,-1,14
 981.360351562 1258.59960938 981.360351562 1258.59960938 993.540039062 1298.04003906 c 132,-1,15
 1005.71972656 1337.48046875 1005.71972656 1337.48046875 1032.40039062 1352.55957031 c 4,16,17
 1046.3203125 1361.83984375 1046.3203125 1361.83984375 1046.3203125 1382.14013672 c 4,18,19
 1046.3203125 1424.82681637 1046.3203125 1424.82681637 1021.95996094 1441.87988281 c 4,20,21
 1001.08007812 1458.12011719 1001.08007812 1458.12011719 977.879882812 1458.12011719 c 132,-1,22
 954.6796875 1458.12011719 954.6796875 1458.12011719 921.619628906 1440.72021484 c 4,23,24
 851.61881222 1403.87795182 851.61881222 1403.87795182 836.360351562 1209.87988281 c 4,25,26
 825.919921875 1089.24023438 825.919921875 1089.24023438 797.5 1029.5 c 4,27,28
 758.885703629 948.330631358 758.885703629 948.330631358 648.440429688 905.379882812 c 4,29,30
 617.120117188 893.200195312 617.120117188 893.200195312 596.240234375 889.719726562 c 6,31,-1
 545.200195312 881.599609375 l 5,32,-1
 759.799804688 778.360351562 l 5,0,1
295.799804688 465.16015625 m 5,33,34
 368.879882812 431.51953125 368.879882812 431.51953125 396.140136719 431.51953125 c 132,-1,35
 423.400390625 431.51953125 423.400390625 431.51953125 421.080078125 445.440429688 c 4,36,37
 419.919921875 457.040039062 419.919921875 457.040039062 374.099609375 482.559570312 c 132,-1,38
 328.280273438 508.080078125 328.280273438 508.080078125 284.200195312 520.83984375 c 6,39,-1
 234.3203125 535.919921875 l 5,40,-1
 273.759765625 544.040039062 l 6,41,42
 343.360351562 559.120117188 343.360351562 559.120117188 408.3203125 607.83984375 c 132,-1,43
 473.280273438 656.559570312 473.280273438 656.559570312 494.16015625 709.919921875 c 4,44,45
 498.799804688 722.6796875 498.799804688 722.6796875 504.599609375 766.759765625 c 132,-1,46
 510.400390625 810.83984375 510.400390625 810.83984375 513.880371094 878.120117188 c 132,-1,47
 517.360351562 945.400390625 517.360351562 945.400390625 529.540039062 984.83984375 c 132,-1,48
 541.719726562 1024.28027344 541.719726562 1024.28027344 568.400390625 1039.36035156 c 4,49,50
 582.3203125 1048.63964844 582.3203125 1048.63964844 582.3203125 1068.93994141 c 4,51,52
 582.3203125 1111.62662105 582.3203125 1111.62662105 557.959960938 1128.6796875 c 4,53,54
 537.080078125 1144.91992188 537.080078125 1144.91992188 513.879882812 1144.91992188 c 132,-1,55
 490.6796875 1144.91992188 490.6796875 1144.91992188 457.619628906 1127.52001953 c 4,56,57
 387.61881222 1090.67775651 387.61881222 1090.67775651 372.360351562 896.6796875 c 4,58,59
 361.919921875 776.040039062 361.919921875 776.040039062 333.5 716.299804688 c 4,60,61
 294.887713844 635.134661629 294.887713844 635.134661629 184.440429688 592.1796875 c 4,62,63
 153.120117188 580 153.120117188 580 132.240234375 576.51953125 c 6,64,-1
 81.2001953125 568.400390625 l 5,65,-1
 295.799804688 465.16015625 l 5,33,34
1212.20019531 465.16015625 m 5,66,67
 1285.28027344 431.51953125 1285.28027344 431.51953125 1312.54003906 431.51953125 c 132,-1,68
 1339.79980469 431.51953125 1339.79980469 431.51953125 1337.48046875 445.440429688 c 4,69,70
 1336.3203125 457.040039062 1336.3203125 457.040039062 1290.5 482.559570312 c 132,-1,71
 1244.6796875 508.080078125 1244.6796875 508.080078125 1200.59960938 520.83984375 c 6,72,-1
 1150.71972656 535.919921875 l 5,73,-1
 1190.16015625 544.040039062 l 6,74,75
 1259.75976562 559.120117188 1259.75976562 559.120117188 1324.71972656 607.83984375 c 132,-1,76
 1389.6796875 656.559570312 1389.6796875 656.559570312 1410.55957031 709.919921875 c 4,77,78
 1415.20019531 722.6796875 1415.20019531 722.6796875 1421 766.759765625 c 132,-1,79
 1426.79980469 810.83984375 1426.79980469 810.83984375 1430.27978516 878.120117188 c 132,-1,80
 1433.75976562 945.400390625 1433.75976562 945.400390625 1445.94042969 984.83984375 c 132,-1,81
 1458.12011719 1024.28027344 1458.12011719 1024.28027344 1484.79980469 1039.36035156 c 4,82,83
 1498.71972656 1048.63964844 1498.71972656 1048.63964844 1498.71972656 1068.93994141 c 4,84,85
 1498.71972656 1111.62730468 1498.71972656 1111.62730468 1474.36035156 1128.6796875 c 4,86,87
 1453.48046875 1144.91992188 1453.48046875 1144.91992188 1430.28027344 1144.91992188 c 132,-1,88
 1407.08007812 1144.91992188 1407.08007812 1144.91992188 1374.02001953 1127.52001953 c 4,89,90
 1304.01818411 1090.67722033 1304.01818411 1090.67722033 1288.75976562 896.6796875 c 4,91,92
 1278.3203125 776.040039062 1278.3203125 776.040039062 1249.90039062 716.299804688 c 4,93,94
 1211.28754437 635.133484263 1211.28754437 635.133484263 1100.83984375 592.1796875 c 4,95,96
 1069.51953125 580 1069.51953125 580 1048.63964844 576.51953125 c 6,97,-1
 997.599609375 568.400390625 l 5,98,-1
 1212.20019531 465.16015625 l 5,66,67
481.400390625 665.83984375 m 5,99,-1
 481.400390625 663.51953125 l 6,100,101
 481.400390625 660.040039062 481.400390625 660.040039062 486.040039062 655.400390625 c 132,-1,102
 490.6796875 650.759765625 490.6796875 650.759765625 502.279785156 646.699707031 c 132,-1,103
 513.879882812 642.639648438 513.879882812 642.639648438 523.16015625 624.080078125 c 132,-1,104
 532.440429688 605.51953125 532.440429688 605.51953125 549.260253906 549.83984375 c 132,-1,105
 566.080078125 494.16015625 566.080078125 494.16015625 582.900390625 470.959960938 c 132,-1,106
 599.719726562 447.759765625 599.719726562 447.759765625 625.819824219 439.639648438 c 132,-1,107
 651.919921875 431.51953125 651.919921875 431.51953125 701.799804688 431.51953125 c 132,-1,108
 751.6796875 431.51953125 751.6796875 431.51953125 751.6796875 451.240234375 c 4,109,110
 751.6796875 462.83984375 751.6796875 462.83984375 738.33984375 467.479980469 c 132,-1,111
 725 472.120117188 725 472.120117188 715.719726562 490.6796875 c 132,-1,112
 706.440429688 509.240234375 706.440429688 509.240234375 690.780273438 562.020019531 c 132,-1,113
 675.120117188 614.799804688 675.120117188 614.799804688 663.51953125 635.6796875 c 132,-1,114
 651.919921875 656.559570312 651.919921875 656.559570312 634.51953125 665.83984375 c 4,115,116
 601.89585875 683.240234375 601.89585875 683.240234375 545.376181921 683.240234375 c 132,-1,117
 488.856505092 683.240234375 488.856505092 683.240234375 481.400390625 665.83984375 c 5,99,-1
713.400390625 665.83984375 m 5,118,-1
 713.400390625 663.51953125 l 6,119,120
 713.400390625 660.040039062 713.400390625 660.040039062 718.040039062 655.400390625 c 132,-1,121
 722.6796875 650.759765625 722.6796875 650.759765625 734.279785156 646.699707031 c 132,-1,122
 745.879882812 642.639648438 745.879882812 642.639648438 755.16015625 624.080078125 c 132,-1,123
 764.440429688 605.51953125 764.440429688 605.51953125 781.260253906 549.83984375 c 132,-1,124
 798.080078125 494.16015625 798.080078125 494.16015625 814.900390625 470.959960938 c 132,-1,125
 831.719726562 447.759765625 831.719726562 447.759765625 857.819824219 439.639648438 c 132,-1,126
 883.919921875 431.51953125 883.919921875 431.51953125 933.799804688 431.51953125 c 132,-1,127
 983.6796875 431.51953125 983.6796875 431.51953125 983.6796875 451.240234375 c 4,128,129
 983.6796875 462.83984375 983.6796875 462.83984375 970.33984375 467.479980469 c 132,-1,130
 957 472.120117188 957 472.120117188 947.719726562 490.6796875 c 132,-1,131
 938.440429688 509.240234375 938.440429688 509.240234375 922.780273438 562.020019531 c 132,-1,132
 907.120117188 614.799804688 907.120117188 614.799804688 895.51953125 635.6796875 c 132,-1,133
 883.919921875 656.559570312 883.919921875 656.559570312 866.51953125 665.83984375 c 4,134,135
 833.89585875 683.240234375 833.89585875 683.240234375 777.376181921 683.240234375 c 132,-1,136
 720.856505092 683.240234375 720.856505092 683.240234375 713.400390625 665.83984375 c 5,118,-1
1184.36035156 356.120117188 m 4,137,138
 1156.51953125 359.599609375 1156.51953125 359.599609375 1097.93994141 359.599609375 c 132,-1,139
 1039.36035156 359.599609375 1039.36035156 359.599609375 476.759765625 352.639648438 c 5,140,141
 346.83984375 352.639648438 346.83984375 352.639648438 308.559570312 357.280273438 c 4,142,143
 150.799804688 377 150.799804688 377 112.51953125 400.200195312 c 4,144,145
 107.879882812 403.6796875 107.879882812 403.6796875 99.1801757812 403.6796875 c 132,-1,146
 90.48046875 403.6796875 90.48046875 403.6796875 85.259765625 393.8203125 c 132,-1,147
 80.0400390625 383.959960938 80.0400390625 383.959960938 82.3603515625 368.879882812 c 4,148,149
 90.48046875 324.799804688 90.48046875 324.799804688 148.48046875 291.16015625 c 132,-1,150
 206.48046875 257.51953125 206.48046875 257.51953125 310.880371094 239.539550781 c 132,-1,151
 415.280273438 221.559570312 415.280273438 221.559570312 540.559570312 221.559570312 c 6,152,-1
 583.48046875 221.559570312 l 5,153,154
 722.6796875 225.040039062 722.6796875 225.040039062 947.719726562 225.040039062 c 132,-1,155
 1172.75976562 225.040039062 1172.75976562 225.040039062 1191.3203125 223.879882812 c 4,156,157
 1340.67562507 213.629802967 1340.67562507 213.629802967 1417.51953125 187.33984375 c 4,158,159
 1439.55957031 179.799804688 1439.55957031 179.799804688 1445.35986328 175.739746094 c 132,-1,160
 1451.16015625 171.6796875 1451.16015625 171.6796875 1454.63964844 171.6796875 c 4,161,162
 1468.55957031 171.6796875 1468.55957031 171.6796875 1468.55957031 196.619628906 c 132,-1,163
 1468.55957031 221.559570312 1468.55957031 221.559570312 1451.16015625 235.48046875 c 4,164,165
 1335.16015625 334.080078125 1335.16015625 334.080078125 1184.36035156 356.120117188 c 4,137,138
EndSplineSet
EndChar

StartChar: four
Encoding: 52 52 15
Width: 1503
VWidth: 1392
GlyphClass: 1
Flags: W
LayerCount: 2
Back
SplineSet
718 413 m 0,1,2
 737 413 737 413 735 425 c 0,3,4
 734 435 734 435 694.5 457 c 128,-1,5
 655 479 655 479 617 490 c 2,6,-1
 574 503 l 1,7,-1
 608 510 l 2,8,9
 668 523 668 523 724 565 c 128,-1,10
 780 607 780 607 798 653 c 0,11,12
 802 664 802 664 807 702 c 128,-1,13
 812 740 812 740 814 782 c 0,14,15
 818 856 818 856 828.5 890 c 128,-1,16
 839 924 839 924 862 937 c 0,17,18
 874 945 874 945 874 966 c 0,19,20
 874 980 874 980 868.5 993.5 c 128,-1,21
 863 1007 863 1007 853 1014 c 0,22,23
 835 1028 835 1028 814 1028 c 0,24,25
 795 1028 795 1028 770 1015 c 0,26,27
 738 998 738 998 719 950.5 c 128,-1,28
 700 903 700 903 693 814 c 0,29,30
 684 710 684 710 659.5 658.5 c 128,-1,31
 635 607 635 607 580 575 c 0,32,33
 558 562 558 562 531 551.5 c 128,-1,34
 504 541 504 541 486 538 c 2,35,-1
 442 531 l 1,36,-1
 627 442 l 2,37,0
 690 413 690 413 718 413 c 0,1,2
306 172 m 0,39,40
 325 172 325 172 323 184 c 0,41,42
 322 194 322 194 282.5 216 c 128,-1,43
 243 238 243 238 205 249 c 2,44,-1
 162 262 l 1,45,-1
 196 269 l 2,46,47
 256 282 256 282 312 324 c 128,-1,48
 368 366 368 366 386 412 c 0,49,50
 390 423 390 423 395 461 c 128,-1,51
 400 499 400 499 402 541 c 0,52,53
 406 615 406 615 416.5 649 c 128,-1,54
 427 683 427 683 450 696 c 0,55,56
 462 704 462 704 462 725 c 0,57,58
 462 739 462 739 456.5 752.5 c 128,-1,59
 451 766 451 766 441 773 c 0,60,61
 423 787 423 787 402 787 c 0,62,63
 383 787 383 787 358 774 c 0,64,65
 326 757 326 757 307 709.5 c 128,-1,66
 288 662 288 662 281 573 c 0,67,68
 272 469 272 469 247.5 417.5 c 128,-1,69
 223 366 223 366 168 334 c 0,70,71
 146 321 146 321 119 310.5 c 128,-1,72
 92 300 92 300 74 297 c 2,73,-1
 30 290 l 1,74,-1
 215 201 l 2,75,38
 278 172 278 172 306 172 c 0,39,40
1176 172 m 0,77,78
 1195 172 1195 172 1193 184 c 0,79,80
 1192 194 1192 194 1152.5 216 c 128,-1,81
 1113 238 1113 238 1075 249 c 2,82,-1
 1032 262 l 1,83,-1
 1066 269 l 2,84,85
 1126 282 1126 282 1182 324 c 128,-1,86
 1238 366 1238 366 1256 412 c 0,87,88
 1260 423 1260 423 1265 461 c 128,-1,89
 1270 499 1270 499 1272 541 c 0,90,91
 1276 615 1276 615 1286.5 649 c 128,-1,92
 1297 683 1297 683 1320 696 c 0,93,94
 1332 704 1332 704 1332 725 c 0,95,96
 1332 739 1332 739 1326.5 752.5 c 128,-1,97
 1321 766 1321 766 1311 773 c 0,98,99
 1293 787 1293 787 1272 787 c 0,100,101
 1253 787 1253 787 1228 774 c 0,102,103
 1196 757 1196 757 1177 709.5 c 128,-1,104
 1158 662 1158 662 1151 573 c 0,105,106
 1142 469 1142 469 1117.5 417.5 c 128,-1,107
 1093 366 1093 366 1038 334 c 0,108,109
 1016 321 1016 321 989 310.5 c 128,-1,110
 962 300 962 300 944 297 c 2,111,-1
 900 290 l 1,112,-1
 1085 201 l 2,113,76
 1148 172 1148 172 1176 172 c 0,77,78
649 186 m 0,115,116
 676 186 676 186 684 190 c 0,117,118
 695 194 695 194 695 203 c 0,119,120
 695 213 695 213 683 217 c 0,121,122
 672 221 672 221 664 237 c 128,-1,123
 656 253 656 253 640 307 c 0,124,125
 629 344 629 344 619 362 c 128,-1,126
 609 380 609 380 594 388 c 128,-1,127
 579 396 579 396 552 400 c 0,128,129
 532 403 532 403 515 403 c 0,130,131
 494 403 494 403 479.5 399 c 128,-1,132
 465 395 465 395 462 388 c 2,133,-1
 462 386 l 2,134,135
 462 383 462 383 466 379 c 128,-1,136
 470 375 470 375 477 373 c 0,137,138
 490 368 490 368 498 352 c 128,-1,139
 506 336 506 336 523 280 c 0,140,141
 535 240 535 240 549.5 220 c 128,-1,142
 564 200 564 200 588 193 c 0,143,114
 609 186 609 186 649 186 c 0,115,116
1214 -52 m 0,145,146
 1220 -52 1220 -52 1223 -46.5 c 128,-1,147
 1226 -41 1226 -41 1226 -32 c 0,148,149
 1226 -9 1226 -9 1211 3 c 0,150,151
 1111 88 1111 88 981 107 c 0,152,153
 957 110 957 110 856 110 c 0,154,155
 740 110 740 110 610 107 c 0,156,157
 479 104 479 104 371 104 c 0,158,159
 259 104 259 104 226 108 c 0,160,161
 90 125 90 125 57 145 c 0,162,163
 53 148 53 148 47 148 c 0,164,165
 38 148 38 148 33.5 139.5 c 128,-1,166
 29 131 29 131 31 118 c 0,167,168
 38 80 38 80 88 51 c 128,-1,169
 138 22 138 22 223 7 c 0,170,171
 318 -9 318 -9 426 -9 c 2,172,-1
 463 -9 l 2,173,174
 583 -6 583 -6 850 -6 c 0,175,176
 971 -6 971 -6 987 -7 c 0,177,178
 1089 -14 1089 -14 1145 -28 c 0,179,180
 1163 -32 1163 -32 1182 -38.5 c 128,-1,181
 1201 -45 1201 -45 1206 -49 c 0,182,144
 1211 -52 1211 -52 1214 -52 c 0,145,146
EndSplineSet
Fore
SplineSet
773.719726562 744.719726562 m 1,0,1
 846.799804688 711.080078125 846.799804688 711.080078125 874.060058594 711.080078125 c 128,-1,2
 901.3203125 711.080078125 901.3203125 711.080078125 899 725 c 0,3,4
 897.83984375 736.599609375 897.83984375 736.599609375 852.01953125 762.120117188 c 128,-1,5
 806.200195312 787.639648438 806.200195312 787.639648438 762.120117188 800.400390625 c 2,6,-1
 712.240234375 815.48046875 l 1,7,-1
 751.6796875 823.599609375 l 2,8,9
 821.280273438 838.6796875 821.280273438 838.6796875 886.240234375 887.400390625 c 128,-1,10
 951.200195312 936.120117188 951.200195312 936.120117188 972.080078125 989.48046875 c 0,11,12
 984.927925134 1024.81407622 984.927925134 1024.81407622 990.104099286 1124.88701858 c 128,-1,13
 995.280273438 1224.95996094 995.280273438 1224.95996094 1007.45996094 1264.40039062 c 128,-1,14
 1019.63964844 1303.83984375 1019.63964844 1303.83984375 1046.3203125 1318.91992188 c 0,15,16
 1060.24023438 1328.20019531 1060.24023438 1328.20019531 1060.24023438 1348.5 c 0,17,18
 1060.24023438 1391.18860349 1060.24023438 1391.18860349 1035.87988281 1408.24023438 c 0,19,20
 1015 1424.48046875 1015 1424.48046875 991.799804688 1424.48046875 c 128,-1,21
 968.599609375 1424.48046875 968.599609375 1424.48046875 935.540039062 1407.08007812 c 0,22,23
 865.538543468 1370.23587972 865.538543468 1370.23587972 850.280273438 1176.24023438 c 0,24,25
 839.83984375 1055.59960938 839.83984375 1055.59960938 811.419921875 995.860351562 c 0,26,27
 772.805625504 914.69098292 772.805625504 914.69098292 662.360351562 871.740234375 c 0,28,29
 631.040039062 859.559570312 631.040039062 859.559570312 610.16015625 856.080078125 c 2,30,-1
 559.120117188 847.959960938 l 1,31,-1
 773.719726562 744.719726562 l 1,0,1
295.799804688 465.16015625 m 1,32,33
 368.879882812 431.51953125 368.879882812 431.51953125 396.140136719 431.51953125 c 128,-1,34
 423.400390625 431.51953125 423.400390625 431.51953125 421.080078125 445.440429688 c 0,35,36
 419.919921875 457.040039062 419.919921875 457.040039062 374.099609375 482.559570312 c 128,-1,37
 328.280273438 508.080078125 328.280273438 508.080078125 284.200195312 520.83984375 c 2,38,-1
 234.3203125 535.919921875 l 1,39,-1
 273.759765625 544.040039062 l 2,40,41
 343.360351562 559.120117188 343.360351562 559.120117188 408.3203125 607.83984375 c 128,-1,42
 473.280273438 656.559570312 473.280273438 656.559570312 494.16015625 709.919921875 c 0,43,44
 507.008031961 745.25360826 507.008031961 745.25360826 512.184191761 845.326999443 c 128,-1,45
 517.360351562 945.400390625 517.360351562 945.400390625 529.540039062 984.83984375 c 128,-1,46
 541.719726562 1024.28027344 541.719726562 1024.28027344 568.400390625 1039.36035156 c 0,47,48
 582.3203125 1048.63964844 582.3203125 1048.63964844 582.3203125 1068.93994141 c 0,49,50
 582.3203125 1111.62662105 582.3203125 1111.62662105 557.959960938 1128.6796875 c 0,51,52
 537.080078125 1144.91992188 537.080078125 1144.91992188 513.879882812 1144.91992188 c 128,-1,53
 490.6796875 1144.91992188 490.6796875 1144.91992188 457.619628906 1127.52001953 c 0,54,55
 387.61881222 1090.67775651 387.61881222 1090.67775651 372.360351562 896.6796875 c 0,56,57
 361.919921875 776.040039062 361.919921875 776.040039062 333.5 716.299804688 c 0,58,59
 294.887713844 635.134661629 294.887713844 635.134661629 184.440429688 592.1796875 c 0,60,61
 153.120117188 580 153.120117188 580 132.240234375 576.51953125 c 2,62,-1
 81.2001953125 568.400390625 l 1,63,-1
 295.799804688 465.16015625 l 1,32,33
1145 465.16015625 m 1,64,65
 1218 432 1218 432 1245 432 c 128,-1,66
 1272 432 1272 432 1270.28027344 445.440429688 c 0,67,68
 1269 457 1269 457 1223.89156963 482.059821594 c 128,-1,69
 1178.78313925 507.119643188 1178.78313925 507.119643188 1133.40039062 520.83984375 c 2,70,-1
 1083.51953125 535.919921875 l 1,71,-1
 1122.95996094 544.040039062 l 2,72,73
 1191 558 1191 558 1258 608.5 c 128,-1,74
 1325 659 1325 659 1341.07293634 703.892003646 c 128,-1,76
 1357.14587268 748.784007291 1357.14587268 748.784007291 1362.07293634 846.892003646 c 128,-1,77
 1367 945 1367 945 1378.5 983 c 128,-1,78
 1390 1021 1390 1021 1417.59960938 1039.36035156 c 0,79,80
 1432 1049 1432 1049 1431.51953125 1068.94042969 c 0,81,82
 1432 1109 1432 1109 1409 1127 c 128,-1,83
 1386 1145 1386 1145 1363.08007812 1144.91992188 c 128,-1,84
 1340 1145 1340 1145 1306.8203125 1127.51953125 c 0,85,86
 1238 1092 1238 1092 1221.55957031 896.6796875 c 0,87,88
 1211 776 1211 776 1182.70019531 716.299804688 c 0,89,90
 1142 632 1142 632 1033.63964844 592.1796875 c 0,91,92
 996.973352693 578.990414669 996.973352693 578.990414669 981.440429688 576.51953125 c 2,93,-1
 930.400390625 568.400390625 l 1,94,-1
 1145 465.16015625 l 1,64,65
582.3203125 682.080078125 m 1,95,-1
 582.3203125 679.759765625 l 2,96,97
 582.3203125 670.247773436 582.3203125 670.247773436 598.560058594 664.563828124 c 128,-1,98
 614.799804688 658.879882812 614.799804688 658.879882812 624.080078125 640.3203125 c 128,-1,99
 633.360351562 621.759765625 633.360351562 621.759765625 650.180175781 566.080078125 c 128,-1,100
 667 510.400390625 667 510.400390625 683.8203125 487.200195312 c 128,-1,101
 700.639648438 464 700.639648438 464 726.739746094 455.879882812 c 128,-1,102
 752.83984375 447.759765625 752.83984375 447.759765625 802.719726562 447.759765625 c 128,-1,103
 852.599609375 447.759765625 852.599609375 447.759765625 852.599609375 467.48046875 c 0,104,105
 852.599609375 479.080078125 852.599609375 479.080078125 839.259765625 483.720214844 c 128,-1,106
 825.919921875 488.360351562 825.919921875 488.360351562 816.639648438 506.919921875 c 128,-1,107
 807.360351562 525.48046875 807.360351562 525.48046875 791.700195312 578.260253906 c 128,-1,108
 776.040039062 631.040039062 776.040039062 631.040039062 764.440429688 651.919921875 c 128,-1,109
 752.83984375 672.799804688 752.83984375 672.799804688 727.827384948 686.140136719 c 128,-1,110
 702.814926146 699.48046875 702.814926146 699.48046875 646.295676557 699.48046875 c 128,-1,111
 589.776426967 699.48046875 589.776426967 699.48046875 582.3203125 682.080078125 c 1,95,-1
1184.36035156 356.120117188 m 0,112,113
 1156.51953125 359.599609375 1156.51953125 359.599609375 1097.93994141 359.599609375 c 128,-1,114
 1039.36035156 359.599609375 1039.36035156 359.599609375 476.759765625 352.639648438 c 1,115,116
 346.83984375 352.639648438 346.83984375 352.639648438 308.559570312 357.280273438 c 0,117,118
 150.799804688 377 150.799804688 377 112.51953125 400.200195312 c 0,119,120
 107.879882812 403.6796875 107.879882812 403.6796875 99.1801757812 403.6796875 c 128,-1,121
 90.48046875 403.6796875 90.48046875 403.6796875 85.259765625 393.8203125 c 128,-1,122
 80.0400390625 383.959960938 80.0400390625 383.959960938 82.3603515625 368.879882812 c 0,123,124
 90.48046875 324.799804688 90.48046875 324.799804688 148.48046875 291.16015625 c 128,-1,125
 206.48046875 257.51953125 206.48046875 257.51953125 310.880371094 239.539550781 c 128,-1,126
 415.280273438 221.559570312 415.280273438 221.559570312 540.559570312 221.559570312 c 2,127,-1
 583.48046875 221.559570312 l 1,128,129
 722.6796875 225.040039062 722.6796875 225.040039062 947.719726562 225.040039062 c 128,-1,130
 1172.75976562 225.040039062 1172.75976562 225.040039062 1191.3203125 223.879882812 c 0,131,132
 1340.67562507 213.629802967 1340.67562507 213.629802967 1417.51953125 187.33984375 c 0,133,134
 1439.55957031 179.799804688 1439.55957031 179.799804688 1445.35986328 175.739746094 c 128,-1,135
 1451.16015625 171.6796875 1451.16015625 171.6796875 1454.63964844 171.6796875 c 0,136,137
 1468.55957031 171.6796875 1468.55957031 171.6796875 1468.55957031 196.619628906 c 128,-1,138
 1468.55957031 221.559570312 1468.55957031 221.559570312 1451.16015625 235.48046875 c 0,139,140
 1335.16015625 334.080078125 1335.16015625 334.080078125 1184.36035156 356.120117188 c 0,112,113
EndSplineSet
EndChar

StartChar: braceleft
Encoding: 123 123 16
Width: 46
VWidth: 1392
GlyphClass: 1
Flags: W
LayerCount: 2
Back
SplineSet
-261 -122.5 m 128,-1,1
 -243 -125 -243 -125 -218 -125 c 0,2,3
 -186 -125 -186 -125 -174.5 -123.5 c 128,-1,4
 -163 -122 -163 -122 -157.5 -115.5 c 128,-1,5
 -152 -109 -152 -109 -144 -91 c 0,6,7
 -138 -77 -138 -77 -128.5 -63.5 c 128,-1,8
 -119 -50 -119 -50 -112 -46 c 0,9,10
 -102 -40 -102 -40 -112 -38 c 128,-1,11
 -122 -36 -122 -36 -161 -35 c 0,12,13
 -197 -35 -197 -35 -209.5 -36.5 c 128,-1,14
 -222 -38 -222 -38 -227.5 -43.5 c 128,-1,15
 -233 -49 -233 -49 -238 -65 c 0,16,17
 -243 -78 -243 -78 -250 -88.5 c 128,-1,18
 -257 -99 -257 -99 -264 -101 c 0,19,20
 -270 -103 -270 -103 -274.5 -107.5 c 128,-1,21
 -279 -112 -279 -112 -279 -116 c 256,22,0
 -279 -120 -279 -120 -261 -122.5 c 128,-1,1
-76 -122.5 m 128,-1,24
 -58 -125 -58 -125 -33 -125 c 0,25,26
 -1 -125 -1 -125 10.5 -123.5 c 128,-1,27
 22 -122 22 -122 27.5 -115.5 c 128,-1,28
 33 -109 33 -109 41 -91 c 0,29,30
 47 -77 47 -77 56.5 -63.5 c 128,-1,31
 66 -50 66 -50 73 -46 c 0,32,33
 83 -40 83 -40 73 -38 c 128,-1,34
 63 -36 63 -36 24 -35 c 0,35,36
 -12 -35 -12 -35 -24.5 -36.5 c 128,-1,37
 -37 -38 -37 -38 -42.5 -43.5 c 128,-1,38
 -48 -49 -48 -49 -53 -65 c 0,39,40
 -58 -78 -58 -78 -65 -88.5 c 128,-1,41
 -72 -99 -72 -99 -79 -101 c 0,42,43
 -85 -103 -85 -103 -89.5 -107.5 c 128,-1,44
 -94 -112 -94 -112 -94 -116 c 256,45,23
 -94 -120 -94 -120 -76 -122.5 c 128,-1,24
109 -122.5 m 128,-1,47
 127 -125 127 -125 152 -125 c 0,48,49
 184 -125 184 -125 195.5 -123.5 c 128,-1,50
 207 -122 207 -122 212.5 -115.5 c 128,-1,51
 218 -109 218 -109 226 -91 c 0,52,53
 232 -77 232 -77 241.5 -63.5 c 128,-1,54
 251 -50 251 -50 258 -46 c 0,55,56
 268 -40 268 -40 258 -38 c 128,-1,57
 248 -36 248 -36 209 -35 c 0,58,59
 173 -35 173 -35 160.5 -36.5 c 128,-1,60
 148 -38 148 -38 142.5 -43.5 c 128,-1,61
 137 -49 137 -49 132 -65 c 0,62,63
 127 -78 127 -78 120 -88.5 c 128,-1,64
 113 -99 113 -99 106 -101 c 0,65,66
 100 -103 100 -103 95.5 -107.5 c 128,-1,67
 91 -112 91 -112 91 -116 c 256,68,46
 91 -120 91 -120 109 -122.5 c 128,-1,47
668 -349 m 0,70,71
 726 -349 726 -349 780 -337 c 0,72,73
 834 -326 834 -326 860 -308 c 128,-1,74
 886 -290 886 -290 886 -262 c 0,75,76
 886 -248 886 -248 881 -235 c 0,77,78
 872 -211 872 -211 843.5 -194 c 128,-1,79
 815 -177 815 -177 784 -177 c 0,80,81
 770 -177 770 -177 759 -181 c 0,82,83
 746 -186 746 -186 746 -198 c 0,84,85
 746 -208 746 -208 759 -232 c 0,86,87
 769 -249 769 -249 769 -263 c 0,88,89
 769 -298 769 -298 693 -298 c 0,90,91
 603 -298 603 -298 416 -251 c 0,92,93
 253 -211 253 -211 174.5 -198 c 128,-1,94
 96 -185 96 -185 23 -185 c 0,95,96
 -38 -186 -38 -186 -93.5 -197.5 c 128,-1,97
 -149 -209 -149 -209 -303 -254 c 0,98,99
 -338 -265 -338 -265 -389 -273.5 c 128,-1,100
 -440 -282 -440 -282 -464 -282 c 0,101,102
 -498 -282 -498 -282 -523.5 -273.5 c 128,-1,103
 -549 -265 -549 -265 -551 -251 c 0,104,105
 -552 -247 -552 -247 -544 -235 c 128,-1,106
 -536 -223 -536 -223 -532 -216 c 0,107,108
 -524 -202 -524 -202 -518.5 -187.5 c 128,-1,109
 -513 -173 -513 -173 -513 -168 c 0,110,111
 -513 -157 -513 -157 -522.5 -151 c 128,-1,112
 -532 -145 -532 -145 -547 -145 c 0,113,114
 -574 -145 -574 -145 -599 -162 c 0,115,116
 -612 -171 -612 -171 -616 -181 c 128,-1,117
 -620 -191 -620 -191 -620 -212 c 0,118,119
 -620 -247 -620 -247 -602.5 -273.5 c 128,-1,120
 -585 -300 -585 -300 -551 -316 c 0,121,122
 -505 -339 -505 -339 -442 -339 c 0,123,124
 -366 -339 -366 -339 -262 -303 c 0,125,126
 -197 -280 -197 -280 -136.5 -269 c 128,-1,127
 -76 -258 -76 -258 -6 -258 c 0,128,129
 73 -258 73 -258 175 -272 c 128,-1,130
 277 -286 277 -286 421 -317 c 0,131,69
 575 -349 575 -349 668 -349 c 0,70,71
EndSplineSet
Fore
SplineSet
-277.240234375 97.4404296875 m 256,0,1
 -277.240234375 87 -277.240234375 87 -223.300292969 87 c 128,-1,2
 -169.360351562 87 -169.360351562 87 -156.01953125 88.740234375 c 128,-1,3
 -142.6796875 90.48046875 -142.6796875 90.48046875 -136.299804688 98.01953125 c 128,-1,4
 -129.919921875 105.559570312 -129.919921875 105.559570312 -121.799804688 124.119628906 c 0,5,6
 -102.755686458 167.648551216 -102.755686458 167.648551216 -83.51953125 178.639648438 c 0,7,8
 -71.919921875 185.599609375 -71.919921875 185.599609375 -83.51953125 187.919921875 c 128,-1,9
 -95.1201171875 190.240234375 -95.1201171875 190.240234375 -138.620117188 190.8203125 c 128,-1,10
 -182.120117188 191.400390625 -182.120117188 191.400390625 -196.620117188 189.66015625 c 128,-1,11
 -211.120117188 187.919921875 -211.120117188 187.919921875 -217.5 181.540039062 c 128,-1,12
 -223.879882812 175.16015625 -223.879882812 175.16015625 -229.680175781 158.33984375 c 0,13,14
 -243.023633078 119.645053197 -243.023633078 119.645053197 -259.83984375 114.83984375 c 0,15,16
 -266.799804688 112.51953125 -266.799804688 112.51953125 -272.01953125 107.299804688 c 128,-1,17
 -277.240234375 102.080078125 -277.240234375 102.080078125 -277.240234375 97.4404296875 c 256,0,1
-62.6396484375 97.4404296875 m 256,18,19
 -62.6396484375 87 -62.6396484375 87 -8.69970703125 87 c 128,-1,20
 45.240234375 87 45.240234375 87 58.580078125 88.740234375 c 128,-1,21
 71.919921875 90.48046875 71.919921875 90.48046875 78.2998046875 98.01953125 c 128,-1,22
 84.6796875 105.559570312 84.6796875 105.559570312 92.7998046875 124.119628906 c 0,23,24
 111.843922917 167.648551216 111.843922917 167.648551216 131.080078125 178.639648438 c 0,25,26
 142.6796875 185.599609375 142.6796875 185.599609375 131.080078125 187.919921875 c 128,-1,27
 119.48046875 190.240234375 119.48046875 190.240234375 75.98046875 190.8203125 c 128,-1,28
 32.48046875 191.400390625 32.48046875 191.400390625 17.98046875 189.66015625 c 128,-1,29
 3.48046875 187.919921875 3.48046875 187.919921875 -2.900390625 181.540039062 c 128,-1,30
 -9.2802734375 175.16015625 -9.2802734375 175.16015625 -15.080078125 158.33984375 c 0,31,32
 -28.4222360007 119.645564031 -28.4222360007 119.645564031 -45.240234375 114.83984375 c 0,33,34
 -52.2001953125 112.51953125 -52.2001953125 112.51953125 -57.419921875 107.299804688 c 128,-1,35
 -62.6396484375 102.080078125 -62.6396484375 102.080078125 -62.6396484375 97.4404296875 c 256,18,19
151.959960938 97.4404296875 m 256,36,37
 151.959960938 87 151.959960938 87 205.899902344 87 c 128,-1,38
 259.83984375 87 259.83984375 87 273.1796875 88.740234375 c 128,-1,39
 286.51953125 90.48046875 286.51953125 90.48046875 292.900390625 98.01953125 c 128,-1,40
 299.280273438 105.559570312 299.280273438 105.559570312 307.399902344 124.119628906 c 0,41,42
 326.442656486 167.648050801 326.442656486 167.648050801 345.6796875 178.639648438 c 0,43,44
 357.280273438 185.599609375 357.280273438 185.599609375 345.6796875 187.919921875 c 128,-1,45
 334.080078125 190.240234375 334.080078125 190.240234375 290.580078125 190.8203125 c 128,-1,46
 247.080078125 191.400390625 247.080078125 191.400390625 232.580078125 189.66015625 c 128,-1,47
 218.080078125 187.919921875 218.080078125 187.919921875 211.700195312 181.540039062 c 128,-1,48
 205.3203125 175.16015625 205.3203125 175.16015625 199.520019531 158.33984375 c 0,49,50
 186.176562234 119.645053197 186.176562234 119.645053197 169.360351562 114.83984375 c 0,51,52
 162.400390625 112.51953125 162.400390625 112.51953125 157.1796875 107.299804688 c 128,-1,53
 151.959960938 102.080078125 151.959960938 102.080078125 151.959960938 97.4404296875 c 256,36,37
1024.86035156 6.9599609375 m 0,54,55
 991.799804688 26.6796875 991.799804688 26.6796875 951.779785156 26.6796875 c 128,-1,56
 911.759765625 26.6796875 911.759765625 26.6796875 911.759765625 2.3203125 c 0,57,58
 911.759765625 -9.2802734375 911.759765625 -9.2802734375 925.100097656 -33.0600585938 c 128,-1,59
 938.440429688 -56.83984375 938.440429688 -56.83984375 938.440429688 -73.080078125 c 0,60,61
 938.440429688 -113.6796875 938.440429688 -113.6796875 842.16015625 -113.6796875 c 128,-1,62
 745.879882812 -113.6796875 745.879882812 -113.6796875 542.879882812 -63.2197265625 c 128,-1,63
 339.879882812 -12.759765625 339.879882812 -12.759765625 248.8203125 2.3203125 c 128,-1,64
 157.759765625 17.400390625 157.759765625 17.400390625 80.0400390625 16.8203125 c 128,-1,65
 2.3203125 16.240234375 2.3203125 16.240234375 -62.0595703125 2.900390625 c 128,-1,66
 -126.440429688 -10.4404296875 -126.440429688 -10.4404296875 -236.060058594 -42.9204101562 c 0,67,68
 -412.233579366 -95.1201171875 -412.233579366 -95.1201171875 -491.83984375 -95.1201171875 c 0,69,70
 -531.280273438 -95.1201171875 -531.280273438 -95.1201171875 -560.860351562 -85.259765625 c 128,-1,71
 -590.440429688 -75.400390625 -590.440429688 -75.400390625 -592.759765625 -59.16015625 c 0,72,73
 -593.919921875 -54.51953125 -593.919921875 -54.51953125 -584.639648438 -40.599609375 c 128,-1,74
 -575.360351562 -26.6796875 -575.360351562 -26.6796875 -568.400390625 -14.5 c 128,-1,75
 -561.440429688 -2.3203125 -561.440429688 -2.3203125 -555.059570312 14.5 c 128,-1,76
 -548.6796875 31.3203125 -548.6796875 31.3203125 -548.6796875 40.6000976562 c 128,-1,77
 -548.6796875 49.8798828125 -548.6796875 49.8798828125 -559.700195312 56.83984375 c 128,-1,78
 -570.719726562 63.7998046875 -570.719726562 63.7998046875 -595.080078125 63.7998046875 c 128,-1,79
 -619.440429688 63.7998046875 -619.440429688 63.7998046875 -641.479980469 48.7197265625 c 128,-1,80
 -663.51953125 33.6396484375 -663.51953125 33.6396484375 -668.16015625 22.0400390625 c 128,-1,81
 -672.799804688 10.4404296875 -672.799804688 10.4404296875 -672.799804688 -22.0395507812 c 128,-1,82
 -672.799804688 -54.51953125 -672.799804688 -54.51953125 -652.5 -85.259765625 c 128,-1,83
 -632.200195312 -116 -632.200195312 -116 -585.800292969 -138.620117188 c 128,-1,84
 -539.400390625 -161.240234375 -539.400390625 -161.240234375 -458.780273438 -161.240234375 c 128,-1,85
 -378.16015625 -161.240234375 -378.16015625 -161.240234375 -280.140136719 -127.020019531 c 128,-1,86
 -182.120117188 -92.7998046875 -182.120117188 -92.7998046875 -111.940429688 -80.0400390625 c 128,-1,87
 -41.759765625 -67.2802734375 -41.759765625 -67.2802734375 44.66015625 -67.2802734375 c 0,88,89
 216.847047553 -67.2802734375 216.847047553 -67.2802734375 534.759765625 -135.719726562 c 0,90,91
 713.400390625 -172.83984375 713.400390625 -172.83984375 800.979980469 -172.83984375 c 128,-1,92
 888.559570312 -172.83984375 888.559570312 -172.83984375 951.199707031 -159.5 c 128,-1,93
 1013.83984375 -146.16015625 1013.83984375 -146.16015625 1044 -125.280273438 c 128,-1,94
 1074.16015625 -104.400390625 1074.16015625 -104.400390625 1074.16015625 -71.919921875 c 0,95,96
 1074.16015625 -22.4469145552 1074.16015625 -22.4469145552 1024.86035156 6.9599609375 c 0,54,55
EndSplineSet
EndChar

StartChar: braceright
Encoding: 125 125 17
Width: 46
VWidth: 1392
GlyphClass: 1
Flags: W
LayerCount: 2
Back
SplineSet
623 -548 m 256,1,2
 651 -548 651 -548 701 -546 c 0,3,4
 771 -542 771 -542 829.5 -524.5 c 128,-1,5
 888 -507 888 -507 954 -470 c 128,-1,6
 1020 -433 1020 -433 1113 -366 c 0,7,8
 1180 -317 1180 -317 1262 -265 c 0,9,10
 1294 -245 1294 -245 1310 -228 c 128,-1,11
 1326 -211 1326 -211 1318 -204 c 0,12,13
 1313 -199 1313 -199 1269 -199 c 0,14,15
 1238 -199 1238 -199 1202 -202 c 128,-1,16
 1166 -205 1166 -205 1145 -209 c 0,17,18
 1099 -219 1099 -219 1074 -228 c 128,-1,19
 1049 -237 1049 -237 1035 -252 c 0,20,21
 1015 -272 1015 -272 963 -312.5 c 128,-1,22
 911 -353 911 -353 874 -376 c 0,23,24
 775 -438 775 -438 696 -465 c 0,25,26
 639 -484 639 -484 574 -484 c 0,27,28
 476 -484 476 -484 355 -441 c 0,29,30
 345 -438 345 -438 318.5 -428.5 c 128,-1,31
 292 -419 292 -419 284 -419 c 0,32,33
 275 -419 275 -419 271 -426 c 0,34,35
 268 -431 268 -431 268 -435 c 0,36,37
 268 -452 268 -452 326 -477 c 0,38,39
 448 -533 448 -533 587 -547 c 0,40,0
 595 -548 595 -548 623 -548 c 256,1,2
EndSplineSet
Fore
SplineSet
769.080078125 -403.6796875 m 256,1,2
 917.493266102 -403.6796875 917.493266102 -403.6796875 996.986867426 -379.899902344 c 128,-1,3
 1076.48046875 -356.120117188 1076.48046875 -356.120117188 1153.04003906 -313.200195312 c 128,-1,4
 1229.59960938 -270.280273438 1229.59960938 -270.280273438 1322.39990234 -203 c 128,-1,5
 1415.20019531 -135.719726562 1415.20019531 -135.719726562 1481.3203125 -93.9599609375 c 128,-1,6
 1547.44042969 -52.2001953125 1547.44042969 -52.2001953125 1566 -32.48046875 c 128,-1,7
 1584.55957031 -12.759765625 1584.55957031 -12.759765625 1577.02001953 -5.7998046875 c 128,-1,8
 1569.48046875 1.16015625 1569.48046875 1.16015625 1525.98046875 1.16015625 c 0,9,10
 1385.68256905 1.16015625 1385.68256905 1.16015625 1292.24023438 -32.48046875 c 0,11,12
 1263.24023438 -42.919921875 1263.24023438 -42.919921875 1243.52001953 -63.2197265625 c 128,-1,13
 1223.79980469 -83.51953125 1223.79980469 -83.51953125 1163.48046875 -130.5 c 0,14,15
 1000.93199182 -257.100863359 1000.93199182 -257.100863359 853.759765625 -307.400390625 c 0,16,17
 787.639648438 -329.440429688 787.639648438 -329.440429688 712.240234375 -329.440429688 c 0,18,19
 598.559570312 -329.440429688 598.559570312 -329.440429688 458.200195312 -279.559570312 c 0,20,21
 446.599609375 -276.080078125 446.599609375 -276.080078125 415.860351562 -265.059570312 c 128,-1,22
 385.120117188 -254.040039062 385.120117188 -254.040039062 375.260253906 -254.040039062 c 128,-1,23
 365.400390625 -254.040039062 365.400390625 -254.040039062 361.340332031 -261 c 128,-1,24
 357.280273438 -267.959960938 357.280273438 -267.959960938 357.280273438 -272.599609375 c 0,25,26
 357.280273438 -292.3203125 357.280273438 -292.3203125 424.559570312 -321.3203125 c 0,27,28
 566.080078125 -386.280273438 566.080078125 -386.280273438 727.3203125 -402.51953125 c 0,29,0
 736.599609375 -403.6796875 736.599609375 -403.6796875 769.080078125 -403.6796875 c 256,1,2
EndSplineSet
EndChar

StartChar: bracketleft
Encoding: 91 91 18
Width: 46
VWidth: 1392
GlyphClass: 1
Flags: W
LayerCount: 2
Back
SplineSet
-261 -127.5 m 128,-1,1
 -243 -130 -243 -130 -218 -130 c 0,2,3
 -186 -130 -186 -130 -174.5 -128.5 c 128,-1,4
 -163 -127 -163 -127 -157.5 -120.5 c 128,-1,5
 -152 -114 -152 -114 -144 -96 c 0,6,7
 -138 -82 -138 -82 -128.5 -68.5 c 128,-1,8
 -119 -55 -119 -55 -112 -51 c 0,9,10
 -102 -45 -102 -45 -112 -43 c 128,-1,11
 -122 -41 -122 -41 -161 -40 c 0,12,13
 -197 -40 -197 -40 -209.5 -41.5 c 128,-1,14
 -222 -43 -222 -43 -227.5 -48.5 c 128,-1,15
 -233 -54 -233 -54 -238 -70 c 0,16,17
 -243 -83 -243 -83 -250 -93.5 c 128,-1,18
 -257 -104 -257 -104 -264 -106 c 0,19,20
 -270 -108 -270 -108 -274.5 -112.5 c 128,-1,21
 -279 -117 -279 -117 -279 -121 c 256,22,0
 -279 -125 -279 -125 -261 -127.5 c 128,-1,1
-76 -127.5 m 128,-1,24
 -58 -130 -58 -130 -33 -130 c 0,25,26
 -1 -130 -1 -130 10.5 -128.5 c 128,-1,27
 22 -127 22 -127 27.5 -120.5 c 128,-1,28
 33 -114 33 -114 41 -96 c 0,29,30
 47 -82 47 -82 56.5 -68.5 c 128,-1,31
 66 -55 66 -55 73 -51 c 0,32,33
 83 -45 83 -45 73 -43 c 128,-1,34
 63 -41 63 -41 24 -40 c 0,35,36
 -12 -40 -12 -40 -24.5 -41.5 c 128,-1,37
 -37 -43 -37 -43 -42.5 -48.5 c 128,-1,38
 -48 -54 -48 -54 -53 -70 c 0,39,40
 -58 -83 -58 -83 -65 -93.5 c 128,-1,41
 -72 -104 -72 -104 -79 -106 c 0,42,43
 -85 -108 -85 -108 -89.5 -112.5 c 128,-1,44
 -94 -117 -94 -117 -94 -121 c 256,45,23
 -94 -125 -94 -125 -76 -127.5 c 128,-1,24
668 -349 m 0,47,48
 726 -349 726 -349 780 -337 c 0,49,50
 834 -326 834 -326 860 -308 c 128,-1,51
 886 -290 886 -290 886 -262 c 0,52,53
 886 -248 886 -248 881 -235 c 0,54,55
 872 -211 872 -211 843.5 -194 c 128,-1,56
 815 -177 815 -177 784 -177 c 0,57,58
 770 -177 770 -177 759 -181 c 0,59,60
 746 -186 746 -186 746 -198 c 0,61,62
 746 -208 746 -208 759 -232 c 0,63,64
 769 -249 769 -249 769 -263 c 0,65,66
 769 -298 769 -298 693 -298 c 0,67,68
 603 -298 603 -298 416 -251 c 0,69,70
 253 -211 253 -211 174.5 -198 c 128,-1,71
 96 -185 96 -185 23 -185 c 0,72,73
 -38 -186 -38 -186 -93.5 -197.5 c 128,-1,74
 -149 -209 -149 -209 -303 -254 c 0,75,76
 -338 -265 -338 -265 -389 -273.5 c 128,-1,77
 -440 -282 -440 -282 -464 -282 c 0,78,79
 -498 -282 -498 -282 -523.5 -273.5 c 128,-1,80
 -549 -265 -549 -265 -551 -251 c 0,81,82
 -552 -247 -552 -247 -544 -235 c 128,-1,83
 -536 -223 -536 -223 -532 -216 c 0,84,85
 -524 -202 -524 -202 -518.5 -187.5 c 128,-1,86
 -513 -173 -513 -173 -513 -168 c 0,87,88
 -513 -157 -513 -157 -522.5 -151 c 128,-1,89
 -532 -145 -532 -145 -547 -145 c 0,90,91
 -574 -145 -574 -145 -599 -162 c 0,92,93
 -612 -171 -612 -171 -616 -181 c 128,-1,94
 -620 -191 -620 -191 -620 -212 c 0,95,96
 -620 -247 -620 -247 -602.5 -273.5 c 128,-1,97
 -585 -300 -585 -300 -551 -316 c 0,98,99
 -505 -339 -505 -339 -442 -339 c 0,100,101
 -366 -339 -366 -339 -262 -303 c 0,102,103
 -197 -280 -197 -280 -136.5 -269 c 128,-1,104
 -76 -258 -76 -258 -6 -258 c 0,105,106
 73 -258 73 -258 175 -272 c 128,-1,107
 277 -286 277 -286 421 -317 c 0,108,46
 575 -349 575 -349 668 -349 c 0,47,48
EndSplineSet
Fore
SplineSet
-277.240234375 91.6396484375 m 256,0,1
 -277.240234375 81.2001953125 -277.240234375 81.2001953125 -223.300292969 81.2001953125 c 128,-1,2
 -169.360351562 81.2001953125 -169.360351562 81.2001953125 -156.01953125 82.9404296875 c 128,-1,3
 -142.6796875 84.6796875 -142.6796875 84.6796875 -136.299804688 92.2197265625 c 128,-1,4
 -129.919921875 99.759765625 -129.919921875 99.759765625 -121.799804688 118.319824219 c 0,5,6
 -102.755686458 161.848746529 -102.755686458 161.848746529 -83.51953125 172.83984375 c 0,7,8
 -71.919921875 179.799804688 -71.919921875 179.799804688 -83.51953125 182.120117188 c 128,-1,9
 -95.1201171875 184.440429688 -95.1201171875 184.440429688 -138.620117188 185.020019531 c 128,-1,10
 -182.120117188 185.599609375 -182.120117188 185.599609375 -196.620117188 183.860351562 c 128,-1,11
 -211.120117188 182.120117188 -211.120117188 182.120117188 -217.5 175.740234375 c 128,-1,12
 -223.879882812 169.360351562 -223.879882812 169.360351562 -229.680175781 152.540039062 c 0,13,14
 -243.023633078 113.84524851 -243.023633078 113.84524851 -259.83984375 109.040039062 c 0,15,16
 -266.799804688 106.719726562 -266.799804688 106.719726562 -272.01953125 101.5 c 128,-1,17
 -277.240234375 96.2802734375 -277.240234375 96.2802734375 -277.240234375 91.6396484375 c 256,0,1
-62.6396484375 91.6396484375 m 256,18,19
 -62.6396484375 81.2001953125 -62.6396484375 81.2001953125 -8.69970703125 81.2001953125 c 128,-1,20
 45.240234375 81.2001953125 45.240234375 81.2001953125 58.580078125 82.9404296875 c 128,-1,21
 71.919921875 84.6796875 71.919921875 84.6796875 78.2998046875 92.2197265625 c 128,-1,22
 84.6796875 99.759765625 84.6796875 99.759765625 92.7998046875 118.319824219 c 0,23,24
 111.843922917 161.848746529 111.843922917 161.848746529 131.080078125 172.83984375 c 0,25,26
 142.6796875 179.799804688 142.6796875 179.799804688 131.080078125 182.120117188 c 128,-1,27
 119.48046875 184.440429688 119.48046875 184.440429688 75.98046875 185.020019531 c 128,-1,28
 32.48046875 185.599609375 32.48046875 185.599609375 17.98046875 183.860351562 c 128,-1,29
 3.48046875 182.120117188 3.48046875 182.120117188 -2.900390625 175.740234375 c 128,-1,30
 -9.2802734375 169.360351562 -9.2802734375 169.360351562 -15.080078125 152.540039062 c 0,31,32
 -28.4222360007 113.845759344 -28.4222360007 113.845759344 -45.240234375 109.040039062 c 0,33,34
 -52.2001953125 106.719726562 -52.2001953125 106.719726562 -57.419921875 101.5 c 128,-1,35
 -62.6396484375 96.2802734375 -62.6396484375 96.2802734375 -62.6396484375 91.6396484375 c 256,18,19
1024.86035156 6.9599609375 m 0,36,37
 991.799804688 26.6796875 991.799804688 26.6796875 951.779785156 26.6796875 c 128,-1,38
 911.759765625 26.6796875 911.759765625 26.6796875 911.759765625 2.3203125 c 0,39,40
 911.759765625 -9.2802734375 911.759765625 -9.2802734375 925.100097656 -33.0600585938 c 128,-1,41
 938.440429688 -56.83984375 938.440429688 -56.83984375 938.440429688 -73.080078125 c 0,42,43
 938.440429688 -113.6796875 938.440429688 -113.6796875 842.16015625 -113.6796875 c 128,-1,44
 745.879882812 -113.6796875 745.879882812 -113.6796875 542.879882812 -63.2197265625 c 128,-1,45
 339.879882812 -12.759765625 339.879882812 -12.759765625 248.8203125 2.3203125 c 128,-1,46
 157.759765625 17.400390625 157.759765625 17.400390625 80.0400390625 16.8203125 c 128,-1,47
 2.3203125 16.240234375 2.3203125 16.240234375 -62.0595703125 2.900390625 c 128,-1,48
 -126.440429688 -10.4404296875 -126.440429688 -10.4404296875 -236.060058594 -42.9204101562 c 0,49,50
 -412.233579366 -95.1201171875 -412.233579366 -95.1201171875 -491.83984375 -95.1201171875 c 0,51,52
 -531.280273438 -95.1201171875 -531.280273438 -95.1201171875 -560.860351562 -85.259765625 c 128,-1,53
 -590.440429688 -75.400390625 -590.440429688 -75.400390625 -592.759765625 -59.16015625 c 0,54,55
 -593.919921875 -54.51953125 -593.919921875 -54.51953125 -584.639648438 -40.599609375 c 128,-1,56
 -575.360351562 -26.6796875 -575.360351562 -26.6796875 -568.400390625 -14.5 c 128,-1,57
 -561.440429688 -2.3203125 -561.440429688 -2.3203125 -555.059570312 14.5 c 128,-1,58
 -548.6796875 31.3203125 -548.6796875 31.3203125 -548.6796875 40.6000976562 c 128,-1,59
 -548.6796875 49.8798828125 -548.6796875 49.8798828125 -559.700195312 56.83984375 c 128,-1,60
 -570.719726562 63.7998046875 -570.719726562 63.7998046875 -595.080078125 63.7998046875 c 128,-1,61
 -619.440429688 63.7998046875 -619.440429688 63.7998046875 -641.479980469 48.7197265625 c 128,-1,62
 -663.51953125 33.6396484375 -663.51953125 33.6396484375 -668.16015625 22.0400390625 c 128,-1,63
 -672.799804688 10.4404296875 -672.799804688 10.4404296875 -672.799804688 -22.0395507812 c 128,-1,64
 -672.799804688 -54.51953125 -672.799804688 -54.51953125 -652.5 -85.259765625 c 128,-1,65
 -632.200195312 -116 -632.200195312 -116 -585.800292969 -138.620117188 c 128,-1,66
 -539.400390625 -161.240234375 -539.400390625 -161.240234375 -458.780273438 -161.240234375 c 128,-1,67
 -378.16015625 -161.240234375 -378.16015625 -161.240234375 -280.140136719 -127.020019531 c 128,-1,68
 -182.120117188 -92.7998046875 -182.120117188 -92.7998046875 -111.940429688 -80.0400390625 c 128,-1,69
 -41.759765625 -67.2802734375 -41.759765625 -67.2802734375 44.66015625 -67.2802734375 c 0,70,71
 216.847047553 -67.2802734375 216.847047553 -67.2802734375 534.759765625 -135.719726562 c 0,72,73
 713.400390625 -172.83984375 713.400390625 -172.83984375 800.979980469 -172.83984375 c 128,-1,74
 888.559570312 -172.83984375 888.559570312 -172.83984375 951.199707031 -159.5 c 128,-1,75
 1013.83984375 -146.16015625 1013.83984375 -146.16015625 1044 -125.280273438 c 128,-1,76
 1074.16015625 -104.400390625 1074.16015625 -104.400390625 1074.16015625 -71.919921875 c 0,77,78
 1074.16015625 -22.4469145552 1074.16015625 -22.4469145552 1024.86035156 6.9599609375 c 0,36,37
EndSplineSet
EndChar

StartChar: bracketright
Encoding: 93 93 19
Width: 46
VWidth: 1392
GlyphClass: 1
Flags: W
LayerCount: 2
Back
SplineSet
-356 -122.5 m 128,-1,1
 -338 -125 -338 -125 -313 -125 c 0,2,3
 -281 -125 -281 -125 -269.5 -123.5 c 128,-1,4
 -258 -122 -258 -122 -252.5 -115.5 c 128,-1,5
 -247 -109 -247 -109 -239 -91 c 0,6,7
 -233 -77 -233 -77 -223.5 -63.5 c 128,-1,8
 -214 -50 -214 -50 -207 -46 c 0,9,10
 -197 -40 -197 -40 -207 -38 c 128,-1,11
 -217 -36 -217 -36 -256 -35 c 0,12,13
 -292 -35 -292 -35 -304.5 -36.5 c 128,-1,14
 -317 -38 -317 -38 -322.5 -43.5 c 128,-1,15
 -328 -49 -328 -49 -333 -65 c 0,16,17
 -338 -78 -338 -78 -345 -88.5 c 128,-1,18
 -352 -99 -352 -99 -359 -101 c 0,19,20
 -365 -103 -365 -103 -369.5 -107.5 c 128,-1,21
 -374 -112 -374 -112 -374 -116 c 256,22,0
 -374 -120 -374 -120 -356 -122.5 c 128,-1,1
-186 -122.5 m 128,-1,24
 -168 -125 -168 -125 -143 -125 c 0,25,26
 -111 -125 -111 -125 -99.5 -123.5 c 128,-1,27
 -88 -122 -88 -122 -82.5 -115.5 c 128,-1,28
 -77 -109 -77 -109 -69 -91 c 0,29,30
 -63 -77 -63 -77 -53.5 -63.5 c 128,-1,31
 -44 -50 -44 -50 -37 -46 c 0,32,33
 -27 -40 -27 -40 -37 -38 c 128,-1,34
 -47 -36 -47 -36 -86 -35 c 0,35,36
 -122 -35 -122 -35 -134.5 -36.5 c 128,-1,37
 -147 -38 -147 -38 -152.5 -43.5 c 128,-1,38
 -158 -49 -158 -49 -163 -65 c 0,39,40
 -168 -78 -168 -78 -175 -88.5 c 128,-1,41
 -182 -99 -182 -99 -189 -101 c 0,42,43
 -195 -103 -195 -103 -199.5 -107.5 c 128,-1,44
 -204 -112 -204 -112 -204 -116 c 256,45,23
 -204 -120 -204 -120 -186 -122.5 c 128,-1,24
-16 -122.5 m 128,-1,47
 2 -125 2 -125 27 -125 c 0,48,49
 59 -125 59 -125 70.5 -123.5 c 128,-1,50
 82 -122 82 -122 87.5 -115.5 c 128,-1,51
 93 -109 93 -109 101 -91 c 0,52,53
 107 -77 107 -77 116.5 -63.5 c 128,-1,54
 126 -50 126 -50 133 -46 c 0,55,56
 143 -40 143 -40 133 -38 c 128,-1,57
 123 -36 123 -36 84 -35 c 0,58,59
 48 -35 48 -35 35.5 -36.5 c 128,-1,60
 23 -38 23 -38 17.5 -43.5 c 128,-1,61
 12 -49 12 -49 7 -65 c 0,62,63
 2 -78 2 -78 -5 -88.5 c 128,-1,64
 -12 -99 -12 -99 -19 -101 c 0,65,66
 -25 -103 -25 -103 -29.5 -107.5 c 128,-1,67
 -34 -112 -34 -112 -34 -116 c 256,68,46
 -34 -120 -34 -120 -16 -122.5 c 128,-1,47
154 -122.5 m 128,-1,70
 172 -125 172 -125 197 -125 c 0,71,72
 229 -125 229 -125 240.5 -123.5 c 128,-1,73
 252 -122 252 -122 257.5 -115.5 c 128,-1,74
 263 -109 263 -109 271 -91 c 0,75,76
 277 -77 277 -77 286.5 -63.5 c 128,-1,77
 296 -50 296 -50 303 -46 c 0,78,79
 313 -40 313 -40 303 -38 c 128,-1,80
 293 -36 293 -36 254 -35 c 0,81,82
 218 -35 218 -35 205.5 -36.5 c 128,-1,83
 193 -38 193 -38 187.5 -43.5 c 128,-1,84
 182 -49 182 -49 177 -65 c 0,85,86
 172 -78 172 -78 165 -88.5 c 128,-1,87
 158 -99 158 -99 151 -101 c 0,88,89
 145 -103 145 -103 140.5 -107.5 c 128,-1,90
 136 -112 136 -112 136 -116 c 256,91,69
 136 -120 136 -120 154 -122.5 c 128,-1,70
668 -349 m 0,93,94
 726 -349 726 -349 780 -337 c 0,95,96
 834 -326 834 -326 860 -308 c 128,-1,97
 886 -290 886 -290 886 -262 c 0,98,99
 886 -248 886 -248 881 -235 c 0,100,101
 872 -211 872 -211 843.5 -194 c 128,-1,102
 815 -177 815 -177 784 -177 c 0,103,104
 770 -177 770 -177 759 -181 c 0,105,106
 746 -186 746 -186 746 -198 c 0,107,108
 746 -208 746 -208 759 -232 c 0,109,110
 769 -249 769 -249 769 -263 c 0,111,112
 769 -298 769 -298 693 -298 c 0,113,114
 603 -298 603 -298 416 -251 c 0,115,116
 253 -211 253 -211 174.5 -198 c 128,-1,117
 96 -185 96 -185 23 -185 c 0,118,119
 -38 -186 -38 -186 -93.5 -197.5 c 128,-1,120
 -149 -209 -149 -209 -303 -254 c 0,121,122
 -338 -265 -338 -265 -389 -273.5 c 128,-1,123
 -440 -282 -440 -282 -464 -282 c 0,124,125
 -498 -282 -498 -282 -523.5 -273.5 c 128,-1,126
 -549 -265 -549 -265 -551 -251 c 0,127,128
 -552 -247 -552 -247 -544 -235 c 128,-1,129
 -536 -223 -536 -223 -532 -216 c 0,130,131
 -524 -202 -524 -202 -518.5 -187.5 c 128,-1,132
 -513 -173 -513 -173 -513 -168 c 0,133,134
 -513 -157 -513 -157 -522.5 -151 c 128,-1,135
 -532 -145 -532 -145 -547 -145 c 0,136,137
 -574 -145 -574 -145 -599 -162 c 0,138,139
 -612 -171 -612 -171 -616 -181 c 128,-1,140
 -620 -191 -620 -191 -620 -212 c 0,141,142
 -620 -247 -620 -247 -602.5 -273.5 c 128,-1,143
 -585 -300 -585 -300 -551 -316 c 0,144,145
 -505 -339 -505 -339 -442 -339 c 0,146,147
 -366 -339 -366 -339 -262 -303 c 0,148,149
 -197 -280 -197 -280 -136.5 -269 c 128,-1,150
 -76 -258 -76 -258 -6 -258 c 0,151,152
 73 -258 73 -258 175 -272 c 128,-1,153
 277 -286 277 -286 421 -317 c 0,154,92
 575 -349 575 -349 668 -349 c 0,93,94
EndSplineSet
Fore
SplineSet
-387.440429688 97.4404296875 m 256,0,1
 -387.440429688 87 -387.440429688 87 -333.5 87 c 128,-1,2
 -279.559570312 87 -279.559570312 87 -266.219726562 88.740234375 c 128,-1,3
 -252.879882812 90.48046875 -252.879882812 90.48046875 -246.5 98.01953125 c 128,-1,4
 -240.120117188 105.559570312 -240.120117188 105.559570312 -232 124.119628906 c 0,5,6
 -212.955881771 167.648551216 -212.955881771 167.648551216 -193.719726562 178.639648438 c 0,7,8
 -182.120117188 185.599609375 -182.120117188 185.599609375 -193.719726562 187.919921875 c 128,-1,9
 -205.3203125 190.240234375 -205.3203125 190.240234375 -248.8203125 190.8203125 c 128,-1,10
 -292.3203125 191.400390625 -292.3203125 191.400390625 -306.8203125 189.66015625 c 128,-1,11
 -321.3203125 187.919921875 -321.3203125 187.919921875 -327.700195312 181.540039062 c 128,-1,12
 -334.080078125 175.16015625 -334.080078125 175.16015625 -339.879882812 158.33984375 c 0,13,14
 -353.222040688 119.645564031 -353.222040688 119.645564031 -370.040039062 114.83984375 c 0,15,16
 -377 112.51953125 -377 112.51953125 -382.219726562 107.299804688 c 128,-1,17
 -387.440429688 102.080078125 -387.440429688 102.080078125 -387.440429688 97.4404296875 c 256,0,1
-190.240234375 97.4404296875 m 256,18,19
 -190.240234375 87 -190.240234375 87 -136.300292969 87 c 128,-1,20
 -82.3603515625 87 -82.3603515625 87 -69.01953125 88.740234375 c 128,-1,21
 -55.6796875 90.48046875 -55.6796875 90.48046875 -49.2998046875 98.01953125 c 128,-1,22
 -42.919921875 105.559570312 -42.919921875 105.559570312 -34.7998046875 124.119628906 c 0,23,24
 -15.7556864581 167.648551216 -15.7556864581 167.648551216 3.48046875 178.639648438 c 0,25,26
 15.080078125 185.599609375 15.080078125 185.599609375 3.48046875 187.919921875 c 128,-1,27
 -8.1201171875 190.240234375 -8.1201171875 190.240234375 -51.6201171875 190.8203125 c 128,-1,28
 -95.1201171875 191.400390625 -95.1201171875 191.400390625 -109.620117188 189.66015625 c 128,-1,29
 -124.120117188 187.919921875 -124.120117188 187.919921875 -130.5 181.540039062 c 128,-1,30
 -136.879882812 175.16015625 -136.879882812 175.16015625 -142.680175781 158.33984375 c 0,31,32
 -156.023633078 119.645053197 -156.023633078 119.645053197 -172.83984375 114.83984375 c 0,33,34
 -179.799804688 112.51953125 -179.799804688 112.51953125 -185.01953125 107.299804688 c 128,-1,35
 -190.240234375 102.080078125 -190.240234375 102.080078125 -190.240234375 97.4404296875 c 256,18,19
6.9599609375 97.4404296875 m 256,36,37
 6.9599609375 87 6.9599609375 87 60.8999023438 87 c 128,-1,38
 114.83984375 87 114.83984375 87 128.1796875 88.740234375 c 128,-1,39
 141.51953125 90.48046875 141.51953125 90.48046875 147.900390625 98.01953125 c 128,-1,40
 154.280273438 105.559570312 154.280273438 105.559570312 162.399902344 124.119628906 c 0,41,42
 181.442656486 167.648050801 181.442656486 167.648050801 200.6796875 178.639648438 c 0,43,44
 212.280273438 185.599609375 212.280273438 185.599609375 200.6796875 187.919921875 c 128,-1,45
 189.080078125 190.240234375 189.080078125 190.240234375 145.580078125 190.8203125 c 128,-1,46
 102.080078125 191.400390625 102.080078125 191.400390625 87.580078125 189.66015625 c 128,-1,47
 73.080078125 187.919921875 73.080078125 187.919921875 66.7001953125 181.540039062 c 128,-1,48
 60.3203125 175.16015625 60.3203125 175.16015625 54.5200195312 158.33984375 c 0,49,50
 41.1765622341 119.645053197 41.1765622341 119.645053197 24.3603515625 114.83984375 c 0,51,52
 17.400390625 112.51953125 17.400390625 112.51953125 12.1796875 107.299804688 c 128,-1,53
 6.9599609375 102.080078125 6.9599609375 102.080078125 6.9599609375 97.4404296875 c 256,36,37
204.16015625 97.4404296875 m 256,54,55
 204.16015625 87 204.16015625 87 258.100097656 87 c 128,-1,56
 312.040039062 87 312.040039062 87 325.379882812 88.740234375 c 128,-1,57
 338.719726562 90.48046875 338.719726562 90.48046875 345.099609375 98.01953125 c 128,-1,58
 351.48046875 105.559570312 351.48046875 105.559570312 359.600097656 124.119628906 c 0,59,60
 378.642851798 167.648050801 378.642851798 167.648050801 397.879882812 178.639648438 c 0,61,62
 409.48046875 185.599609375 409.48046875 185.599609375 397.879882812 187.919921875 c 128,-1,63
 386.280273438 190.240234375 386.280273438 190.240234375 342.780273438 190.8203125 c 128,-1,64
 299.280273438 191.400390625 299.280273438 191.400390625 284.780273438 189.66015625 c 128,-1,65
 270.280273438 187.919921875 270.280273438 187.919921875 263.900390625 181.540039062 c 128,-1,66
 257.51953125 175.16015625 257.51953125 175.16015625 251.719726562 158.33984375 c 0,67,68
 238.377568687 119.645564031 238.377568687 119.645564031 221.559570312 114.83984375 c 0,69,70
 214.599609375 112.51953125 214.599609375 112.51953125 209.379882812 107.299804688 c 128,-1,71
 204.16015625 102.080078125 204.16015625 102.080078125 204.16015625 97.4404296875 c 256,54,55
1024.86035156 6.9599609375 m 0,72,73
 991.799804688 26.6796875 991.799804688 26.6796875 951.779785156 26.6796875 c 128,-1,74
 911.759765625 26.6796875 911.759765625 26.6796875 911.759765625 2.3203125 c 0,75,76
 911.759765625 -9.2802734375 911.759765625 -9.2802734375 925.100097656 -33.0600585938 c 128,-1,77
 938.440429688 -56.83984375 938.440429688 -56.83984375 938.440429688 -73.080078125 c 0,78,79
 938.440429688 -113.6796875 938.440429688 -113.6796875 842.16015625 -113.6796875 c 128,-1,80
 745.879882812 -113.6796875 745.879882812 -113.6796875 542.879882812 -63.2197265625 c 128,-1,81
 339.879882812 -12.759765625 339.879882812 -12.759765625 248.8203125 2.3203125 c 128,-1,82
 157.759765625 17.400390625 157.759765625 17.400390625 80.0400390625 16.8203125 c 128,-1,83
 2.3203125 16.240234375 2.3203125 16.240234375 -62.0595703125 2.900390625 c 128,-1,84
 -126.440429688 -10.4404296875 -126.440429688 -10.4404296875 -236.060058594 -42.9204101562 c 0,85,86
 -412.233579366 -95.1201171875 -412.233579366 -95.1201171875 -491.83984375 -95.1201171875 c 0,87,88
 -531.280273438 -95.1201171875 -531.280273438 -95.1201171875 -560.860351562 -85.259765625 c 128,-1,89
 -590.440429688 -75.400390625 -590.440429688 -75.400390625 -592.759765625 -59.16015625 c 0,90,91
 -593.919921875 -54.51953125 -593.919921875 -54.51953125 -584.639648438 -40.599609375 c 128,-1,92
 -575.360351562 -26.6796875 -575.360351562 -26.6796875 -568.400390625 -14.5 c 128,-1,93
 -561.440429688 -2.3203125 -561.440429688 -2.3203125 -555.059570312 14.5 c 128,-1,94
 -548.6796875 31.3203125 -548.6796875 31.3203125 -548.6796875 40.6000976562 c 128,-1,95
 -548.6796875 49.8798828125 -548.6796875 49.8798828125 -559.700195312 56.83984375 c 128,-1,96
 -570.719726562 63.7998046875 -570.719726562 63.7998046875 -595.080078125 63.7998046875 c 128,-1,97
 -619.440429688 63.7998046875 -619.440429688 63.7998046875 -641.479980469 48.7197265625 c 128,-1,98
 -663.51953125 33.6396484375 -663.51953125 33.6396484375 -668.16015625 22.0400390625 c 128,-1,99
 -672.799804688 10.4404296875 -672.799804688 10.4404296875 -672.799804688 -22.0395507812 c 128,-1,100
 -672.799804688 -54.51953125 -672.799804688 -54.51953125 -652.5 -85.259765625 c 128,-1,101
 -632.200195312 -116 -632.200195312 -116 -585.800292969 -138.620117188 c 128,-1,102
 -539.400390625 -161.240234375 -539.400390625 -161.240234375 -458.780273438 -161.240234375 c 128,-1,103
 -378.16015625 -161.240234375 -378.16015625 -161.240234375 -280.140136719 -127.020019531 c 128,-1,104
 -182.120117188 -92.7998046875 -182.120117188 -92.7998046875 -111.940429688 -80.0400390625 c 128,-1,105
 -41.759765625 -67.2802734375 -41.759765625 -67.2802734375 44.66015625 -67.2802734375 c 0,106,107
 216.847047553 -67.2802734375 216.847047553 -67.2802734375 534.759765625 -135.719726562 c 0,108,109
 713.400390625 -172.83984375 713.400390625 -172.83984375 800.979980469 -172.83984375 c 128,-1,110
 888.559570312 -172.83984375 888.559570312 -172.83984375 951.199707031 -159.5 c 128,-1,111
 1013.83984375 -146.16015625 1013.83984375 -146.16015625 1044 -125.280273438 c 128,-1,112
 1074.16015625 -104.400390625 1074.16015625 -104.400390625 1074.16015625 -71.919921875 c 0,113,114
 1074.16015625 -22.4469145552 1074.16015625 -22.4469145552 1024.86035156 6.9599609375 c 0,72,73
EndSplineSet
EndChar

StartChar: hyphen
Encoding: 45 45 20
Width: 1357
VWidth: 1392
GlyphClass: 1
Flags: W
LayerCount: 2
Back
SplineSet
510 63 m 128,-1,1
 540 61 540 61 570 61 c 256,2,3
 600 61 600 61 614.5 65.5 c 128,-1,4
 629 70 629 70 640 81 c 0,5,6
 650 91 650 91 653.5 100 c 128,-1,7
 657 109 657 109 657 128 c 256,8,9
 657 147 657 147 654 186 c 1,10,11
 654 180 654 180 650 224 c 2,12,-1
 648 249 l 2,13,14
 648 261 648 261 654.5 265.5 c 128,-1,15
 661 270 661 270 679 270 c 0,16,17
 695 270 695 270 701.5 272.5 c 128,-1,18
 708 275 708 275 708 282 c 0,19,20
 708 292 708 292 702.5 297 c 128,-1,21
 697 302 697 302 680 304 c 128,-1,22
 663 306 663 306 625 308 c 0,23,24
 611 309 611 309 587 309 c 0,25,26
 547 309 547 309 533.5 299 c 128,-1,27
 520 289 520 289 520 256 c 0,28,29
 520 238 520 238 523 211 c 0,30,31
 525 177 525 177 525 168 c 0,32,33
 525 133 525 133 514 121.5 c 128,-1,34
 503 110 503 110 472 110 c 0,35,36
 452 110 452 110 445.5 106.5 c 128,-1,37
 439 103 439 103 441 93 c 0,38,39
 443 86 443 86 451 79 c 128,-1,40
 459 72 459 72 469 69 c 0,41,0
 480 65 480 65 510 63 c 128,-1,1
1047 -10.5 m 128,-1,43
 1087 8 1087 8 1094 25 c 0,44,45
 1100 40 1100 40 1100 53 c 0,46,47
 1100 92 1100 92 1046 119 c 128,-1,48
 992 146 992 146 876 166 c 0,49,50
 820 176 820 176 801 176 c 0,51,52
 784 176 784 176 779 168 c 0,53,54
 772 158 772 158 772 153 c 0,55,56
 772 146 772 146 783.5 141.5 c 128,-1,57
 795 137 795 137 834 126 c 0,58,59
 883 112 883 112 906 96.5 c 128,-1,60
 929 81 929 81 929 60 c 0,61,62
 929 17 929 17 855.5 -6 c 128,-1,63
 782 -29 782 -29 652 -29 c 0,64,65
 631 -29 631 -29 583 -27 c 0,66,67
 507 -25 507 -25 461.5 -19 c 128,-1,68
 416 -13 416 -13 380 -1 c 0,69,70
 315 20 315 20 278.5 44.5 c 128,-1,71
 242 69 242 69 242 90 c 0,72,73
 242 115 242 115 292 125 c 0,74,75
 311 129 311 129 327 134 c 128,-1,76
 343 139 343 139 346 142 c 0,77,78
 354 151 354 151 329 158.5 c 128,-1,79
 304 166 304 166 260 171 c 128,-1,80
 216 176 216 176 172 176 c 0,81,82
 113 176 113 176 85 168 c 0,83,84
 49 158 49 158 39.5 150 c 128,-1,85
 30 142 30 142 30 120 c 0,86,87
 30 77 30 77 78 38.5 c 128,-1,88
 126 0 126 0 210 -24 c 0,89,90
 299 -49 299 -49 409.5 -62.5 c 128,-1,91
 520 -76 520 -76 634 -76 c 0,92,93
 814 -76 814 -76 945 -44 c 0,94,42
 1007 -29 1007 -29 1047 -10.5 c 128,-1,43
EndSplineSet
Fore
SplineSet
649.599609375 528.959960938 m 5,0,1
 649.599609375 528.959960938 649.599609375 528.959960938 655.400390625 426.879882812 c 5,2,3
 655.400390625 386.280273438 655.400390625 386.280273438 642.639648438 372.940429688 c 132,-1,4
 629.879882812 359.599609375 629.879882812 359.599609375 600.299804688 359.599609375 c 132,-1,5
 570.719726562 359.599609375 570.719726562 359.599609375 563.1796875 355.540039062 c 132,-1,6
 555.639648438 351.48046875 555.639648438 351.48046875 557.959960938 341.620117188 c 4,7,8
 562.982662064 320.275751331 562.982662064 320.275751331 590.440429688 312.040039062 c 4,9,10
 615.962646639 302.759765625 615.962646639 302.759765625 707.599609375 302.759765625 c 260,11,12
 742.400390625 302.759765625 742.400390625 302.759765625 759.219726562 307.98046875 c 132,-1,13
 776.040039062 313.200195312 776.040039062 313.200195312 788.220214844 325.379882812 c 132,-1,14
 800.400390625 337.559570312 800.400390625 337.559570312 804.459960938 348 c 132,-1,15
 808.51953125 358.440429688 808.51953125 358.440429688 808.51953125 380.48046875 c 260,16,17
 808.51953125 402.51953125 808.51953125 402.51953125 806.779785156 421.659667969 c 132,-1,18
 805.040039062 440.799804688 805.040039062 440.799804688 800.400390625 491.83984375 c 6,19,-1
 798.080078125 520.83984375 l 5,20,21
 798.080078125 534.759765625 798.080078125 534.759765625 805.620117188 539.98046875 c 132,-1,22
 813.16015625 545.200195312 813.16015625 545.200195312 832.879882812 545.200195312 c 132,-1,23
 852.599609375 545.200195312 852.599609375 545.200195312 860.139648438 548.099609375 c 132,-1,24
 867.6796875 551 867.6796875 551 867.6796875 560.859863281 c 132,-1,25
 867.6796875 570.719726562 867.6796875 570.719726562 861.299804688 576.51953125 c 4,26,27
 845.989159992 590.440429688 845.989159992 590.440429688 727.3203125 590.440429688 c 4,28,29
 680.919921875 590.440429688 680.919921875 590.440429688 665.259765625 578.83984375 c 132,-1,30
 649.599609375 567.240234375 649.599609375 567.240234375 649.599609375 528.959960938 c 5,0,1
1260.91992188 219.8203125 m 132,-1,32
 1307.3203125 241.280273438 1307.3203125 241.280273438 1314.86035156 259.840332031 c 132,-1,33
 1322.40039062 278.400390625 1322.40039062 278.400390625 1322.40039062 293.48046875 c 4,34,35
 1322.40039062 338.719726562 1322.40039062 338.719726562 1259.75976562 370.040039062 c 132,-1,36
 1197.12011719 401.360351562 1197.12011719 401.360351562 1062.55957031 424.559570312 c 4,37,38
 997.599609375 436.16015625 997.599609375 436.16015625 976.719726562 436.16015625 c 132,-1,39
 955.83984375 436.16015625 955.83984375 436.16015625 948.879882812 425.720214844 c 132,-1,40
 941.919921875 415.280273438 941.919921875 415.280273438 941.919921875 408.3203125 c 132,-1,41
 941.919921875 401.360351562 941.919921875 401.360351562 955.259765625 396.139648438 c 132,-1,42
 968.599609375 390.919921875 968.599609375 390.919921875 1019.63964844 376.419921875 c 4,43,44
 1124.04003906 346.760742692 1124.04003906 346.760742692 1124.04003906 301.599609375 c 4,45,46
 1124.04003906 251.719726562 1124.04003906 251.719726562 1038.78027344 225.040039062 c 132,-1,47
 953.51953125 198.360351562 953.51953125 198.360351562 802.719726562 198.360351562 c 4,48,49
 584.638671875 198.360351562 584.638671875 198.360351562 487.200195312 230.83984375 c 4,50,51
 411.799804688 255.200195312 411.799804688 255.200195312 369.459960938 283.620117188 c 132,-1,52
 327.120117188 312.040039062 327.120117188 312.040039062 327.120117188 336.400390625 c 4,53,54
 327.120117188 365.400390625 327.120117188 365.400390625 385.120117188 377 c 4,55,56
 439.484227458 388.444188395 439.484227458 388.444188395 447.759765625 396.719726562 c 4,57,58
 465.765258978 416.976143425 465.765258978 416.976143425 348 430.360351562 c 4,59,60
 296.959960938 436.16015625 296.959960938 436.16015625 237.220214844 436.16015625 c 132,-1,61
 177.48046875 436.16015625 177.48046875 436.16015625 140.360351562 425.720214844 c 132,-1,62
 103.240234375 415.280273438 103.240234375 415.280273438 92.2197265625 406 c 132,-1,63
 81.2001953125 396.719726562 81.2001953125 396.719726562 81.2001953125 371.200195312 c 4,64,65
 81.2001953125 321.3203125 81.2001953125 321.3203125 136.879882812 276.66015625 c 132,-1,66
 192.559570312 232 192.559570312 232 292.899902344 203.580078125 c 4,67,68
 503.820783097 143.83984375 503.820783097 143.83984375 781.83984375 143.83984375 c 4,69,70
 990.639648438 143.83984375 990.639648438 143.83984375 1142.59960938 180.959960938 c 4,71,31
 1214.51953125 198.360351562 1214.51953125 198.360351562 1260.91992188 219.8203125 c 132,-1,32
EndSplineSet
EndChar

StartChar: underscore
Encoding: 95 95 21
Width: 2030
VWidth: 1392
GlyphClass: 1
Flags: W
LayerCount: 2
Back
SplineSet
402 251 m 0,1,2
 473 251 473 251 522 266 c 0,3,4
 611 293 611 293 611 331 c 0,5,6
 611 352 611 352 582 379 c 256,7,8
 553 406 553 406 463.5 434.5 c 128,-1,9
 374 463 374 463 270 482 c 128,-1,10
 166 501 166 501 100 501 c 0,11,12
 40 501 40 501 34 484 c 0,13,14
 30 475 30 475 30 466 c 0,15,16
 30 448 30 448 58.5 440.5 c 128,-1,17
 87 433 87 433 162 429 c 0,18,19
 259 424 259 424 309.5 412.5 c 128,-1,20
 360 401 360 401 382 379 c 0,21,22
 402 359 402 359 402 345 c 0,23,24
 402 323 402 323 354 314 c 0,25,26
 329 310 329 310 315 301 c 128,-1,27
 301 292 301 292 301 282 c 0,28,29
 301 270 301 270 323 261 c 0,30,0
 347 251 347 251 402 251 c 0,1,2
921.5 218 m 128,-1,32
 932 216 932 216 935.5 215.5 c 128,-1,33
 939 215 939 215 943 217 c 0,34,35
 949 220 949 220 953.5 229 c 128,-1,36
 958 238 958 238 958 246 c 0,37,38
 958 253 958 253 955 256 c 0,39,40
 950 263 950 263 928 266 c 0,41,42
 868 276 868 276 838 300.5 c 128,-1,43
 808 325 808 325 811 356 c 0,44,45
 816 403 816 403 884 428 c 128,-1,46
 952 453 952 453 1074 453 c 0,47,48
 1327 453 1327 453 1415 356 c 0,49,50
 1430 338 1430 338 1436 328.5 c 128,-1,51
 1442 319 1442 319 1442 311 c 0,52,53
 1442 278 1442 278 1389 275 c 0,54,55
 1366 273 1366 273 1355.5 270.5 c 128,-1,56
 1345 268 1345 268 1341 262 c 0,57,58
 1338 258 1338 258 1338 255 c 0,59,60
 1338 249 1338 249 1350 241 c 0,61,62
 1361 233 1361 233 1417.5 224.5 c 128,-1,63
 1474 216 1474 216 1513 216 c 0,64,65
 1528 216 1528 216 1534 217 c 0,66,67
 1580 223 1580 223 1598.5 228 c 128,-1,68
 1617 233 1617 233 1625 244.5 c 128,-1,69
 1633 256 1633 256 1633 281 c 0,70,71
 1633 313 1633 313 1624.5 333.5 c 128,-1,72
 1616 354 1616 354 1595 374 c 0,73,74
 1517 454 1517 454 1293 483 c 0,75,76
 1207 494 1207 494 1150.5 499.5 c 128,-1,77
 1094 505 1094 505 1044 505 c 0,78,79
 974 505 974 505 906.5 493.5 c 128,-1,80
 839 482 839 482 755 455 c 0,81,82
 705 439 705 439 682.5 423 c 128,-1,83
 660 407 660 407 653 383 c 0,84,85
 648 368 648 368 648 353 c 0,86,87
 648 309 648 309 708 274.5 c 128,-1,88
 768 240 768 240 886 223 c 0,89,31
 911 220 911 220 921.5 218 c 128,-1,32
1627 -10.5 m 128,-1,91
 1667 8 1667 8 1674 25 c 0,92,93
 1680 40 1680 40 1680 53 c 0,94,95
 1680 92 1680 92 1626 119 c 128,-1,96
 1572 146 1572 146 1456 166 c 0,97,98
 1400 176 1400 176 1381 176 c 0,99,100
 1364 176 1364 176 1359 168 c 0,101,102
 1352 158 1352 158 1352 153 c 0,103,104
 1352 146 1352 146 1363.5 141.5 c 128,-1,105
 1375 137 1375 137 1414 126 c 0,106,107
 1463 112 1463 112 1486 96.5 c 128,-1,108
 1509 81 1509 81 1509 60 c 0,109,110
 1509 17 1509 17 1435.5 -6 c 128,-1,111
 1362 -29 1362 -29 1232 -29 c 0,112,113
 1211 -29 1211 -29 1163 -27 c 0,114,115
 1087 -25 1087 -25 1041.5 -19 c 128,-1,116
 996 -13 996 -13 960 -1 c 0,117,118
 895 20 895 20 858.5 44.5 c 128,-1,119
 822 69 822 69 822 90 c 0,120,121
 822 115 822 115 872 125 c 0,122,123
 891 129 891 129 907 134 c 128,-1,124
 923 139 923 139 926 142 c 0,125,126
 934 151 934 151 909 158.5 c 128,-1,127
 884 166 884 166 840 171 c 128,-1,128
 796 176 796 176 752 176 c 0,129,130
 693 176 693 176 665 168 c 0,131,132
 629 158 629 158 619.5 150 c 128,-1,133
 610 142 610 142 610 120 c 0,134,135
 610 77 610 77 658 38.5 c 128,-1,136
 706 0 706 0 790 -24 c 0,137,138
 879 -49 879 -49 989.5 -62.5 c 128,-1,139
 1100 -76 1100 -76 1214 -76 c 0,140,141
 1394 -76 1394 -76 1525 -44 c 0,142,90
 1587 -29 1587 -29 1627 -10.5 c 128,-1,91
EndSplineSet
Fore
SplineSet
411.799804688 581.16015625 m 132,-1,1
 395.559570312 570.719726562 395.559570312 570.719726562 395.559570312 557.959960938 c 132,-1,2
 395.559570312 545.200195312 395.559570312 545.200195312 422.239746094 534.180175781 c 132,-1,3
 448.919921875 523.16015625 448.919921875 523.16015625 522 523.16015625 c 132,-1,4
 595.080078125 523.16015625 595.080078125 523.16015625 651.919921875 540.559570312 c 4,5,6
 755.16015625 571.879882812 755.16015625 571.879882812 755.16015625 615.959960938 c 4,7,8
 755.16015625 640.3203125 755.16015625 640.3203125 721.51953125 671.639648438 c 260,9,10
 687.879882812 702.959960938 687.879882812 702.959960938 584.059570312 736.01953125 c 132,-1,11
 480.240234375 769.080078125 480.240234375 769.080078125 359.599609375 791.120117188 c 132,-1,12
 238.959960938 813.16015625 238.959960938 813.16015625 165.879882812 813.16015625 c 132,-1,13
 92.7998046875 813.16015625 92.7998046875 813.16015625 85.83984375 793.440429688 c 4,14,15
 81.2001953125 783 81.2001953125 783 81.2001953125 772.559570312 c 4,16,17
 81.2001953125 751.6796875 81.2001953125 751.6796875 114.259765625 742.98046875 c 132,-1,18
 147.3203125 734.280273438 147.3203125 734.280273438 247.080078125 729.060058594 c 132,-1,19
 346.83984375 723.83984375 346.83984375 723.83984375 405.419921875 710.5 c 132,-1,20
 464 697.16015625 464 697.16015625 488.359863281 672.800292969 c 132,-1,21
 512.719726562 648.440429688 512.719726562 648.440429688 512.719726562 632.200195312 c 4,22,23
 512.719726562 606.6796875 512.719726562 606.6796875 457.040039062 596.240234375 c 4,24,0
 428.040039062 591.599609375 428.040039062 591.599609375 411.799804688 581.16015625 c 132,-1,1
1141.15907844 484.159920592 m 132,-1,26
 1147.24023438 487.200195312 1147.24023438 487.200195312 1152.45996094 497.639648438 c 132,-1,27
 1157.6796875 508.080078125 1157.6796875 508.080078125 1157.6796875 516.780273438 c 132,-1,28
 1157.6796875 525.48046875 1157.6796875 525.48046875 1154.20019531 528.959960938 c 4,29,30
 1148.40039062 537.080078125 1148.40039062 537.080078125 1122.87988281 540.559570312 c 4,31,32
 1053.28027344 552.16015625 1053.28027344 552.16015625 1018.48046875 580.580078125 c 132,-1,33
 983.6796875 609 983.6796875 609 987.16015625 644.959960938 c 4,34,35
 992.959960938 699.48046875 992.959960938 699.48046875 1071.83984375 728.48046875 c 132,-1,36
 1150.71972656 757.48046875 1150.71972656 757.48046875 1292.24023438 757.48046875 c 4,37,38
 1620.95167214 757.48046875 1620.95167214 757.48046875 1712.16015625 613.059570312 c 4,39,40
 1719.12011719 602.040039062 1719.12011719 602.040039062 1719.12011719 592.759765625 c 4,41,42
 1719.12011719 554.48046875 1719.12011719 554.48046875 1657.63964844 551 c 4,43,44
 1598.48046875 545.854970317 1598.48046875 545.854970317 1598.48046875 527.799804688 c 4,45,46
 1598.48046875 520.83984375 1598.48046875 520.83984375 1611.8203125 511.560058594 c 132,-1,47
 1625.16015625 502.280273438 1625.16015625 502.280273438 1690.70019531 492.419921875 c 132,-1,48
 1756.24023438 482.559570312 1756.24023438 482.559570312 1787.56005859 482.559570312 c 132,-1,49
 1818.87988281 482.559570312 1818.87988281 482.559570312 1849.04003906 486.619628906 c 132,-1,50
 1879.20019531 490.6796875 1879.20019531 490.6796875 1900.66015625 496.48046875 c 132,-1,51
 1922.12011719 502.280273438 1922.12011719 502.280273438 1931.40039062 515.620117188 c 132,-1,52
 1940.6796875 528.959960938 1940.6796875 528.959960938 1940.6796875 562.020019531 c 132,-1,53
 1940.6796875 595.080078125 1940.6796875 595.080078125 1930.8203125 618.860351562 c 132,-1,54
 1920.95996094 642.639648438 1920.95996094 642.639648438 1896.59960938 665.83984375 c 4,55,56
 1806.12011719 758.639648438 1806.12011719 758.639648438 1546.28027344 792.280273438 c 4,57,58
 1346.75878906 817.799804687 1346.75878906 817.799804687 1261.49951172 817.799804688 c 132,-1,59
 1176.24023438 817.799804688 1176.24023438 817.799804688 1097.94042969 804.459960938 c 132,-1,60
 1019.63964844 791.120117188 1019.63964844 791.120117188 941.919921875 766.180175781 c 132,-1,61
 864.200195312 741.240234375 864.200195312 741.240234375 838.099609375 722.6796875 c 4,62,63
 798.080078125 694.221587096 798.080078125 694.221587096 798.080078125 642.331008392 c 132,-1,64
 798.080078125 590.440429688 798.080078125 590.440429688 867.6796875 550.419921875 c 132,-1,65
 937.280273438 510.400390625 937.280273438 510.400390625 1074.16015625 490.6796875 c 4,66,67
 1103.16015625 487.200195312 1103.16015625 487.200195312 1119.11903938 484.159920592 c 132,-1,25
 1135.07792251 481.119645871 1135.07792251 481.119645871 1141.15907844 484.159920592 c 132,-1,26
1933.71972656 219.8203125 m 132,-1,69
 1980.12011719 241.280273438 1980.12011719 241.280273438 1987.66015625 259.840332031 c 132,-1,70
 1995.20019531 278.400390625 1995.20019531 278.400390625 1995.20019531 293.48046875 c 4,71,72
 1995.20019531 338.719726562 1995.20019531 338.719726562 1932.55957031 370.040039062 c 132,-1,73
 1869.91992188 401.360351562 1869.91992188 401.360351562 1735.36035156 424.559570312 c 4,74,75
 1670.40039062 436.16015625 1670.40039062 436.16015625 1649.52001953 436.16015625 c 132,-1,76
 1628.63964844 436.16015625 1628.63964844 436.16015625 1621.6796875 425.720214844 c 132,-1,77
 1614.71972656 415.280273438 1614.71972656 415.280273438 1614.71972656 408.3203125 c 132,-1,78
 1614.71972656 401.360351562 1614.71972656 401.360351562 1628.05957031 396.139648438 c 132,-1,79
 1641.40039062 390.919921875 1641.40039062 390.919921875 1692.44042969 376.419921875 c 4,80,81
 1796.83984375 346.761020124 1796.83984375 346.761020124 1796.83984375 301.599609375 c 4,82,83
 1796.83984375 251.719726562 1796.83984375 251.719726562 1711.58007812 225.040039062 c 132,-1,84
 1626.3203125 198.360351562 1626.3203125 198.360351562 1475.51953125 198.360351562 c 4,85,86
 1257.43847656 198.360351562 1257.43847656 198.360351562 1160 230.83984375 c 4,87,88
 1084.59960938 255.200195312 1084.59960938 255.200195312 1042.25976562 283.620117188 c 132,-1,89
 999.919921875 312.040039062 999.919921875 312.040039062 999.919921875 336.400390625 c 4,90,91
 999.919921875 365.400390625 999.919921875 365.400390625 1057.91992188 377 c 4,92,93
 1112.28403215 388.444188395 1112.28403215 388.444188395 1120.55957031 396.719726562 c 4,94,95
 1138.56506367 416.976143425 1138.56506367 416.976143425 1020.79980469 430.360351562 c 4,96,97
 969.759765625 436.16015625 969.759765625 436.16015625 910.020019531 436.16015625 c 132,-1,98
 850.280273438 436.16015625 850.280273438 436.16015625 813.16015625 425.720214844 c 132,-1,99
 776.040039062 415.280273438 776.040039062 415.280273438 765.01953125 406 c 132,-1,100
 754 396.719726562 754 396.719726562 754 371.200195312 c 4,101,102
 754 321.3203125 754 321.3203125 809.6796875 276.66015625 c 132,-1,103
 865.360351562 232 865.360351562 232 965.700195312 203.580078125 c 4,104,105
 1176.62004967 143.83984375 1176.62004967 143.83984375 1454.63964844 143.83984375 c 4,106,107
 1663.44042969 143.83984375 1663.44042969 143.83984375 1815.40039062 180.959960938 c 4,108,68
 1887.3203125 198.360351562 1887.3203125 198.360351562 1933.71972656 219.8203125 c 132,-1,69
EndSplineSet
EndChar
